<svg width="70" height="70" viewBox="0 0 70 70" fill="none" xmlns="http://www.w3.org/2000/svg">
<g clip-path="">
<path d="M66.6626 41.0006H65.6151V31.565C65.6151 30.0712 64.8716 28.7486 63.7361 27.9449V26.6602C63.7361 24.7966 62.2201 23.2805 60.3564 23.2805H59.5743L62.5669 18.8891C63.57 17.4172 63.1886 15.4034 61.7167 14.4002L41.4097 0.561528C40.6967 0.0754925 39.8373 -0.103882 38.9891 0.0570355C38.1413 0.21768 37.4067 0.698793 36.9208 1.41192L19.3933 27.1319H14.5159L15.6926 15.2196C15.7059 15.0853 15.7931 14.9689 15.9148 14.9231C17.4308 14.3515 18.7447 13.284 19.6142 11.9174C19.6827 11.8098 19.8119 11.7483 19.9457 11.7618L27.5957 12.5176C28.1443 12.5708 28.6322 12.1713 28.6864 11.623C28.7405 11.0748 28.34 10.5866 27.7918 10.5324L20.1417 9.77665C19.2537 9.68969 18.4069 10.0989 17.9311 10.8465C17.2918 11.8514 16.3257 12.6361 15.2111 13.0564C14.372 13.3728 13.7959 14.1264 13.7073 15.0234L12.5113 27.1317H11.2394L13.1004 8.29133C13.1674 7.61321 13.7727 7.115 14.4516 7.18295L29.9109 8.7101C30.4592 8.76301 30.9474 8.36379 31.0016 7.81555C31.0557 7.26731 30.6552 6.77909 30.107 6.72495L14.6477 5.1978C12.8752 5.02293 11.2903 6.32245 11.1151 8.09514L9.61504 23.2805H7.06045C5.19697 23.2805 3.68076 24.7966 3.68076 26.6602V27.5365C2.15621 28.2385 1.09473 29.7796 1.09473 31.565V65.5662C1.09473 68.0108 3.08344 69.9995 5.52811 69.9995H61.1818C63.6263 69.9995 65.6151 68.0108 65.6151 65.5662V56.1307H66.6626C67.8991 56.1307 68.9049 55.1249 68.9049 53.8885V43.2429C68.9051 42.0065 67.8991 41.0006 66.6626 41.0006ZM60.3564 25.2755C61.1202 25.2754 61.7413 25.8966 61.7413 26.6603V27.1685C61.5578 27.1453 61.3714 27.132 61.1818 27.132H56.9497L58.2147 25.2755H60.3564ZM38.5692 2.5352C38.7551 2.26245 39.0361 2.07842 39.3604 2.0169C39.4379 2.00227 39.5157 1.99489 39.593 1.99489C39.8386 1.99489 40.0787 2.06844 40.2863 2.20981L60.5932 16.0485C61.1562 16.4323 61.3023 17.2025 60.9186 17.7655L54.5358 27.1316H53.004L56.1333 22.5396C56.6408 21.7949 56.6827 20.8472 56.2422 20.0661C55.6567 19.0284 55.4194 17.8065 55.5739 16.6254C55.6887 15.7467 55.3021 14.889 54.5649 14.3867L44.0378 7.21276C43.3005 6.71032 42.3607 6.66424 41.585 7.09258C40.5425 7.66817 39.3184 7.89416 38.1385 7.72901C37.2635 7.60623 36.3761 8.00135 35.8761 8.73485L23.3391 27.1317H21.8073L38.5692 2.5352ZM39.0085 19.4734C34.6648 19.4734 31.0992 22.8604 30.8086 27.1317H25.7529L37.5243 9.85827C37.5244 9.85827 37.5244 9.85827 37.5244 9.85827C37.5913 9.75997 37.7021 9.70145 37.816 9.70145C37.8312 9.70145 37.8464 9.70254 37.8616 9.70459C39.4664 9.92909 41.1309 9.62202 42.549 8.83903C42.6605 8.77723 42.8038 8.78612 42.9143 8.86131L53.4415 16.0354C53.5517 16.1106 53.6122 16.2407 53.5958 16.367C53.3857 17.9733 53.7086 19.635 54.5047 21.0462C54.5686 21.1596 54.5608 21.3048 54.4851 21.4162L50.5902 27.1316H47.2087C46.9179 22.8604 43.3525 19.4734 39.0085 19.4734ZM45.2084 27.1319H32.8087C33.0944 23.9615 35.7651 21.4684 39.0085 21.4684C42.252 21.4683 44.9228 23.9615 45.2084 27.1319ZM5.67563 26.6602C5.67563 25.8965 6.29674 25.2752 7.06045 25.2752H9.41803L9.23469 27.1317H5.67563V26.6602ZM3.08959 31.565C3.08959 30.2205 4.18348 29.1266 5.52811 29.1266H61.1818C62.5264 29.1266 63.6202 30.2205 63.6202 31.565V34.3327H3.08959V31.565ZM63.6202 65.5662C63.6202 66.9107 62.5264 68.0046 61.1818 68.0046H5.52811C4.18348 68.0046 3.08959 66.9107 3.08959 65.5662V62.7985H8.46838C9.01936 62.7985 9.46574 62.352 9.46574 61.8011C9.46574 61.2503 9.01922 60.8038 8.46838 60.8038H3.08959V36.3276H63.6202V41.0006H54.1366H54.1364C51.1483 41.0006 48.5599 42.7424 47.3315 45.2636C47.3274 45.2721 47.3228 45.2803 47.3185 45.2888C47.3081 45.3103 47.2991 45.3325 47.289 45.3541C47.1427 45.6649 47.0156 45.9866 46.9121 46.3186C46.9118 46.3195 46.9115 46.3203 46.9112 46.3213C46.6904 47.0307 46.5714 47.7845 46.5714 48.5657C46.5714 52.7371 49.965 56.1307 54.1363 56.1307H54.1364H63.6201V60.8038H14.8551C14.3041 60.8038 13.8577 61.2503 13.8577 61.8011C13.8577 62.352 14.3042 62.7985 14.8551 62.7985H63.6202V65.5662ZM66.9102 53.8884C66.9102 54.0248 66.7992 54.1359 66.6626 54.1359H54.1367C52.0251 54.1359 50.184 52.9548 49.2397 51.2186C49.1968 51.1397 49.1558 51.0596 49.1165 50.9785C49.0382 50.8162 48.9675 50.6495 48.905 50.4789C48.686 49.882 48.5665 49.2375 48.5665 48.5657C48.5665 47.8938 48.6861 47.2493 48.905 46.6524C48.9676 46.4819 49.0383 46.3153 49.1165 46.1529C49.1558 46.0718 49.1968 45.9917 49.2397 45.9128C50.184 44.1766 52.0251 42.9955 54.1367 42.9955H66.6626C66.799 42.9955 66.9102 43.1065 66.9102 43.2429V53.8884Z" fill="#3E3E3E"/>
<path d="M54.3704 44.5193C52.1389 44.5193 50.3235 46.3348 50.3235 48.5662C50.3235 50.7975 52.1389 52.6129 54.3704 52.6129C56.6019 52.6129 58.4173 50.7975 58.4173 48.5662C58.4173 46.3348 56.6019 44.5193 54.3704 44.5193ZM54.3704 50.618C53.2389 50.618 52.3184 49.6975 52.3184 48.5662C52.3184 47.4348 53.2389 46.5141 54.3704 46.5141C55.5019 46.5141 56.4224 47.4347 56.4224 48.5662C56.4224 49.6976 55.5019 50.618 54.3704 50.618Z" fill="#FF4444"/>
</g>
<defs>
<clipPath id="clip0">
<rect width="70" height="70" fill="white"/>
</clipPath>
</defs>
</svg>
