<svg width="71" height="71" viewBox="0 0 71 71" fill="none" xmlns="http://www.w3.org/2000/svg">
<path d="M56.113 54.9679C54.8498 54.9679 53.8226 53.9407 53.8226 52.6776C53.8226 51.4145 54.8498 50.3873 56.113 50.3873C57.3761 50.3873 58.4033 51.4145 58.4033 52.6776H60.6936C60.6936 50.5499 59.2278 48.7715 57.2581 48.2596V45.8066H54.9678V48.2596C52.9981 48.7715 51.5323 50.5499 51.5323 52.6776C51.5323 55.2038 53.5867 57.2583 56.113 57.2583C57.3761 57.2583 58.4033 58.2855 58.4033 59.5486C58.4033 60.8117 57.3761 61.8389 56.113 61.8389C54.8498 61.8389 53.8226 60.8117 53.8226 59.5486H51.5323C51.5323 61.6763 52.9981 63.4547 54.9678 63.9666V66.4195H57.2581V63.9666C59.2278 63.4547 60.6936 61.6763 60.6936 59.5486C60.6936 57.0223 58.6392 54.9679 56.113 54.9679Z" fill="#FF4444"/>
<path d="M66.4193 54.9678H64.129V57.2581H66.4193V54.9678Z" fill="#3E3E3E"/>
<path d="M48.0968 54.9678H45.8065V57.2581H48.0968V54.9678Z" fill="#3E3E3E"/>
<path d="M57.2581 41.2842V5.58064C57.2581 5.02836 56.8103 4.58065 56.2581 4.58065H50.3871V3.43548C50.3871 1.54139 48.8457 0 46.9516 0C45.0575 0 43.5161 1.54139 43.5161 3.43548V4.58065H41.2258V3.43548C41.2258 1.54139 39.6844 0 37.7903 0C35.8962 0 34.3548 1.54139 34.3548 3.43548V4.58065H32.0645V3.43548C32.0645 1.54139 30.5231 0 28.629 0C26.7349 0 25.1935 1.54139 25.1935 3.43548V4.58065H22.9032V3.43548C22.9032 1.54139 21.3618 0 19.4677 0C17.5736 0 16.0323 1.54139 16.0323 3.43548V4.58065H13.7419V3.43548C13.7419 1.54139 12.2005 0 10.3065 0C8.41235 0 6.87097 1.54139 6.87097 3.43548V4.58065H0.999999C0.447715 4.58065 0 5.02836 0 5.58065V56.2581C0 56.8103 0.447715 57.2581 1 57.2581H41.2842C41.8717 64.9318 48.2903 71 56.1129 71C59.6835 71 63.1373 69.7163 65.8376 67.3847L64.3409 65.6509C62.0563 67.6241 59.1338 68.7097 56.1129 68.7097C49.1675 68.7097 43.5161 63.0583 43.5161 56.1129C43.5161 49.1675 49.1675 43.5161 56.1129 43.5161C63.0583 43.5161 68.7097 49.1675 68.7097 56.1129C68.7097 59.017 67.75 61.7448 65.9327 64.0031L67.718 65.4391C69.8342 62.8075 71 59.4957 71 56.1129C71 48.2903 64.9318 41.8717 57.2581 41.2842ZM45.8064 3.43548C45.8064 2.8045 46.3206 2.29032 46.9516 2.29032C47.5826 2.29032 48.0968 2.8045 48.0968 3.43548V8.01613C48.0968 8.64711 47.5826 9.16129 46.9516 9.16129C46.3206 9.16129 45.8064 8.64711 45.8064 8.01613V3.43548ZM36.6452 3.43548C36.6452 2.8045 37.1593 2.29032 37.7903 2.29032C38.4213 2.29032 38.9355 2.8045 38.9355 3.43548V8.01613C38.9355 8.64711 38.4213 9.16129 37.7903 9.16129C37.1593 9.16129 36.6452 8.64711 36.6452 8.01613V3.43548ZM27.4839 3.43548C27.4839 2.8045 27.998 2.29032 28.629 2.29032C29.26 2.29032 29.7742 2.8045 29.7742 3.43548V8.01613C29.7742 8.64711 29.26 9.16129 28.629 9.16129C27.998 9.16129 27.4839 8.64711 27.4839 8.01613V3.43548ZM18.3226 3.43548C18.3226 2.8045 18.8368 2.29032 19.4677 2.29032C20.0987 2.29032 20.6129 2.8045 20.6129 3.43548V8.01613C20.6129 8.64711 20.0987 9.16129 19.4677 9.16129C18.8368 9.16129 18.3226 8.64711 18.3226 8.01613V3.43548ZM9.16129 3.43548C9.16129 2.8045 9.67547 2.29032 10.3065 2.29032C10.9374 2.29032 11.4516 2.8045 11.4516 3.43548V8.01613C11.4516 8.64711 10.9374 9.16129 10.3065 9.16129C9.67547 9.16129 9.16129 8.64711 9.16129 8.01613V3.43548ZM50.3871 41.2258H43.5161V34.3548H50.3871V41.2258ZM50.3871 32.0645H43.5161V25.1935H50.3871V32.0645ZM50.3871 22.9032H43.5161V16.0323H50.3871V22.9032ZM54.9677 41.2842C54.1856 41.3438 53.4218 41.4651 52.6774 41.6426V13.7419H32.0645V22.9032H4.58065V52.6774H25.1935V43.5161H48.2147C44.3303 45.961 41.6541 50.1409 41.2842 54.9677H2.29032V6.87097H6.87097V8.01613C6.87097 9.91023 8.41235 11.4516 10.3065 11.4516C12.2005 11.4516 13.7419 9.91023 13.7419 8.01613V6.87097H16.0323V8.01613C16.0323 9.91023 17.5736 11.4516 19.4677 11.4516C21.3618 11.4516 22.9032 9.91023 22.9032 8.01613V6.87097H25.1935V8.01613C25.1935 9.91023 26.7349 11.4516 28.629 11.4516C30.5231 11.4516 32.0645 9.91023 32.0645 8.01613V6.87097H34.3548V8.01613C34.3548 9.91023 35.8962 11.4516 37.7903 11.4516C39.6844 11.4516 41.2258 9.91023 41.2258 8.01613V6.87097H43.5161V8.01613C43.5161 9.91023 45.0575 11.4516 46.9516 11.4516C48.8457 11.4516 50.3871 9.91023 50.3871 8.01613V6.87097H54.9677V41.2842ZM34.3548 32.0645V25.1935H41.2258V32.0645H34.3548ZM41.2258 34.3548V41.2258H34.3548V34.3548H41.2258ZM34.3548 22.9032V16.0323H41.2258V22.9032H34.3548ZM25.1935 32.0645V25.1935H32.0645V32.0645H25.1935ZM32.0645 34.3548V41.2258H25.1935V34.3548H32.0645ZM16.0323 41.2258V34.3548H22.9032V41.2258H16.0323ZM22.9032 43.5161V50.3871H16.0323V43.5161H22.9032ZM16.0323 32.0645V25.1935H22.9032V32.0645H16.0323ZM6.87097 41.2258V34.3548H13.7419V41.2258H6.87097ZM13.7419 43.5161V50.3871H6.87097V43.5161H13.7419ZM6.87097 32.0645V25.1935H13.7419V32.0645H6.87097Z" fill="#3E3E3E"/>
</svg>
