<svg width="70" height="70" viewBox="0 0 70 70" fill="none" xmlns="http://www.w3.org/2000/svg">
<g clip-path="">
<path d="M11.6309 62.1979C11.3768 61.9435 11.024 61.7974 10.6645 61.7974C10.3049 61.7974 9.95215 61.9435 9.69786 62.1979C9.44356 62.4524 9.29727 62.805 9.29727 63.1646C9.29727 63.5241 9.44342 63.8769 9.69786 64.131C9.95215 64.3853 10.3049 64.5317 10.6645 64.5317C11.024 64.5317 11.3768 64.3854 11.6309 64.131C11.8852 63.8769 12.0316 63.5241 12.0316 63.1646C12.0316 62.805 11.8854 62.4522 11.6309 62.1979Z" fill="#FF4444"/>
<path d="M64.1927 25.0112C63.9384 24.7567 63.5871 24.6106 63.2261 24.6106C62.8666 24.6106 62.5138 24.7567 62.2595 25.0112C62.0054 25.2655 61.8589 25.6182 61.8589 25.9778C61.8589 26.3374 62.0052 26.6901 62.2595 26.9443C62.5138 27.1985 62.8666 27.345 63.2261 27.345C63.5871 27.345 63.9384 27.1987 64.1927 26.9443C64.4483 26.6901 64.5945 26.3374 64.5945 25.9778C64.5945 25.6182 64.4483 25.2655 64.1927 25.0112Z" fill="#FF4444"/>
<path d="M69.6001 0.400449C69.3436 0.144102 68.9958 0 68.6331 0L35.0011 0.00177734C34.2461 0.00177734 33.634 0.614004 33.634 1.36896V5.27871L20.6746 8.75123C19.9452 8.94674 19.5123 9.69637 19.7078 10.4256L26.4244 35.4919L20.614 41.3023C19.8745 40.2225 18.6328 39.5124 17.2283 39.5124H4.10371C1.84211 39.5124 0.00228882 41.3524 0.00228882 43.6138V65.8984C0.00228882 68.16 1.84211 70 4.10371 70H17.2284C19.1498 70 20.766 68.6716 21.209 66.8855L22.8346 68.3032C24.0895 69.3975 25.6973 70.0001 27.3624 70.0001H68.6333C69.3883 70.0001 70.0005 69.3879 70.0005 68.6329V1.36719C70.0002 1.00461 69.8564 0.656797 69.6001 0.400449ZM18.5954 65.8986C18.5954 66.6523 17.982 67.2658 17.2282 67.2658H4.10358C3.34971 67.2658 2.73639 66.6524 2.73639 65.8986V43.614C2.73639 42.8601 3.34971 42.2468 4.10358 42.2468H9.29875V57.9961C9.29875 58.7511 9.91098 59.3633 10.6659 59.3633C11.4209 59.3633 12.0331 58.7511 12.0331 57.9961V42.2468H17.2283C17.9822 42.2468 18.5955 42.8601 18.5955 43.614V65.8986H18.5954ZM22.7028 11.0385L33.634 8.10947V13.1756L32.7177 13.4211C32.3673 13.5151 32.0689 13.7441 31.8876 14.0581C31.7063 14.3721 31.6571 14.7453 31.751 15.0955C32.2764 17.0562 31.1087 19.0787 29.148 19.6041C28.7973 19.6982 28.4983 19.9276 28.3172 20.2423C28.136 20.5569 28.0872 20.9307 28.1819 21.2812L33.5111 41.0149H30.7672L29.3531 35.4828C29.3081 35.3067 29.2293 35.1444 29.1239 35.0033L22.7028 11.0385ZM33.634 19.4454V30.9818L31.1404 21.7485C32.1821 21.2107 33.0345 20.406 33.634 19.4454ZM53.2756 67.2656H27.3622C26.358 67.2656 25.3882 66.9022 24.6314 66.2423L21.3297 63.3629V44.4537L27.2986 38.4848L28.3811 42.7204C28.5359 43.3256 29.081 43.7489 29.7057 43.7489L56.5851 43.7505C57.6406 43.7505 58.4992 44.6091 58.4992 45.6646C58.4992 46.7201 57.6406 47.5787 56.5851 47.5787H42.8121C42.0571 47.5787 41.4449 48.1909 41.4449 48.9459C41.4449 49.7008 42.0571 50.313 42.8121 50.313H60.8644C61.9199 50.313 62.7785 51.1716 62.7785 52.2271C62.7785 53.2826 61.9199 54.1412 60.8644 54.1412H42.8121C42.0571 54.1412 41.4449 54.7534 41.4449 55.5084C41.4449 56.2633 42.0571 56.8755 42.8121 56.8755H57.9391C58.9945 56.8755 59.8531 57.7341 59.8531 58.7896C59.8531 59.8451 58.9945 60.7037 57.9391 60.7037H42.8121C42.0571 60.7037 41.4449 61.3159 41.4449 62.0709C41.4449 62.8258 42.0571 63.438 42.8121 63.438H53.2756C54.331 63.438 55.1896 64.2966 55.1896 65.3521C55.1895 66.407 54.3309 67.2656 53.2756 67.2656ZM67.2661 67.2656H67.266H57.5099C57.775 66.6814 57.9239 66.0338 57.9239 65.3516C57.9239 64.6693 57.775 64.0217 57.5099 63.4375H57.9391C60.5021 63.4375 62.5874 61.3523 62.5874 58.7892C62.5874 58.0416 62.4089 57.3352 62.0939 56.7087C64.0621 56.1682 65.5126 54.3642 65.5126 52.2268C65.5126 51.19 65.1711 50.2314 64.5951 49.4576V32.1299C64.5951 31.3749 63.9828 30.7627 63.2279 30.7627C62.4729 30.7627 61.8607 31.3749 61.8607 32.1299V47.6874C61.5394 47.617 61.2062 47.5787 60.8642 47.5787H60.8193C61.0844 46.9945 61.2333 46.3468 61.2333 45.6646C61.2333 43.1014 59.1481 41.0163 56.585 41.0163H54.3872C56.7209 40.0155 58.3599 37.696 58.3599 35C58.3599 31.3921 55.4248 28.4569 51.8169 28.4569C48.2092 28.4569 45.274 31.3921 45.274 35C45.274 37.696 46.9131 40.0155 49.2466 41.0163H41.7732V15.0203C44.2155 14.4881 46.1427 12.561 46.6748 10.1186H56.9589C57.491 12.561 59.4182 14.4881 61.8606 15.0203V19.2709C61.8606 20.0259 62.4728 20.6381 63.2277 20.6381C63.9827 20.6381 64.5949 20.0259 64.5949 19.2709V13.7997C64.5949 13.0447 63.9827 12.4325 63.2277 12.4325C61.1979 12.4325 59.5467 10.7811 59.5467 8.75137C59.5467 7.99641 58.9345 7.38418 58.1795 7.38418H45.4543C44.6993 7.38418 44.0871 7.99641 44.0871 8.75137C44.0871 10.7812 42.4358 12.4325 40.4061 12.4325C39.6511 12.4325 39.0389 13.0447 39.0389 13.7997V41.0162H36.3685V2.73588L67.2661 2.73438V67.2656ZM51.8172 38.8087C49.7171 38.8087 48.0086 37.1001 48.0086 35.0001C48.0086 32.9001 49.7172 31.1914 51.8172 31.1914C53.9172 31.1914 55.6258 32.9 55.6258 35C55.6258 37.1 53.9173 38.8087 51.8172 38.8087Z" fill="#3E3E3E"/>
<path d="M9.29871 57.9961V42.2468H12.0331V57.9961C12.0331 58.7511 11.4209 59.3633 10.6659 59.3633C9.91093 59.3633 9.29871 58.7511 9.29871 57.9961Z" fill="#FF4444"/>
</g>
<defs>
<clipPath id="clip0">
<rect width="70" height="70" fill="white"/>
</clipPath>
</defs>
</svg>
