<svg width="70" height="70" viewBox="0 0 70 70" fill="none" xmlns="http://www.w3.org/2000/svg">
<g clip-path="">
<path d="M69.7776 39.6171C69.4247 39.1722 68.7787 39.0979 68.3338 39.4503L66.3185 41.0486L50.0294 19.6617L59.3414 13.6851C59.819 13.3786 59.9576 12.7431 59.6511 12.2656C59.3447 11.788 58.7093 11.6494 58.2317 11.9559L47.9828 18.5341C47.4857 18.8532 47.3618 19.5506 47.7203 20.0212L49.5855 22.4702L48.2592 23.4855L42.9935 21.7457C42.8906 21.7121 42.7797 21.6939 42.6711 21.6939H30.6164C30.145 21.6939 29.734 22.0148 29.6197 22.4721L28.9413 25.1854L27.2291 24.4645C27.0656 24.3956 26.8867 24.3704 26.7111 24.391L21.9481 24.9488L20.3297 24.0092L21.869 21.3432C22.1488 20.8584 21.9773 20.2194 21.4931 19.9398L1.54123 8.42035C1.04946 8.13653 0.421239 8.30496 0.137822 8.79633C-0.145868 9.28769 0.0224317 9.91605 0.513797 10.1997L16.1501 19.2274L2.65521 42.6014L1.54123 41.9583C1.04946 41.6743 0.421239 41.8429 0.137822 42.3343C-0.145868 42.8256 0.0224317 43.454 0.513797 43.7377L5.94301 46.8724C6.42823 47.1524 7.06697 46.9806 7.34643 46.4964L8.13201 45.1358L10.3483 46.3178C9.62538 47.7193 9.69661 49.4688 10.6825 50.8313C11.5254 51.996 12.8458 52.6152 14.1842 52.6152C14.6309 52.6152 15.0795 52.5453 15.5132 52.4045C15.5159 53.3219 15.8075 54.2037 16.362 54.9402C17.2041 56.0587 18.5054 56.6514 19.8205 56.6514C20.2599 56.6514 20.7009 56.5851 21.1268 56.4502C21.1383 57.3077 21.4031 58.1698 21.9429 58.9157C22.6185 59.8495 23.6174 60.4643 24.7553 60.6469C24.9866 60.684 25.2181 60.7024 25.4479 60.7024C25.894 60.7024 26.3338 60.6328 26.7547 60.4977C26.7668 61.3775 27.0467 62.2307 27.5732 62.9582C28.2489 63.8919 29.2477 64.5068 30.3856 64.6893C30.617 64.7264 30.8484 64.7448 31.0782 64.7447C31.9791 64.7447 32.8546 64.4629 33.5985 63.9245L35.9954 62.1901C36.514 61.815 36.9325 61.341 37.2345 60.7997L41.4513 63.0981C42.0939 63.4483 42.7985 63.6264 43.5106 63.6264C43.9198 63.6264 44.3317 63.5674 44.7352 63.4486C45.8408 63.123 46.7535 62.3865 47.305 61.3743C47.735 60.5855 47.9044 59.7028 47.8043 58.8284C48.0623 58.8758 48.322 58.8993 48.5805 58.8993C50.1101 58.8992 51.5944 58.085 52.3766 56.65C52.8167 55.8424 52.97 54.9549 52.8732 54.1038C53.1318 54.1515 53.3923 54.175 53.6516 54.175C55.1814 54.1749 56.6657 53.3607 57.4478 51.9257C57.8775 51.1374 58.0469 50.2553 57.9472 49.3814C58.2035 49.429 58.4633 49.4535 58.7244 49.4535C59.1338 49.4535 59.5456 49.3945 59.949 49.2757C61.0547 48.9501 61.9674 48.2136 62.5191 47.2014C63.0707 46.1894 63.1954 45.0232 62.8697 43.9175C62.7915 43.6517 62.6889 43.3975 62.5651 43.1564L64.3672 41.8772L65.3192 43.1271C65.6626 43.578 66.3301 43.6622 66.775 43.3096L69.611 41.0605C70.0555 40.7079 70.1302 40.0617 69.7776 39.6171ZM6.08083 44.5793L4.43474 43.6289L17.9296 20.2548L19.5757 21.2053L6.08083 44.5793ZM15.5032 50.1328C14.4938 50.8636 13.0778 50.6366 12.3472 49.6268C11.6167 48.6172 11.8438 47.2012 12.8534 46.4705L20.1212 41.2119C20.525 40.9199 20.9894 40.7786 21.449 40.7786C22.1257 40.7786 22.792 41.0847 23.2388 41.6664C24.0047 42.6639 23.789 44.1372 22.7717 44.8739L15.5032 50.1328ZM21.1334 54.1753C20.1427 54.8921 18.7385 54.6809 18.0035 53.7044C17.242 52.6931 17.5352 51.1989 18.5432 50.4695L23.9756 46.539C24.1733 46.4072 24.3561 46.2685 24.5776 46.1745C24.8927 46.0407 25.2378 45.98 25.5797 45.999C26.234 46.0354 26.8467 46.3644 27.2453 46.8834C28.0112 47.8808 27.7956 49.3542 26.7782 50.091L21.1334 54.1753ZM26.7636 58.2175C26.2745 58.5716 25.6769 58.7139 25.0807 58.6181C24.4846 58.5225 23.9614 58.2004 23.6074 57.7112C22.8772 56.702 23.1037 55.2871 24.1122 54.5562C24.1122 54.5562 27.9829 51.7554 27.9834 51.7551L28.1343 51.6459C29.1322 50.924 30.5016 51.1236 31.2519 52.1003C32.0179 53.0981 31.8019 54.5718 30.784 55.3083L26.7636 58.2175ZM35.7023 59.0203C35.6136 59.6299 35.2897 60.1644 34.7907 60.5254L32.3937 62.2599C31.3952 62.9825 29.9592 62.7512 29.2376 61.7537C28.5127 60.752 28.749 59.323 29.7437 58.5976L31.9887 56.9734L32.1408 56.8632C33.1244 56.1517 34.5196 56.3557 35.2583 57.3176C35.6336 57.8061 35.7912 58.4108 35.7023 59.0203ZM60.7148 46.2179C60.1257 47.2988 58.7311 47.711 57.6483 47.1208L45.7701 40.6463C45.2716 40.375 44.6478 40.5586 44.3763 41.0568C44.1048 41.555 44.2884 42.179 44.7866 42.4506L54.7405 47.876C55.8349 48.4725 56.2397 49.848 55.6435 50.9423C55.047 52.0365 53.6715 52.4418 52.577 51.8452L42.4774 46.3402C41.9792 46.0687 41.3552 46.2525 41.0837 46.7507C40.8122 47.2489 40.9958 47.8729 41.4941 48.1445L49.6708 52.6014C50.7639 53.1984 51.1682 54.573 50.5722 55.6668C49.9832 56.7475 48.5887 57.16 47.5058 56.5696L38.9453 51.9036C38.4467 51.6322 37.823 51.8158 37.5514 52.314C37.2799 52.8122 37.4635 53.4362 37.9617 53.7079L44.5978 57.3249C45.6788 57.914 46.0909 59.3085 45.5006 60.3913C44.9117 61.4724 43.5171 61.8842 42.4345 61.2941L37.7798 58.757C37.7962 57.7877 37.489 56.8488 36.8879 56.0662C36.0808 55.0152 34.8983 54.4355 33.6788 54.3763C33.698 54.2851 33.7157 54.1931 33.7292 54.1C33.8987 52.9364 33.5978 51.7819 32.8816 50.8492C32.0742 49.7983 30.8918 49.2186 29.6722 49.1594C29.6915 49.0682 29.7091 48.9762 29.7227 48.8829C29.8922 47.7192 29.5913 46.5649 28.875 45.6322C28.0677 44.5811 26.8852 44.0015 25.6657 43.9423C25.685 43.8512 25.7026 43.7591 25.7162 43.666C25.8857 42.5023 25.5848 41.3478 24.8685 40.4153C23.4362 38.5502 20.8215 38.1693 18.9168 39.5478L11.7468 44.7349L9.15986 43.3551L19.3022 25.7884L21.2118 26.8971C21.4039 27.0087 21.6272 27.0546 21.8472 27.0291L26.681 26.4629L28.4368 27.2023L27.4277 31.239C27.4075 31.3205 27.3971 31.4042 27.3971 31.4883V40.2553C27.3971 43.2389 29.8245 45.6662 32.808 45.6662C35.7916 45.6662 38.2189 43.2388 38.2189 40.2553V31.7829L38.4057 31.4842L59.8116 43.1516C60.8925 43.7407 61.305 45.1348 60.7148 46.2179ZM61.2049 41.6017C61.0738 41.5104 60.9376 41.4248 60.7953 41.3473L39.4969 29.7383L40.2872 28.474C40.5878 27.9928 40.4415 27.359 39.9603 27.0583C39.4796 26.7578 38.8452 26.9038 38.5446 27.3851L36.3204 30.9437C36.2186 31.107 36.1643 31.2956 36.1643 31.4883V40.2553C36.1643 42.1058 34.6589 43.6115 32.8081 43.6115C30.9574 43.6115 29.452 42.1059 29.452 40.2553V31.6147L31.4184 23.7487H42.5057L48.1301 25.6068C48.4498 25.7125 48.8096 25.6516 49.0768 25.4471L50.8303 24.1048L63.121 40.2418L61.2049 41.6017Z" fill="#3E3E3E"/>
<path d="M2.65521 42.6015L16.1501 19.2274L17.9296 20.2549L4.43474 43.6289L2.65521 42.6015Z" fill="#FF4444"/>
<path d="M69.8371 5.72808C69.5307 5.25053 68.8952 5.1119 68.4176 5.41842L62.6615 9.11282C62.184 9.41934 62.0453 10.0548 62.3519 10.5324C62.5481 10.8382 62.879 11.005 63.2173 11.005C63.4073 11.005 63.5994 10.9524 63.7713 10.8422L69.5274 7.14777C70.0048 6.84097 70.1434 6.2055 69.8371 5.72808Z" fill="#FF4444"/>
</g>
<defs>
<clipPath id="clip0">
<rect width="70" height="70" fill="white"/>
</clipPath>
</defs>
</svg>
