<svg width="60" height="60" viewBox="0 0 60 60" fill="none" xmlns="http://www.w3.org/2000/svg">
<path d="M57.1875 34.6875C57.4361 34.6875 57.6746 34.5887 57.8504 34.4129C58.0262 34.2371 58.125 33.9986 58.125 33.75V26.25C58.125 26.0014 58.0262 25.7629 57.8504 25.5871C57.6746 25.4113 57.4361 25.3125 57.1875 25.3125H52.0003C51.4305 22.6239 50.3699 20.0633 48.8719 17.7591L52.5356 14.0869C52.7111 13.9111 52.8096 13.6729 52.8096 13.4245C52.8096 13.1762 52.7111 12.938 52.5356 12.7622L47.2388 7.46531C47.063 7.28984 46.8248 7.19129 46.5764 7.19129C46.328 7.19129 46.0898 7.28984 45.9141 7.46531L42.2409 11.1281C39.9367 9.63006 37.3761 8.56953 34.6875 7.99969V2.8125C34.6875 2.56386 34.5887 2.3254 34.4129 2.14959C34.2371 1.97377 33.9986 1.875 33.75 1.875H26.25C26.0014 1.875 25.7629 1.97377 25.5871 2.14959C25.4113 2.3254 25.3125 2.56386 25.3125 2.8125V7.99969C22.6239 8.56953 20.0633 9.63006 17.7591 11.1281L14.0869 7.46438C13.9111 7.28891 13.6729 7.19036 13.4245 7.19036C13.1762 7.19036 12.938 7.28891 12.7622 7.46438L7.46531 12.7613C7.28984 12.937 7.19129 13.1752 7.19129 13.4236C7.19129 13.672 7.28984 13.9102 7.46531 14.0859L11.1291 17.7581C9.63056 20.0625 8.56971 22.6235 7.99969 25.3125H2.8125C2.56386 25.3125 2.3254 25.4113 2.14959 25.5871C1.97377 25.7629 1.875 26.0014 1.875 26.25V33.75C1.875 33.9986 1.97377 34.2371 2.14959 34.4129C2.3254 34.5887 2.56386 34.6875 2.8125 34.6875H7.99969C8.56953 37.3761 9.63006 39.9367 11.1281 42.2409L7.46438 45.9131C7.28891 46.0889 7.19036 46.3271 7.19036 46.5755C7.19036 46.8238 7.28891 47.062 7.46438 47.2378L12.7613 52.5347C12.937 52.7102 13.1752 52.8087 13.4236 52.8087C13.672 52.8087 13.9102 52.7102 14.0859 52.5347L17.7581 48.8709C20.0625 50.3694 22.6235 51.4303 25.3125 52.0003V57.1875C25.3125 57.4361 25.4113 57.6746 25.5871 57.8504C25.7629 58.0262 26.0014 58.125 26.25 58.125H33.75C33.9986 58.125 34.2371 58.0262 34.4129 57.8504C34.5887 57.6746 34.6875 57.4361 34.6875 57.1875V52.0003C37.3753 51.4282 39.9349 50.3661 42.2381 48.8672L49.8872 56.5163C50.7676 57.389 51.9578 57.8774 53.1975 57.8747C54.4371 57.872 55.6252 57.3783 56.5018 56.5018C57.3783 55.6252 57.872 54.4371 57.8747 53.1975C57.8774 51.9578 57.389 50.7676 56.5163 49.8872L48.8672 42.2381C50.3661 39.9349 51.4282 37.3753 52.0003 34.6875H57.1875ZM55.1906 55.1906C54.9295 55.4518 54.6194 55.659 54.2781 55.8004C53.9369 55.9418 53.5711 56.0146 53.2017 56.0146C52.8323 56.0146 52.4666 55.9418 52.1253 55.8004C51.7841 55.659 51.474 55.4518 51.2128 55.1906L33.2616 37.2403C32.8256 36.8049 32.3077 36.4601 31.7377 36.2258C31.1678 35.9915 30.5571 35.8724 29.9409 35.8753C29.7454 35.8752 29.5501 35.8868 29.3559 35.91C28.1396 36.0561 26.9061 35.9017 25.7633 35.4605C24.6204 35.0192 23.6032 34.3045 22.8007 33.379C21.9982 32.4534 21.4348 31.3452 21.16 30.1514C20.8851 28.9576 20.9071 27.7146 21.2241 26.5312L25.3594 30.6675C25.5351 30.8433 25.7736 30.9421 26.0222 30.9422H30C30.2486 30.9422 30.4871 30.8434 30.6629 30.6676C30.8387 30.4918 30.9375 30.2533 30.9375 30.0047V26.0222C30.9374 25.7736 30.8386 25.5351 30.6628 25.3594L26.5312 21.2241C27.7143 20.9079 28.9569 20.8864 30.1502 21.1616C31.3435 21.4368 32.4511 22.0003 33.3762 22.8027C34.3013 23.6052 35.0156 24.6221 35.4567 25.7645C35.8978 26.9069 36.0521 28.14 35.9062 29.3559C35.8158 30.0653 35.8886 30.7859 36.1192 31.4628C36.3497 32.1397 36.7319 32.7549 37.2366 33.2616L55.1906 51.2128C55.4518 51.474 55.659 51.7841 55.8004 52.1253C55.9418 52.4666 56.0146 52.8323 56.0146 53.2017C56.0146 53.5711 55.9418 53.9369 55.8004 54.2781C55.659 54.6194 55.4518 54.9295 55.1906 55.1906ZM38.5659 31.9406C38.2627 31.6341 38.0335 31.2623 37.896 30.8537C37.7586 30.445 37.7164 30.0103 37.7728 29.5828C37.9737 27.9164 37.7232 26.2266 37.0476 24.6902C36.3719 23.1537 35.2958 21.827 33.9319 20.8488C32.568 19.8705 30.9663 19.2766 29.2944 19.1292C27.6224 18.9819 25.9415 19.2864 24.4275 20.0109C24.2924 20.0758 24.1748 20.1721 24.0846 20.2918C23.9944 20.4114 23.9342 20.551 23.909 20.6987C23.8838 20.8465 23.8945 20.9981 23.94 21.1409C23.9855 21.2837 24.0646 21.4135 24.1706 21.5194L29.0625 26.4103V29.0625H26.4103L21.5194 24.1706C21.4135 24.0646 21.2837 23.9855 21.1409 23.94C20.9981 23.8945 20.8465 23.8838 20.6987 23.909C20.551 23.9342 20.4114 23.9944 20.2918 24.0846C20.1721 24.1748 20.0758 24.2924 20.0109 24.4275C19.2866 25.9411 18.9821 27.6214 19.1293 29.2929C19.2765 30.9644 19.8699 32.5657 20.8476 33.9294C21.8253 35.2931 23.1514 36.3692 24.6872 37.0451C26.223 37.721 27.9121 37.972 29.5781 37.7719C30.0057 37.7157 30.4404 37.758 30.8491 37.8956C31.2577 38.0333 31.6295 38.2626 31.9359 38.5659L36.7584 43.3875C33.5726 44.9969 29.9174 45.4183 26.4489 44.5761C22.9804 43.7339 19.9255 41.6831 17.8325 38.7919C15.7395 35.9006 14.7454 32.3581 15.0285 28.8C15.3116 25.242 16.8535 21.9012 19.3773 19.3773C21.9012 16.8535 25.242 15.3116 28.8 15.0285C32.3581 14.7454 35.9006 15.7395 38.7919 17.8325C41.6831 19.9255 43.7339 22.9804 44.5761 26.4489C45.4183 29.9174 44.9969 33.5726 43.3875 36.7584L38.5659 31.9406ZM50.3016 33.5962C49.8495 36.1838 48.9028 38.6599 47.5134 40.8891L44.7722 38.1478C46.739 34.5838 47.3528 30.4295 46.5008 26.449C45.6489 22.4685 43.3884 18.9294 40.1351 16.4827C36.8818 14.036 32.8545 12.8462 28.7939 13.132C24.7332 13.4179 20.9124 15.1603 18.034 18.0387C15.1556 20.9171 13.4132 24.7379 13.1274 28.7985C12.8415 32.8592 14.0313 36.8865 16.478 40.1398C18.9248 43.393 22.4638 45.6535 26.4443 46.5055C30.4248 47.3575 34.5791 46.7436 38.1431 44.7769L40.8844 47.5181C38.6552 48.9075 36.1791 49.8542 33.5916 50.3063C33.3745 50.3435 33.1774 50.4559 33.0349 50.6239C32.8925 50.7919 32.8137 51.0047 32.8125 51.225V56.25H27.1875V51.225C27.1874 51.0039 27.1091 50.79 26.9666 50.6211C26.824 50.4521 26.6263 50.3389 26.4084 50.3016C23.4511 49.7839 20.6441 48.6207 18.1875 46.8947C18.007 46.7678 17.7874 46.7087 17.5676 46.7277C17.3478 46.7468 17.1417 46.8427 16.9856 46.9987L13.4306 50.5472L9.4575 46.5741L13.0059 43.0191C13.162 42.863 13.2579 42.6569 13.277 42.4371C13.296 42.2172 13.2369 41.9977 13.11 41.8172C11.3834 39.3592 10.2201 36.5506 9.70313 33.5916C9.66563 33.3729 9.55179 33.1746 9.38185 33.0319C9.2119 32.8893 8.99687 32.8115 8.775 32.8125H3.75V27.1875H8.775C8.99607 27.1874 9.20998 27.1091 9.37895 26.9666C9.54792 26.824 9.66108 26.6263 9.69844 26.4084C10.2161 23.4511 11.3793 20.6441 13.1053 18.1875C13.2322 18.007 13.2913 17.7874 13.2723 17.5676C13.2532 17.3478 13.1573 17.1417 13.0013 16.9856L9.45281 13.4306L13.4259 9.4575L16.9809 13.0059C17.137 13.162 17.3431 13.2579 17.5629 13.277C17.7828 13.296 18.0023 13.2369 18.1828 13.11C20.6408 11.3834 23.4494 10.2201 26.4084 9.70313C26.6271 9.66563 26.8254 9.55179 26.9681 9.38185C27.1107 9.2119 27.1885 8.99687 27.1875 8.775V3.75H32.8125V8.775C32.8126 8.99607 32.8909 9.20998 33.0334 9.37895C33.176 9.54792 33.3737 9.66108 33.5916 9.69844C36.5506 10.2155 39.3592 11.3787 41.8172 13.1053C41.9977 13.2322 42.2172 13.2913 42.4371 13.2723C42.6569 13.2532 42.863 13.1573 43.0191 13.0013L46.5741 9.45281L50.5472 13.4259L46.9987 16.9809C46.8427 17.137 46.7468 17.3431 46.7277 17.5629C46.7087 17.7828 46.7678 18.0023 46.8947 18.1828C48.6213 20.6408 49.7845 23.4494 50.3016 26.4084C50.3389 26.6263 50.4521 26.824 50.6211 26.9666C50.79 27.1091 51.0039 27.1874 51.225 27.1875H56.25V32.8125H51.225C51.0039 32.8126 50.79 32.8909 50.6211 33.0334C50.4521 33.176 50.3389 33.3737 50.3016 33.5916V33.5962Z" fill="#3E3E3E"/>
<path d="M35.9663 34.6406C35.8798 34.551 35.7763 34.4796 35.662 34.4305C35.5476 34.3814 35.4246 34.3555 35.3001 34.3544C35.1756 34.3533 35.0521 34.377 34.9369 34.4242C34.8217 34.4713 34.717 34.5409 34.629 34.629C34.541 34.717 34.4714 34.8217 34.4242 34.9369C34.3771 35.0521 34.3534 35.1755 34.3545 35.3C34.3555 35.4245 34.3814 35.5475 34.4305 35.6619C34.4797 35.7763 34.5511 35.8797 34.6406 35.9662L35.3035 36.629C35.4803 36.7998 35.7171 36.8943 35.9629 36.8921C36.2087 36.89 36.4438 36.7914 36.6177 36.6176C36.7915 36.4438 36.8901 36.2086 36.8922 35.9628C36.8943 35.717 36.7999 35.4802 36.6291 35.3034L35.9663 34.6406Z" fill="#3E3E3E"/>
<path d="M49.2244 50.55C49.4012 50.7208 49.638 50.8153 49.8838 50.8131C50.1296 50.811 50.3647 50.7124 50.5386 50.5386C50.7124 50.3647 50.811 50.1296 50.8131 49.8838C50.8152 49.638 50.7208 49.4012 50.55 49.2244L39.2812 37.9547C39.1053 37.7788 38.8667 37.6799 38.618 37.6799C38.3692 37.6799 38.1306 37.7788 37.9547 37.9547C37.7788 38.1306 37.6799 38.3692 37.6799 38.618C37.6799 38.8667 37.7788 39.1053 37.9547 39.2812L49.2244 50.55Z" fill="#FF4444"/>
<path d="M52.5393 53.8649C52.7161 54.0357 52.9529 54.1302 53.1988 54.1281C53.4446 54.1259 53.6797 54.0273 53.8535 53.8535C54.0273 53.6797 54.1259 53.4446 54.1281 53.1988C54.1302 52.9529 54.0357 52.7161 53.8649 52.5393L53.2021 51.8756C53.0262 51.6997 52.7876 51.6008 52.5389 51.6008C52.2901 51.6008 52.0515 51.6997 51.8756 51.8756C51.6997 52.0515 51.6008 52.2901 51.6008 52.5389C51.6008 52.7876 51.6997 53.0262 51.8756 53.2021L52.5393 53.8649Z" fill="#3E3E3E"/>
</svg>
