<svg width="70" height="70" viewBox="0 0 70 70" fill="none" xmlns="http://www.w3.org/2000/svg">
<g clip-path="">
<path d="M35 0.019165C30.6228 0.019165 26.2454 1.68556 22.9123 5.01834C16.2465 11.6839 16.2465 22.5279 22.9123 29.1934C23.3833 29.6649 24.1474 29.6651 24.6185 29.1942C25.0897 28.7232 25.0902 27.9591 24.6193 27.488C24.619 27.4877 24.6188 27.4875 24.6185 27.4872C18.8748 21.7435 18.8748 12.4678 24.6185 6.72405C30.3622 0.98035 39.6375 0.98035 45.3812 6.72405C51.1249 12.4678 51.1249 21.7435 45.3812 27.4872C44.91 27.9584 44.91 28.7223 45.3812 29.1934C45.8524 29.6646 46.6162 29.6646 47.0874 29.1934C53.7532 22.5279 53.7532 11.6839 47.0874 5.01834C43.7549 1.68556 39.3774 0.019165 35 0.019165ZM35 4.25595C31.707 4.25595 28.4138 5.50882 25.9083 8.01432C20.8973 13.0253 20.8973 21.1865 25.9083 26.1975C26.374 26.6739 27.1378 26.6829 27.6143 26.2172C28.0908 25.7516 28.0997 24.9878 27.6341 24.5113C27.6275 24.5045 27.6208 24.4978 27.614 24.4913C23.5249 20.4021 23.5249 13.8092 27.614 9.72004C31.7032 5.6309 38.2966 5.6309 42.3857 9.72004C46.4749 13.8092 46.4749 20.4021 42.3857 24.4913C41.909 24.9569 41.9001 25.7205 42.3655 26.1972C42.8311 26.6739 43.5947 26.6829 44.0714 26.2175C44.0782 26.211 44.0849 26.2042 44.0914 26.1975C49.1024 21.1865 49.1024 13.0253 44.0914 8.01432C41.5862 5.50882 38.293 4.25595 35 4.25595ZM35 9.5444C30.8382 9.5444 27.4384 12.9442 27.4384 17.106C27.4384 20.8574 30.2008 23.9882 33.7937 24.5697V34.9651H20.1714C17.1768 34.9651 14.7283 37.4134 14.7283 40.4082C14.7283 43.403 17.1766 45.8516 20.1714 45.8516H33.7937C33.7937 45.854 33.7937 45.8566 33.7937 45.859V57.9221C33.793 57.9626 33.7944 58.0029 33.798 58.0432C31.44 58.5252 29.5711 60.3948 29.0896 62.7529C29.0493 62.749 29.009 62.7471 28.9685 62.7473H1.22344C0.557314 62.7379 0.00940992 63.2704 7.35454e-07 63.9365C-0.00940845 64.6026 0.523055 65.1505 1.18918 65.1599C1.20052 65.1602 1.21186 65.1602 1.22319 65.1599H28.9682C29.0088 65.1606 29.0491 65.1592 29.0893 65.1556C29.6508 67.9019 32.0943 69.9851 34.9998 69.9851C37.9058 69.9851 40.3495 67.9011 40.9102 65.1544C40.9505 65.1582 40.9908 65.1602 41.0313 65.1599H68.7763C69.4425 65.1693 69.9904 64.6369 69.9998 63.9707C70.0092 63.3046 69.4767 62.7567 68.8106 62.7473C68.7993 62.7471 68.7879 62.7471 68.7766 62.7473H41.0315C40.991 62.7466 40.9507 62.748 40.9104 62.7516C40.4284 60.3936 38.5588 58.5248 36.2008 58.0432C36.2046 58.0029 36.2066 57.9626 36.2063 57.9221V45.859C36.2061 45.8566 36.2061 45.854 36.2058 45.8516H49.8286C52.8232 45.8516 55.2717 43.4028 55.2717 40.4082C55.2717 37.4137 52.8234 34.9651 49.8286 34.9651H36.2063V24.5697C39.7989 23.9882 42.5616 20.8574 42.5616 17.106C42.5616 12.944 39.1618 9.5444 35 9.5444ZM35 11.957C37.858 11.957 40.149 14.248 40.149 17.106C40.149 19.964 37.858 22.255 35 22.255C32.142 22.255 29.851 19.964 29.851 17.106C29.851 14.248 32.142 11.957 35 11.957ZM35 13.325C32.9191 13.325 31.2194 15.0251 31.2194 17.106C31.2146 17.4392 31.481 17.713 31.8141 17.7176C32.1473 17.7224 32.4212 17.4561 32.4257 17.1229C32.4257 17.1171 32.4257 17.1116 32.4257 17.1058C32.4257 15.6768 33.571 14.531 35 14.531C35.3332 14.5359 35.607 14.2695 35.6116 13.9363C35.6162 13.6031 35.3501 13.3293 35.0169 13.3247C35.0113 13.3247 35.0058 13.3247 35 13.325ZM20.1714 37.3775H49.8286C51.5283 37.3775 52.8591 38.708 52.8591 40.408C52.8591 42.1079 51.5286 43.4387 49.8286 43.4387H20.1714C18.4717 43.4387 17.1409 42.1077 17.1409 40.408C17.1409 38.7083 18.4717 37.3775 20.1714 37.3775ZM20.1714 39.2014C19.5052 39.192 18.9573 39.7245 18.9479 40.3906C18.9385 41.0567 19.471 41.6046 20.1371 41.614C20.1484 41.6143 20.1598 41.6143 20.1711 41.614H41.3551C42.0212 41.6235 42.5691 41.091 42.5785 40.4249C42.5879 39.7587 42.0554 39.2108 41.3893 39.2014C41.378 39.2012 41.3666 39.2012 41.3553 39.2014H20.1714ZM45.5921 39.3491C45.007 39.3491 44.533 39.8232 44.5327 40.4082V40.4085C44.5327 40.9935 45.0068 41.4676 45.5919 41.4678H45.5921C46.1772 41.4678 46.6512 40.9938 46.6515 40.4087V40.4085C46.6512 39.8234 46.1772 39.3491 45.5921 39.3491ZM49.8286 39.3491C49.2436 39.3491 48.7695 39.8232 48.7693 40.4082V40.4085C48.7693 40.9935 49.2433 41.4676 49.8284 41.4678H49.8286C50.4137 41.4678 50.8878 40.9938 50.888 40.4087V40.4085C50.888 39.8234 50.4139 39.3491 49.8286 39.3491C49.8289 39.3491 49.8286 39.3491 49.8286 39.3491ZM35 60.3345C37.0128 60.3345 38.6189 61.9405 38.6189 63.9534C38.6189 65.9662 37.0128 67.5723 35 67.5723C32.9872 67.5723 31.3811 65.9662 31.3811 63.9534C31.3811 61.9405 32.9872 60.3345 35 60.3345ZM35 60.9376C33.3416 60.9376 31.9842 62.2949 31.9842 63.9534C31.9794 64.2866 32.2458 64.5604 32.5789 64.565C32.9121 64.5698 33.186 64.3034 33.1905 63.9703C33.1905 63.9645 33.1905 63.9589 33.1905 63.9531C33.1905 62.9466 33.9935 62.1437 35 62.1437C35.3332 62.1485 35.607 61.8822 35.6116 61.549C35.6164 61.2158 35.3501 60.942 35.0169 60.9374C35.0113 60.9376 35.0058 60.9376 35 60.9376Z" fill="#3E3E3E"/>
</g>
<path d="M35 4.25598C31.707 4.25598 28.4138 5.50885 25.9083 8.01435C20.8973 13.0253 20.8973 21.1865 25.9083 26.1975C26.3739 26.674 27.1377 26.6829 27.6142 26.2173C28.0907 25.7516 28.0996 24.9878 27.634 24.5113C27.6275 24.5045 27.6207 24.4978 27.614 24.4913C23.5249 20.4021 23.5249 13.8092 27.614 9.72006C31.7031 5.63093 38.2966 5.63093 42.3857 9.72006C46.4748 13.8092 46.4748 20.4021 42.3857 24.4913C41.909 24.9569 41.9 25.7205 42.3654 26.1972C42.8311 26.674 43.5947 26.6829 44.0714 26.2175C44.0781 26.211 44.0849 26.2042 44.0914 26.1975C49.1024 21.1865 49.1024 13.0253 44.0914 8.01435C41.5861 5.50885 38.2929 4.25598 35 4.25598Z" fill="#FF4444"/>
<defs>
<clipPath id="clip0">
<rect width="70" height="70" fill="white"/>
</clipPath>
</defs>
</svg>
