<svg width="70" height="70" viewBox="0 0 70 70" fill="none" xmlns="http://www.w3.org/2000/svg">
<g clip-path="">
<path d="M69.2998 7.15007L52.9665 0.0952364C52.6719 -0.0330475 52.3372 -0.0330475 52.0425 0.0952364L35.7092 7.15007C35.2834 7.33588 35.0085 7.75655 35.0092 8.22107V16.3329H20.9998C19.7112 16.3329 18.6665 17.3776 18.6665 18.6662V30.3329H10.2443C8.53657 30.3326 6.96502 31.2651 6.147 32.7642L0.569169 42.9912C0.196308 43.6769 0.000608218 44.4449 -0.000163973 45.2254V52.4996C0.00287363 53.3633 0.327259 54.1951 0.909836 54.8329C-0.0223646 55.8548 -0.261906 57.3313 0.299408 58.5956C0.860722 59.8598 2.11662 60.6723 3.49984 60.6662H7.4035C6.37295 63.5679 7.35962 66.8023 9.83435 68.6347C12.3091 70.467 15.6906 70.467 18.1653 68.6347C20.64 66.8023 21.6267 63.5679 20.5962 60.6662H42.4035C41.373 63.5679 42.3596 66.8023 44.8344 68.6347C47.3091 70.467 50.6906 70.467 53.1653 68.6347C55.6401 66.8023 56.6267 63.5679 55.5962 60.6662H59.4998C61.4328 60.6662 62.9998 59.0992 62.9998 57.1662C62.9978 56.6457 62.8782 56.1325 62.6498 55.6647C62.8742 55.4462 63.0004 55.1461 62.9998 54.8329V36.1662L64.996 34.7441C68.1244 32.5238 69.988 28.9295 69.9998 25.0934V8.22107C70.0005 7.75655 69.7256 7.33588 69.2998 7.15007ZM18.6665 53.6662H3.49984C2.8555 53.6662 2.33317 53.1439 2.33317 52.4996V51.3329H4.6665C5.95517 51.3329 6.99984 50.2882 6.99984 48.9996V46.6662H10.4998C12.4328 46.6662 13.9998 45.0992 13.9998 43.1662V32.6662H18.6665V53.6662ZM4.6665 46.6662V48.9996H2.33317V46.6662H4.6665ZM8.19567 33.8819C8.60468 33.1323 9.39045 32.6661 10.2443 32.6662H11.6665V43.1662C11.6665 43.8106 11.1442 44.3329 10.4998 44.3329H2.53034C2.55514 44.2566 2.58436 44.1818 2.61784 44.1089L8.19567 33.8819ZM18.6665 62.9995C18.6665 65.5769 16.5772 67.6662 13.9998 67.6662C11.4225 67.6662 9.33317 65.5769 9.33317 62.9995C9.33286 62.1791 9.55199 61.3735 9.96784 60.6662H18.0318C18.4477 61.3735 18.6668 62.1791 18.6665 62.9995ZM53.6665 62.9995C53.6665 65.5769 51.5772 67.6662 48.9998 67.6662C46.4225 67.6662 44.3332 65.5769 44.3332 62.9995C44.3329 62.1791 44.552 61.3735 44.9678 60.6662H53.0318C53.4477 61.3735 53.6668 62.1791 53.6665 62.9995ZM59.4998 58.3329H3.49984C2.8555 58.3329 2.33317 57.8106 2.33317 57.1662C2.33317 56.5219 2.8555 55.9995 3.49984 55.9995H59.4998C60.1442 55.9995 60.6665 56.5219 60.6665 57.1662C60.6665 57.8106 60.1442 58.3329 59.4998 58.3329ZM60.6665 49.4452L58.3332 48.2786V45.0539L60.6665 43.8872V49.4452ZM60.6665 41.2786L56.645 43.2829C56.2476 43.4815 55.9974 43.8886 55.9998 44.3329V48.9996C55.9974 49.4439 56.2476 49.851 56.645 50.0496L60.6665 52.0539V53.6662H20.9998V18.6662H34.9998V25.0934C35.0117 28.9295 36.8753 32.5238 40.0037 34.7441L51.2923 42.7812C52.0155 43.2946 52.9842 43.2946 53.7073 42.7812L60.6665 37.8264V41.2786ZM67.6665 25.0934C67.6552 28.1749 66.1566 31.0613 63.6427 32.8436L52.4998 40.7757L41.357 32.8424C38.8435 31.0604 37.3449 28.1745 37.3332 25.0934V8.98873L52.4998 2.43674L67.6665 8.98873V25.0934Z" fill="#3E3E3E"/>
<path d="M52.0334 5.17882L40.3667 10.2188C39.941 10.4046 39.6661 10.8253 39.6667 11.2898V25.0938C39.6777 27.4201 40.8108 29.5981 42.7094 30.9423L51.8234 37.4302C52.2284 37.7185 52.7717 37.7185 53.1767 37.4302L62.2907 30.9435C64.1892 29.5986 65.3222 27.4204 65.3334 25.0938V11.2898C65.3341 10.8253 65.0591 10.4046 64.6334 10.2188L52.9667 5.17882C52.6692 5.04895 52.331 5.04895 52.0334 5.17882ZM63.0001 12.0622V25.0938C62.9897 26.6661 62.2211 28.1368 60.9362 29.043L52.5001 35.049L44.0639 29.043C42.7789 28.1369 42.0103 26.6662 42.0001 25.0938V12.0563L52.5001 7.52032L63.0001 12.0622Z" fill="#3E3E3E"/>
<path d="M46.1999 22.4004C45.8665 22.1503 45.425 22.0971 45.0416 22.2608C44.6583 22.4245 44.3915 22.7803 44.3416 23.1941C44.2918 23.608 44.4665 24.0169 44.7999 24.267L49.4666 27.767C49.9707 28.1453 50.684 28.0549 51.0778 27.5629L60.4111 15.8962C60.8086 15.3927 60.725 14.6627 60.224 14.2621C59.723 13.8615 58.9925 13.9405 58.5888 14.439L49.9624 25.2225L46.1999 22.4004Z" fill="#FF4444"/>
<path d="M14.0002 64.166C14.6445 64.166 15.1668 63.6436 15.1668 62.9993C15.1668 62.355 14.6445 61.8326 14.0002 61.8326C13.3558 61.8326 12.8335 62.355 12.8335 62.9993C12.8335 63.6436 13.3558 64.166 14.0002 64.166Z" fill="#3E3E3E"/>
<path d="M49.0001 64.166C49.6445 64.166 50.1668 63.6436 50.1668 62.9993C50.1668 62.355 49.6445 61.8326 49.0001 61.8326C48.3558 61.8326 47.8335 62.355 47.8335 62.9993C47.8335 63.6436 48.3558 64.166 49.0001 64.166Z" fill="#3E3E3E"/>
</g>
<defs>
<clipPath id="clip0">
<rect width="70" height="70" fill="white"/>
</clipPath>
</defs>
</svg>
