<svg width="69" height="69" viewBox="0 0 69 69" fill="none" xmlns="http://www.w3.org/2000/svg">
<path d="M61.4531 8.625H56.0625V6.46875C56.0625 5.325 55.6081 4.2281 54.7994 3.41935C53.9906 2.6106 52.8937 2.15625 51.75 2.15625C50.6063 2.15625 49.5094 2.6106 48.7006 3.41935C47.8919 4.2281 47.4375 5.325 47.4375 6.46875V8.625H38.8125V6.46875C38.8125 5.325 38.3581 4.2281 37.5494 3.41935C36.7406 2.6106 35.6437 2.15625 34.5 2.15625C33.3563 2.15625 32.2594 2.6106 31.4506 3.41935C30.6419 4.2281 30.1875 5.325 30.1875 6.46875V8.625H21.5625V6.46875C21.5625 5.325 21.1081 4.2281 20.2994 3.41935C19.4906 2.6106 18.3937 2.15625 17.25 2.15625C16.1063 2.15625 15.0094 2.6106 14.2006 3.41935C13.3919 4.2281 12.9375 5.325 12.9375 6.46875V8.625H7.54688C6.11719 8.625 4.74607 9.19294 3.73513 10.2039C2.72419 11.2148 2.15625 12.5859 2.15625 14.0156V57.1406C2.15625 58.5703 2.72419 59.9414 3.73513 60.9524C4.74607 61.9633 6.11719 62.5312 7.54688 62.5312H37.7344C38.0203 62.5312 38.2945 62.4177 38.4967 62.2155C38.6989 62.0133 38.8125 61.7391 38.8125 61.4531C38.8125 61.1672 38.6989 60.893 38.4967 60.6908C38.2945 60.4886 38.0203 60.375 37.7344 60.375H7.54688C6.68985 60.3724 5.86866 60.0309 5.26265 59.4248C4.65665 58.8188 4.31506 57.9976 4.3125 57.1406V23.7188H64.6875V42.0469C64.6875 42.3328 64.8011 42.607 65.0033 42.8092C65.2055 43.0114 65.4797 43.125 65.7656 43.125C66.0516 43.125 66.3258 43.0114 66.528 42.8092C66.7302 42.607 66.8438 42.3328 66.8438 42.0469V14.0156C66.8438 12.5859 66.2758 11.2148 65.2649 10.2039C64.2539 9.19294 62.8828 8.625 61.4531 8.625ZM49.5938 6.46875C49.5938 5.89688 49.8209 5.34843 50.2253 4.94405C50.6297 4.53968 51.1781 4.3125 51.75 4.3125C52.3219 4.3125 52.8703 4.53968 53.2747 4.94405C53.6791 5.34843 53.9062 5.89688 53.9062 6.46875V12.9375C53.9062 13.5094 53.6791 14.0578 53.2747 14.4622C52.8703 14.8666 52.3219 15.0938 51.75 15.0938C51.1781 15.0938 50.6297 14.8666 50.2253 14.4622C49.8209 14.0578 49.5938 13.5094 49.5938 12.9375V6.46875ZM32.3438 6.46875C32.3438 5.89688 32.5709 5.34843 32.9753 4.94405C33.3797 4.53968 33.9281 4.3125 34.5 4.3125C35.0719 4.3125 35.6203 4.53968 36.0247 4.94405C36.4291 5.34843 36.6562 5.89688 36.6562 6.46875V12.9375C36.6562 13.5094 36.4291 14.0578 36.0247 14.4622C35.6203 14.8666 35.0719 15.0938 34.5 15.0938C33.9281 15.0938 33.3797 14.8666 32.9753 14.4622C32.5709 14.0578 32.3438 13.5094 32.3438 12.9375V6.46875ZM15.0938 6.46875C15.0938 5.89688 15.3209 5.34843 15.7253 4.94405C16.1297 4.53968 16.6781 4.3125 17.25 4.3125C17.8219 4.3125 18.3703 4.53968 18.7747 4.94405C19.1791 5.34843 19.4062 5.89688 19.4062 6.46875V12.9375C19.4062 13.5094 19.1791 14.0578 18.7747 14.4622C18.3703 14.8666 17.8219 15.0938 17.25 15.0938C16.6781 15.0938 16.1297 14.8666 15.7253 14.4622C15.3209 14.0578 15.0938 13.5094 15.0938 12.9375V6.46875ZM64.6875 21.5625H4.3125V14.0156C4.31506 13.1586 4.65665 12.3374 5.26265 11.7314C5.86866 11.1254 6.68985 10.7838 7.54688 10.7812H12.9375V12.9375C12.9375 14.0812 13.3919 15.1781 14.2006 15.9869C15.0094 16.7956 16.1063 17.25 17.25 17.25C18.3937 17.25 19.4906 16.7956 20.2994 15.9869C21.1081 15.1781 21.5625 14.0812 21.5625 12.9375V10.7812H30.1875V12.9375C30.1875 14.0812 30.6419 15.1781 31.4506 15.9869C32.2594 16.7956 33.3563 17.25 34.5 17.25C35.6437 17.25 36.7406 16.7956 37.5494 15.9869C38.3581 15.1781 38.8125 14.0812 38.8125 12.9375V10.7812H47.4375V12.9375C47.4375 14.0812 47.8919 15.1781 48.7006 15.9869C49.5094 16.7956 50.6063 17.25 51.75 17.25C52.8937 17.25 53.9906 16.7956 54.7994 15.9869C55.6081 15.1781 56.0625 14.0812 56.0625 12.9375V10.7812H61.4531C62.3101 10.7838 63.1313 11.1254 63.7373 11.7314C64.3434 12.3374 64.6849 13.1586 64.6875 14.0156V21.5625Z" fill="#3E3E3E"/>
<path d="M32.3438 31.2656C32.3438 30.6938 32.1166 30.1453 31.7122 29.7409C31.3078 29.3366 30.7594 29.1094 30.1875 29.1094H25.875C25.3031 29.1094 24.7547 29.3366 24.3503 29.7409C23.9459 30.1453 23.7188 30.6938 23.7188 31.2656V34.5C23.7188 35.0719 23.9459 35.6203 24.3503 36.0247C24.7547 36.4291 25.3031 36.6562 25.875 36.6562H30.1875C30.7594 36.6562 31.3078 36.4291 31.7122 36.0247C32.1166 35.6203 32.3438 35.0719 32.3438 34.5V31.2656ZM25.875 34.5V31.2656H30.1875V34.5H25.875Z" fill="#3E3E3E"/>
<path d="M19.4062 31.2656C19.4062 30.6938 19.1791 30.1453 18.7747 29.7409C18.3703 29.3366 17.8219 29.1094 17.25 29.1094H12.9375C12.3656 29.1094 11.8172 29.3366 11.4128 29.7409C11.0084 30.1453 10.7812 30.6938 10.7812 31.2656V34.5C10.7812 35.0719 11.0084 35.6203 11.4128 36.0247C11.8172 36.4291 12.3656 36.6562 12.9375 36.6562H17.25C17.8219 36.6562 18.3703 36.4291 18.7747 36.0247C19.1791 35.6203 19.4062 35.0719 19.4062 34.5V31.2656ZM12.9375 34.5V31.2656H17.25V34.5H12.9375Z" fill="#FF4444"/>
<path d="M56.0625 36.6562C56.6344 36.6562 57.1828 36.4291 57.5872 36.0247C57.9916 35.6203 58.2188 35.0719 58.2188 34.5V31.2656C58.2188 30.6938 57.9916 30.1453 57.5872 29.7409C57.1828 29.3366 56.6344 29.1094 56.0625 29.1094H51.75C51.1781 29.1094 50.6297 29.3366 50.2253 29.7409C49.8209 30.1453 49.5938 30.6938 49.5938 31.2656V34.5C49.5938 35.0719 49.8209 35.6203 50.2253 36.0247C50.6297 36.4291 51.1781 36.6562 51.75 36.6562H56.0625ZM51.75 31.2656H56.0625V34.5H51.75V31.2656Z" fill="#3E3E3E"/>
<path d="M32.3438 40.9688C32.3438 40.3969 32.1166 39.8484 31.7122 39.444C31.3078 39.0397 30.7594 38.8125 30.1875 38.8125H25.875C25.3031 38.8125 24.7547 39.0397 24.3503 39.444C23.9459 39.8484 23.7188 40.3969 23.7188 40.9688V44.2031C23.7188 44.775 23.9459 45.3235 24.3503 45.7278C24.7547 46.1322 25.3031 46.3594 25.875 46.3594H30.1875C30.7594 46.3594 31.3078 46.1322 31.7122 45.7278C32.1166 45.3235 32.3438 44.775 32.3438 44.2031V40.9688ZM25.875 44.2031V40.9688H30.1875V44.2031H25.875Z" fill="#3E3E3E"/>
<path d="M19.4062 40.9688C19.4062 40.3969 19.1791 39.8484 18.7747 39.444C18.3703 39.0397 17.8219 38.8125 17.25 38.8125H12.9375C12.3656 38.8125 11.8172 39.0397 11.4128 39.444C11.0084 39.8484 10.7812 40.3969 10.7812 40.9688V44.2031C10.7812 44.775 11.0084 45.3235 11.4128 45.7278C11.8172 46.1322 12.3656 46.3594 12.9375 46.3594H17.25C17.8219 46.3594 18.3703 46.1322 18.7747 45.7278C19.1791 45.3235 19.4062 44.775 19.4062 44.2031V40.9688ZM12.9375 44.2031V40.9688H17.25V44.2031H12.9375Z" fill="#3E3E3E"/>
<path d="M30.1875 48.5156H25.875C25.3031 48.5156 24.7547 48.7428 24.3503 49.1472C23.9459 49.5515 23.7188 50.1 23.7188 50.6719V53.9062C23.7188 54.4781 23.9459 55.0266 24.3503 55.431C24.7547 55.8353 25.3031 56.0625 25.875 56.0625H30.1875C30.7594 56.0625 31.3078 55.8353 31.7122 55.431C32.1166 55.0266 32.3438 54.4781 32.3438 53.9062V50.6719C32.3438 50.1 32.1166 49.5515 31.7122 49.1472C31.3078 48.7428 30.7594 48.5156 30.1875 48.5156ZM25.875 53.9062V50.6719H30.1875V53.9062H25.875Z" fill="#3E3E3E"/>
<path d="M38.8125 36.6562H43.125C43.6969 36.6562 44.2453 36.4291 44.6497 36.0247C45.0541 35.6203 45.2812 35.0719 45.2812 34.5V31.2656C45.2812 30.6938 45.0541 30.1453 44.6497 29.7409C44.2453 29.3366 43.6969 29.1094 43.125 29.1094H38.8125C38.2406 29.1094 37.6922 29.3366 37.2878 29.7409C36.8834 30.1453 36.6562 30.6938 36.6562 31.2656V34.5C36.6562 35.0719 36.8834 35.6203 37.2878 36.0247C37.6922 36.4291 38.2406 36.6562 38.8125 36.6562ZM38.8125 31.2656H43.125V34.5H38.8125V31.2656Z" fill="#3E3E3E"/>
<path d="M36.6562 44.2031C36.6562 44.775 36.8834 45.3235 37.2878 45.7278C37.6922 46.1322 38.2406 46.3594 38.8125 46.3594C39.0984 46.3594 39.3727 46.2458 39.5749 46.0436C39.777 45.8414 39.8906 45.5672 39.8906 45.2812C39.8906 44.9953 39.777 44.7211 39.5749 44.5189C39.3727 44.3167 39.0984 44.2031 38.8125 44.2031V40.9688H43.125C43.4109 40.9688 43.6852 40.8552 43.8874 40.653C44.0895 40.4508 44.2031 40.1766 44.2031 39.8906C44.2031 39.6047 44.0895 39.3305 43.8874 39.1283C43.6852 38.9261 43.4109 38.8125 43.125 38.8125H38.8125C38.2406 38.8125 37.6922 39.0397 37.2878 39.444C36.8834 39.8484 36.6562 40.3969 36.6562 40.9688V44.2031Z" fill="#3E3E3E"/>
<path d="M17.25 48.5156H12.9375C12.3656 48.5156 11.8172 48.7428 11.4128 49.1472C11.0084 49.5515 10.7812 50.1 10.7812 50.6719V53.9062C10.7812 54.4781 11.0084 55.0266 11.4128 55.431C11.8172 55.8353 12.3656 56.0625 12.9375 56.0625H17.25C17.8219 56.0625 18.3703 55.8353 18.7747 55.431C19.1791 55.0266 19.4062 54.4781 19.4062 53.9062V50.6719C19.4062 50.1 19.1791 49.5515 18.7747 49.1472C18.3703 48.7428 17.8219 48.5156 17.25 48.5156ZM12.9375 53.9062V50.6719H17.25V53.9062H12.9375Z" fill="#3E3E3E"/>
<path d="M52.8281 38.8125C50.0561 38.8125 47.3463 39.6345 45.0415 41.1746C42.7366 42.7146 40.9402 44.9036 39.8794 47.4646C38.8186 50.0256 38.541 52.8437 39.0818 55.5624C39.6226 58.2812 40.9575 60.7785 42.9176 62.7387C44.8777 64.6988 47.3751 66.0336 50.0938 66.5744C52.8126 67.1152 55.6307 66.8377 58.1917 65.7769C60.7527 64.7161 62.9416 62.9196 64.4817 60.6148C66.0217 58.3099 66.8438 55.6002 66.8438 52.8281C66.8395 49.1123 65.3615 45.5498 62.7339 42.9223C60.1064 40.2948 56.544 38.8168 52.8281 38.8125ZM52.8281 64.6875C50.4826 64.6875 48.1897 63.992 46.2394 62.6888C44.2892 61.3857 42.7691 59.5335 41.8715 57.3665C40.9739 55.1995 40.739 52.815 41.1966 50.5145C41.6542 48.214 42.7837 46.1008 44.4423 44.4423C46.1008 42.7837 48.214 41.6542 50.5145 41.1966C52.815 40.739 55.1995 40.9739 57.3665 41.8715C59.5335 42.7691 61.3857 44.2891 62.6888 46.2394C63.992 48.1897 64.6875 50.4826 64.6875 52.8281C64.6838 55.9723 63.4331 58.9866 61.2099 61.2099C58.9866 63.4331 55.9723 64.6838 52.8281 64.6875Z" fill="#3E3E3E"/>
<path d="M59.0575 48.3087L50.6719 56.6944L46.8607 52.8822C46.6573 52.6858 46.385 52.5771 46.1023 52.5795C45.8196 52.582 45.5492 52.6954 45.3493 52.8953C45.1495 53.0952 45.0361 53.3656 45.0336 53.6483C45.0312 53.9309 45.1398 54.2033 45.3362 54.4066L49.9096 58.9811C50.1118 59.1832 50.386 59.2968 50.6719 59.2968C50.9577 59.2968 51.2319 59.1832 51.4341 58.9811L60.582 49.8332C60.7784 49.6299 60.887 49.3575 60.8846 49.0749C60.8821 48.7922 60.7687 48.5218 60.5688 48.3219C60.3689 48.122 60.0985 48.0086 59.8159 48.0061C59.5332 48.0037 59.2608 48.1124 59.0575 48.3087Z" fill="#FF4444"/>
</svg>
