<svg width="106" height="106" viewBox="0 0 106 106" fill="none" xmlns="http://www.w3.org/2000/svg">
<circle cx="53" cy="53" r="53" fill="#F3F3F3"/>
<path d="M65.1094 28.7929V26.808C66.2157 26.5842 67.0508 25.6048 67.0508 24.4336C67.0508 23.0967 65.9638 22.0097 64.627 22.0097H64.626H64.625H38.4823C38.4785 22.0097 38.4765 22.0078 38.4726 22.0078C37.1358 22.0078 36.0488 23.0948 36.0488 24.4316C36.0488 25.6009 36.88 26.5784 37.9825 26.8051V28.7978C37.9825 33.2763 41.3818 36.974 45.7344 37.4555V43.5848C45.158 43.9209 44.7656 44.539 44.7656 45.253V47.2844C42.5569 47.7339 40.8887 49.6918 40.8887 52.0313V52.0323V73.3361V73.337V73.3467C40.8887 73.3487 40.8877 73.3506 40.8877 73.3535C40.8877 73.3574 40.8897 73.3613 40.8906 73.3651C40.9061 79.228 45.6763 83.9923 51.542 83.9943H51.543H51.544H51.545H51.5459C57.403 83.9923 62.1683 79.2416 62.1964 73.3913C62.1973 73.3777 62.2041 73.368 62.2041 73.3545C62.2041 73.3525 62.2031 73.3506 62.2031 73.3477C62.2031 73.3438 62.2051 73.3409 62.2051 73.337V66.5713H64.1387C64.1387 67.107 64.5717 67.54 65.1075 67.54H68.0137C69.0822 67.54 69.9512 66.6711 69.9512 65.6025V55.917C69.9512 54.8484 69.0822 53.9795 68.0137 53.9795H65.1075C64.5717 53.9795 64.1387 54.4125 64.1387 54.9482H62.2051V52.0342C62.2051 52.0284 62.2012 52.0226 62.2012 52.0168C62.1944 49.684 60.5301 47.7339 58.3262 47.2854V45.253C58.3262 44.54 57.9339 43.9209 57.3575 43.5848V37.4574C61.711 36.9721 65.1094 33.2744 65.1094 28.7929ZM66.0762 55.915H68.0137V57.8506H66.0762V55.915ZM66.0762 59.7881H68.0137V61.7256H66.0762V59.7881ZM66.0762 63.6631H68.0137V65.6006H66.0762V63.6631ZM62.2051 56.8838H64.1387V64.6319H62.2051V56.8838ZM38.4659 24.916C38.2014 24.9121 37.9863 24.6961 37.9863 24.4316C37.9863 24.1662 38.2024 23.9492 38.4678 23.9463C38.4697 23.9463 38.4707 23.9473 38.4726 23.9473H64.625H64.626H64.627C64.8943 23.9473 65.1133 24.1662 65.1133 24.4336C65.1133 24.6971 64.9001 24.9112 64.6376 24.9179C64.6337 24.9179 64.6299 24.915 64.625 24.915H38.4726C38.4697 24.915 38.4678 24.916 38.4659 24.916ZM51.544 82.0548C47.0703 82.0548 43.3765 78.6661 42.8853 74.3213H60.2017C59.7115 78.6661 56.0177 82.0548 51.544 82.0548ZM57.3681 49.1251C58.9656 49.1299 60.2656 50.4309 60.2656 52.0303C60.2656 52.0333 60.2676 52.0362 60.2676 52.04V55.8211C60.2647 55.853 60.2482 55.8821 60.2482 55.915C60.2482 55.948 60.2647 55.9761 60.2676 56.009V65.5076C60.2647 65.5396 60.2482 65.5686 60.2482 65.6016C60.2482 65.6345 60.2647 65.6626 60.2676 65.6955V72.3848H42.8262V52.0313C42.8262 52.0303 42.8262 52.0303 42.8262 52.0303C42.8262 50.4329 44.1224 49.1328 45.7189 49.1241C45.7237 49.1241 45.7286 49.127 45.7344 49.127H57.3575C57.3613 49.127 57.3642 49.1251 57.3681 49.1251ZM55.42 43.3145H47.6719V37.5107H55.42V43.3145ZM56.3887 45.252V47.1895H54.4512V45.252H56.3887ZM52.5137 45.252V47.1895H50.5762V45.252H52.5137ZM48.6387 45.252V47.1895H46.7031V45.252H48.6387ZM56.4304 35.5742C56.4149 35.5732 56.4042 35.5655 56.3887 35.5655C56.3751 35.5655 56.3645 35.5723 56.3509 35.5732H46.7409C46.7274 35.5723 46.7167 35.5655 46.7031 35.5655C46.6915 35.5655 46.6828 35.5713 46.6721 35.5723C42.9473 35.5587 39.92 32.5246 39.92 28.7978V26.8525H63.1719V28.7929C63.1719 32.5188 60.1513 35.5509 56.4304 35.5742Z" fill="#3E3E3E"/>
</svg>
