<svg width="106" height="106" viewBox="0 0 106 106" fill="none" xmlns="http://www.w3.org/2000/svg">
<circle cx="53" cy="53" r="53" fill="#F3F3F3"/>
<g clip-path="">
<path d="M69.2839 60.7739C68.7899 60.7739 68.3895 61.1743 68.3895 61.6683V65.168C67.2975 65.541 66.5098 66.5766 66.5098 67.7934C66.5098 69.323 67.7543 70.5675 69.2839 70.5675C69.723 70.5675 70.1384 70.4645 70.5078 70.2822L73.4832 73.2575C73.6579 73.4321 73.8868 73.5194 74.1157 73.5194C74.3445 73.5194 74.5735 73.4321 74.7482 73.2575C75.0975 72.9081 75.0975 72.3419 74.7482 71.9926L71.7729 69.0173C71.9552 68.6478 72.0582 68.2326 72.0582 67.7935C72.0582 66.5768 71.2704 65.5412 70.1784 65.1681V61.6684C70.1783 61.1743 69.778 60.7739 69.2839 60.7739ZM70.2693 67.7934C70.2693 68.3367 69.8272 68.7788 69.2839 68.7788C68.7406 68.7788 68.2986 68.3367 68.2986 67.7934C68.2986 67.2501 68.7406 66.808 69.2839 66.808C69.8272 66.808 70.2693 67.2501 70.2693 67.7934Z" fill="#3E3E3E"/>
<path d="M44.9045 41.8909C44.4453 41.7079 43.9254 41.9325 43.7429 42.3914L40.6788 50.0954C40.4962 50.5544 40.7204 51.0745 41.1793 51.2569C41.2878 51.3001 41.3996 51.3205 41.5096 51.3205C41.8652 51.3205 42.2015 51.1069 42.3411 50.7564L45.4051 43.0524C45.5876 42.5935 45.3635 42.0733 44.9045 41.8909Z" fill="#3E3E3E"/>
<path d="M48.3918 51.245C48.5089 51.2965 48.631 51.3209 48.7512 51.3209C49.0952 51.3209 49.4232 51.1212 49.5705 50.7862L52.9571 43.0822C53.0788 42.8056 53.0524 42.4863 52.8873 42.2333C52.7221 41.9804 52.4404 41.8279 52.1384 41.8279H47.9003C47.4063 41.8279 47.0059 42.2282 47.0059 42.7223C47.0059 43.2163 47.4063 43.6167 47.9003 43.6167H50.7682L47.933 50.0663C47.7341 50.5184 47.9396 51.0462 48.3918 51.245Z" fill="#FF4444"/>
<path d="M37.1384 51.1087C37.6323 51.1087 38.0327 50.7084 38.0327 50.2144V48.5726H38.5157C39.0097 48.5726 39.4101 48.1723 39.4101 47.6782C39.4101 47.1841 39.0097 46.7838 38.5157 46.7838H38.0327V42.7323C38.0327 42.1692 37.6695 41.6857 37.1288 41.5287C36.5884 41.3723 36.0232 41.5858 35.722 42.0612C34.616 43.8069 32.5753 47.1816 32.5548 47.2155C32.3878 47.4917 32.3826 47.8365 32.5412 48.1175C32.6998 48.3986 32.9974 48.5725 33.3202 48.5725H36.244V50.2142C36.244 50.7084 36.6444 51.1087 37.1384 51.1087ZM34.9096 46.7838C35.3002 46.1425 35.7817 45.3546 36.244 44.6052V46.7838H34.9096Z" fill="#FF4444"/>
<path d="M29.7269 45.9079C28.5069 47.651 27.7789 48.6041 27.3877 49.1163C26.9006 49.7543 26.6782 50.0454 26.8304 50.54C26.9198 50.8309 27.1402 51.0542 27.4348 51.1523C27.5534 51.1919 27.6671 51.2297 29.1714 51.2297C29.7591 51.2297 30.5591 51.2239 31.6546 51.2102C32.1485 51.204 32.5439 50.7986 32.5377 50.3047C32.5314 49.8146 32.1323 49.4215 31.6435 49.4215C31.6397 49.4215 31.6359 49.4215 31.632 49.4216C30.8698 49.4312 30.0617 49.4375 29.3868 49.439C29.813 48.8686 30.4014 48.0638 31.1924 46.9337C31.6862 46.228 32.0084 45.5607 32.15 44.9504C32.1568 44.9212 32.1621 44.8915 32.1658 44.8616L32.2039 44.5636C32.2088 44.5262 32.2111 44.4882 32.2111 44.4503C32.2111 42.8703 30.9256 41.5847 29.3455 41.5847C27.9792 41.5847 26.7966 42.5566 26.5335 43.8959C26.4384 44.3806 26.754 44.8507 27.2388 44.946C27.7237 45.041 28.1935 44.7256 28.2888 44.2407C28.3875 43.7383 28.8319 43.3736 29.3455 43.3736C29.923 43.3736 30.3959 43.8306 30.4213 44.4021L30.3977 44.5863C30.302 44.964 30.0765 45.4083 29.7269 45.9079Z" fill="#FF4444"/>
<path d="M35.0263 55.6009C35.0263 54.6739 34.2721 53.9197 33.345 53.9197H29.419C28.4921 53.9197 27.7378 54.6738 27.7378 55.6009V59.5269C27.7378 60.4539 28.4919 61.2082 29.419 61.2082H33.345C34.272 61.2082 35.0263 60.454 35.0263 59.5269V55.6009ZM33.2375 59.4192H29.5267V55.7085H33.2376V59.4192H33.2375Z" fill="#3E3E3E"/>
<path d="M44.3847 55.6009C44.3847 54.6739 43.6305 53.9197 42.7034 53.9197H38.7774C37.8505 53.9197 37.0962 54.6738 37.0962 55.6009V59.5269C37.0962 60.4539 37.8503 61.2082 38.7774 61.2082H42.7034C43.6304 61.2082 44.3847 60.454 44.3847 59.5269V55.6009ZM42.5959 59.4192H38.885V55.7085H42.5959V59.4192Z" fill="#3E3E3E"/>
<path d="M53.7434 55.6009C53.7434 54.6739 52.9893 53.9197 52.0623 53.9197H48.1363C47.2093 53.9197 46.4551 54.6738 46.4551 55.6009V59.5269C46.4551 60.4539 47.2092 61.2082 48.1363 61.2082H52.0623C52.9893 61.2082 53.7434 60.454 53.7434 59.5269V55.6009ZM51.9546 59.4192H48.2439V55.7085H51.9546V59.4192Z" fill="#3E3E3E"/>
<path d="M61.1122 49.2199V45.2938C61.1122 44.3668 60.358 43.6125 59.431 43.6125H55.505C54.578 43.6125 53.8237 44.3667 53.8237 45.2938V49.2199C53.8237 50.1469 54.5779 50.9011 55.505 50.9011H59.431C60.358 50.9011 61.1122 50.147 61.1122 49.2199ZM59.3234 49.1124H55.6126V45.4015H59.3234V49.1124Z" fill="#3E3E3E"/>
<path d="M64.8096 43.6128C63.8827 43.6128 63.1284 44.3669 63.1284 45.294V49.2202C63.1284 50.1471 63.8826 50.9014 64.8096 50.9014H68.7357C69.6626 50.9014 70.4169 50.1472 70.4169 49.2202V45.294C70.4169 44.3671 69.6627 43.6128 68.7357 43.6128H64.8096ZM68.628 49.1125H64.9172V45.4016H68.628V49.1125Z" fill="#3E3E3E"/>
<path d="M29.419 70.017H33.345C34.272 70.017 35.0263 69.2628 35.0263 68.3358V64.4097C35.0263 63.4828 34.2721 62.7285 33.345 62.7285H29.419C28.4921 62.7285 27.7378 63.4827 27.7378 64.4097V68.3358C27.7379 69.2627 28.4921 70.017 29.419 70.017ZM29.5267 64.5173H33.2376V68.2281H29.5267V64.5173Z" fill="#3E3E3E"/>
<path d="M38.7774 70.017H42.7034C43.6304 70.017 44.3847 69.2628 44.3847 68.3358V64.4097C44.3847 63.4828 43.6305 62.7285 42.7034 62.7285H38.7774C37.8505 62.7285 37.0962 63.4827 37.0962 64.4097V68.3358C37.0963 69.2627 37.8505 70.017 38.7774 70.017ZM38.8851 64.5173H42.596V68.2281H38.8851V64.5173Z" fill="#3E3E3E"/>
<path d="M52.0623 62.7285H48.1363C47.2093 62.7285 46.4551 63.4827 46.4551 64.4097V68.3358C46.4551 69.2627 47.2092 70.017 48.1363 70.017H52.0623C52.9893 70.017 53.7434 69.2628 53.7434 68.3358V64.4097C53.7434 63.4828 52.9893 62.7285 52.0623 62.7285ZM51.9546 68.2282H48.2439V64.5174H51.9546V68.2282Z" fill="#3E3E3E"/>
<path d="M53.8428 72.4216H28.1812C25.7592 72.4216 23.7888 70.4512 23.7888 68.0293V60.6332C23.7888 60.1391 23.3883 59.7388 22.8944 59.7388C22.4004 59.7388 22 60.1391 22 60.6332V68.0293C22 71.4376 24.7729 74.2104 28.1812 74.2104H53.8428C54.3368 74.2104 54.7372 73.8101 54.7372 73.316C54.7372 72.822 54.3368 72.4216 53.8428 72.4216Z" fill="#3E3E3E"/>
<path d="M22.8944 57.7157C23.3883 57.7157 23.7888 57.3154 23.7888 56.8213V38.8788H64.023C64.5171 38.8788 64.9174 38.4785 64.9174 37.9844C64.9174 37.4904 64.5171 37.09 64.023 37.09H23.7888V34.1236C23.7888 31.7016 25.7592 29.7313 28.1812 29.7313H34.4089V31.6385C34.4089 33.0184 35.5316 34.141 36.9114 34.141C38.2913 34.141 39.414 33.0184 39.414 31.6385V29.7313H57.3758V31.6385C57.3758 33.0184 58.4983 34.141 59.8781 34.141C61.258 34.141 62.3807 33.0184 62.3807 31.6385V29.7313H68.6084C71.0304 29.7313 73.0008 31.7016 73.0008 34.1236V37.09H67.8345C67.3405 37.09 66.9402 37.4904 66.9402 37.9844C66.9402 38.4785 67.3405 38.8788 67.8345 38.8788H73.0008V52.055C73.0008 52.5491 73.4011 52.9494 73.8952 52.9494C74.3893 52.9494 74.7896 52.5491 74.7896 52.055V34.1236C74.7896 30.7154 72.0167 27.9425 68.6084 27.9425H62.3807V25.9932C62.3807 24.6134 61.258 23.4907 59.8781 23.4907C58.4983 23.4907 57.3758 24.6134 57.3758 25.9932V27.9427H39.414V25.9932C39.414 24.6134 38.2913 23.4907 36.9114 23.4907C35.5316 23.4907 34.4089 24.6134 34.4089 25.9932V27.9427H28.1812C24.7729 27.9425 22 30.7154 22 34.1236V56.8213C22 57.3154 22.4004 57.7157 22.8944 57.7157ZM59.1645 25.9932C59.1645 25.5996 59.4847 25.2795 59.8781 25.2795C60.2718 25.2795 60.5919 25.5997 60.5919 25.9932V31.6386C60.5919 32.0323 60.2717 32.3524 59.8781 32.3524C59.4846 32.3524 59.1645 32.0322 59.1645 31.6386V25.9932ZM36.1977 25.9932C36.1977 25.5996 36.5179 25.2795 36.9114 25.2795C37.305 25.2795 37.6252 25.5997 37.6252 25.9932V31.6386C37.6252 32.0323 37.305 32.3524 36.9114 32.3524C36.5179 32.3524 36.1977 32.0322 36.1977 31.6386V25.9932Z" fill="#3E3E3E"/>
<path d="M82.5143 64.1674C82.3838 63.6911 81.8924 63.4103 81.4156 63.5406C80.9392 63.6709 80.6585 64.1628 80.7888 64.6392C80.9906 65.3769 81.1195 66.1339 81.1765 66.8989H79.7601C79.2661 66.8989 78.8657 67.2993 78.8657 67.7933C78.8657 68.2874 79.2661 68.6877 79.7601 68.6877H81.1774C80.9825 71.305 79.9391 73.6894 78.3222 75.5669L77.324 74.5688C76.9747 74.2195 76.4084 74.2194 76.0592 74.5687C75.7098 74.918 75.7098 75.4843 76.0591 75.8335L77.0573 76.8317C75.1799 78.4487 72.7953 79.492 70.1781 79.687V78.2694C70.1781 77.7754 69.7777 77.375 69.2837 77.375C68.7896 77.375 68.3893 77.7754 68.3893 78.2694V79.687C65.7721 79.492 63.3876 78.4487 61.5102 76.8317L62.5085 75.8335C62.8578 75.4841 62.8578 74.9178 62.5085 74.5686C62.1591 74.2194 61.5929 74.2194 61.2436 74.5686L60.2453 75.5668C58.6285 73.6894 57.585 71.305 57.39 68.6877H58.8075C59.3015 68.6877 59.7019 68.2874 59.7019 67.7933C59.7019 67.2993 59.3015 66.8989 58.8075 66.8989H57.39C57.585 64.2817 58.6284 61.8971 60.2453 60.0197L61.2436 61.018C61.4182 61.1926 61.6471 61.2799 61.876 61.2799C62.1048 61.2799 62.3338 61.1926 62.5085 61.0179C62.8578 60.6686 62.8578 60.1023 62.5084 59.7531L61.5102 58.755C63.3876 57.138 65.7722 56.0947 68.3894 55.8997V57.3171C68.3894 57.8112 68.7897 58.2115 69.2838 58.2115C69.7779 58.2115 70.1782 57.8112 70.1782 57.3171V55.9007C72.7506 56.091 75.1503 57.0977 77.0637 58.7485L76.0591 59.7531C75.7098 60.1025 75.7098 60.6687 76.0591 61.018C76.2338 61.1926 76.4628 61.2799 76.6916 61.2799C76.9205 61.2799 77.1494 61.1926 77.3242 61.018L78.3266 60.0156C78.697 60.4474 79.0408 60.9078 79.3524 61.3972C79.6177 61.8139 80.1702 61.9365 80.5871 61.6713C81.0038 61.4059 81.1264 60.8532 80.8612 60.4365C78.326 56.4547 73.998 54.0776 69.2838 54.0776C61.7208 54.0776 55.5679 60.2306 55.5679 67.7936C55.5679 75.3566 61.7208 81.5093 69.2838 81.5093C76.8468 81.5093 82.9997 75.3563 82.9997 67.7933C82.9997 66.5653 82.8364 65.3453 82.5143 64.1674Z" fill="#3E3E3E"/>
</g>
<defs>
<clipPath id="clip0">
<rect width="61" height="61" fill="white" transform="translate(22 22)"/>
</clipPath>
</defs>
</svg>
