<svg width="38" height="38" viewBox="0 0 38 38" fill="none" xmlns="http://www.w3.org/2000/svg">
<g clip-path="url(#clip0)">
<path d="M36.1882 22.2577H35.6196V17.1355C35.6196 16.3246 35.216 15.6066 34.5996 15.1704V14.4729C34.5996 13.4613 33.7766 12.6382 32.7649 12.6382H32.3403L33.9648 10.2543C34.5094 9.4553 34.3023 8.36213 33.5033 7.81752L22.4795 0.305094C22.0924 0.0412467 21.6259 -0.0561283 21.1655 0.0312272C20.7052 0.118434 20.3064 0.37961 20.0427 0.766735L10.5278 14.729H7.88L8.5188 8.26231C8.526 8.18943 8.57335 8.12627 8.6394 8.1014C9.46241 7.79109 10.1757 7.21159 10.6477 6.4697C10.6849 6.41129 10.755 6.3779 10.8276 6.38524L14.9805 6.79552C15.2783 6.8244 15.5432 6.60753 15.5725 6.30991C15.6019 6.01229 15.3846 5.74726 15.0869 5.71787L10.934 5.30759C10.452 5.26038 9.99226 5.48252 9.73398 5.88835C9.38693 6.43386 8.8625 6.85987 8.2574 7.08802C7.80192 7.25976 7.48916 7.66886 7.44107 8.15581L6.7918 14.7289H6.10134L7.11161 4.50127C7.14798 4.13315 7.47654 3.8627 7.84511 3.89958L16.2373 4.72861C16.5349 4.75733 16.8 4.54061 16.8294 4.24299C16.8588 3.94538 16.6414 3.68034 16.3438 3.65095L7.95154 2.82193C6.98937 2.727 6.12895 3.43245 6.03388 4.39477L5.21955 12.6382H3.83277C2.82117 12.6382 1.99809 13.4613 1.99809 14.4729V14.9487C1.17047 15.3297 0.594238 16.1663 0.594238 17.1355V35.5934C0.594238 36.9204 1.67382 38 3.00093 38H33.2129C34.54 38 35.6196 36.9204 35.6196 35.5934V30.4712H36.1882C36.8595 30.4712 37.4055 29.9252 37.4055 29.254V23.475C37.4056 22.8038 36.8595 22.2577 36.1882 22.2577ZM32.7649 13.7212C33.1795 13.7212 33.5166 14.0584 33.5166 14.473V14.7489C33.417 14.7363 33.3159 14.7291 33.2129 14.7291H30.9155L31.6022 13.7212H32.7649ZM20.9375 1.37652C21.0385 1.22845 21.191 1.12855 21.367 1.09515C21.4091 1.08721 21.4513 1.0832 21.4933 1.0832C21.6266 1.0832 21.757 1.12313 21.8696 1.19988L32.8934 8.7123C33.1991 8.92063 33.2783 9.33878 33.0701 9.64441L29.6051 14.7288H28.7735L30.4723 12.2361C30.7478 11.8318 30.7705 11.3173 30.5314 10.8933C30.2136 10.33 30.0848 9.66668 30.1686 9.0255C30.231 8.5485 30.0211 8.08285 29.6209 7.81017L23.9062 3.91576C23.5059 3.64301 22.9958 3.618 22.5746 3.85052C22.0087 4.16298 21.3442 4.28567 20.7037 4.19601C20.2287 4.12936 19.747 4.34386 19.4756 4.74204L12.6698 14.7289H11.8382L20.9375 1.37652ZM21.176 10.5716C18.818 10.5716 16.8824 12.4102 16.7246 14.7289H13.9801L20.3703 5.3519C20.3703 5.3519 20.3703 5.3519 20.3703 5.3519C20.4066 5.29853 20.4668 5.26677 20.5287 5.26677C20.5369 5.26677 20.5451 5.26736 20.5534 5.26847C21.4245 5.39034 22.3282 5.22365 23.098 4.79859C23.1585 4.76505 23.2363 4.76987 23.2963 4.81069L29.011 8.70517C29.0709 8.74599 29.1037 8.81665 29.0948 8.88523C28.9808 9.75722 29.1561 10.6593 29.5882 11.4254C29.6229 11.4869 29.6187 11.5657 29.5776 11.6262L27.4632 14.7288H25.6276C25.4697 12.4102 23.5341 10.5716 21.176 10.5716ZM24.5417 14.729H17.8104C17.9655 13.0079 19.4153 11.6546 21.176 11.6546C22.9368 11.6545 24.3866 13.0079 24.5417 14.729ZM3.08101 14.4729C3.08101 14.0583 3.41819 13.7211 3.83277 13.7211H5.1126L5.01307 14.7289H3.08101V14.4729ZM1.67716 17.1355C1.67716 16.4057 2.27099 15.8118 3.00093 15.8118H33.2129C33.9429 15.8118 34.5366 16.4057 34.5366 17.1355V18.638H1.67716V17.1355ZM34.5366 35.5934C34.5366 36.3232 33.9429 36.9171 33.2129 36.9171H3.00093C2.27099 36.9171 1.67716 36.3232 1.67716 35.5934V34.0909H4.59708C4.89618 34.0909 5.1385 33.8485 5.1385 33.5495C5.1385 33.2504 4.89611 33.008 4.59708 33.008H1.67716V19.7209H34.5366V22.2577H29.3884H29.3883C27.7662 22.2577 26.3611 23.2033 25.6942 24.572C25.692 24.5766 25.6895 24.581 25.6872 24.5856C25.6815 24.5973 25.6766 24.6094 25.6711 24.6211C25.5917 24.7898 25.5227 24.9644 25.4665 25.1446C25.4664 25.1451 25.4662 25.1456 25.4661 25.1461C25.3462 25.5312 25.2815 25.9404 25.2815 26.3645C25.2815 28.629 27.1238 30.4712 29.3882 30.4712H29.3883H34.5366V33.008H8.06413C7.76503 33.008 7.52271 33.2504 7.52271 33.5495C7.52271 33.8485 7.76511 34.0909 8.06413 34.0909H34.5366V35.5934ZM36.3226 29.254C36.3226 29.328 36.2624 29.3883 36.1882 29.3883H29.3884C28.2421 29.3883 27.2427 28.7471 26.7301 27.8046C26.7068 27.7618 26.6845 27.7183 26.6632 27.6743C26.6207 27.5862 26.5823 27.4957 26.5484 27.4031C26.4295 27.0791 26.3646 26.7292 26.3646 26.3645C26.3646 25.9998 26.4296 25.6499 26.5484 25.3259C26.5824 25.2333 26.6208 25.1428 26.6632 25.0547C26.6845 25.0107 26.7068 24.9672 26.7301 24.9243C27.2427 23.9818 28.2421 23.3407 29.3884 23.3407H36.1882C36.2623 23.3407 36.3226 23.4009 36.3226 23.475V29.254Z" fill="#3E3E3E"/>
<path d="M29.5154 24.1675C28.304 24.1675 27.3185 25.153 27.3185 26.3644C27.3185 27.5757 28.304 28.5612 29.5154 28.5612C30.7268 28.5612 31.7122 27.5757 31.7122 26.3644C31.7122 25.153 30.7268 24.1675 29.5154 24.1675ZM29.5154 27.4782C28.9011 27.4782 28.4014 26.9785 28.4014 26.3644C28.4014 25.7502 28.9011 25.2504 29.5154 25.2504C30.1296 25.2504 30.6293 25.7501 30.6293 26.3644C30.6293 26.9786 30.1296 27.4782 29.5154 27.4782Z" fill="#FF4444"/>
</g>
<defs>
<clipPath id="clip0">
<rect width="38" height="38" fill="white"/>
</clipPath>
</defs>
</svg>
