<svg width="40" height="40" viewBox="0 0 40 40" fill="none" xmlns="http://www.w3.org/2000/svg">
<g clip-path="url(#clip0)">
<path d="M20 0.0107422C17.4988 0.0107422 14.9974 0.962966 13.0928 2.86741C9.28374 6.67631 9.28374 12.8729 13.0928 16.6818C13.3619 16.9511 13.7985 16.9513 14.0677 16.6822C14.337 16.4131 14.3373 15.9764 14.0682 15.7072C14.068 15.7071 14.0679 15.7069 14.0677 15.7068C10.7856 12.4247 10.7856 7.12422 14.0677 3.84211C17.3499 0.559991 22.65 0.559991 25.9321 3.84211C29.2143 7.12422 29.2143 12.4247 25.9321 15.7068C25.6629 15.976 25.6629 16.4125 25.9321 16.6818C26.2014 16.951 26.6379 16.951 26.9071 16.6818C30.7161 12.8729 30.7161 6.67631 26.9071 2.86741C25.0028 0.962966 22.5014 0.0107422 20 0.0107422ZM20 2.43176C18.1183 2.43176 16.2365 3.14769 14.8048 4.5794C11.9413 7.44283 11.9413 12.1063 14.8048 14.9698C15.0708 15.242 15.5073 15.2471 15.7796 14.9811C16.0519 14.715 16.057 14.2785 15.7909 14.0062C15.7872 14.0024 15.7833 13.9985 15.7795 13.9948C13.4428 11.6581 13.4428 7.89075 15.7795 5.5541C18.1161 3.21745 21.8838 3.21745 24.2204 5.5541C26.5571 7.89075 26.5571 11.6581 24.2204 13.9948C23.948 14.2609 23.9429 14.6972 24.2088 14.9696C24.4749 15.242 24.9113 15.2471 25.1837 14.9812C25.1875 14.9775 25.1914 14.9736 25.1951 14.9698C28.0585 12.1063 28.0585 7.44283 25.1951 4.5794C23.7635 3.14769 21.8817 2.43176 20 2.43176ZM20 5.45373C17.6219 5.45373 15.6791 7.3965 15.6791 9.77465C15.6791 11.9183 17.2576 13.7073 19.3107 14.0396V19.9799H11.5265C9.81534 19.9799 8.41617 21.3789 8.41617 23.0902C8.41617 24.8015 9.81521 26.2007 11.5265 26.2007H19.3107C19.3107 26.2021 19.3107 26.2036 19.3107 26.205V33.0981C19.3103 33.1213 19.3111 33.1443 19.3132 33.1673C17.9657 33.4428 16.8978 34.5111 16.6226 35.8586C16.5996 35.8564 16.5766 35.8553 16.5534 35.8554H0.699115C0.318474 35.85 0.00538582 36.1543 9.13957e-06 36.5349C-0.00536754 36.9156 0.298897 37.2287 0.679538 37.234C0.686018 37.2342 0.692498 37.2342 0.698977 37.234H16.5533C16.5764 37.2344 16.5995 37.2336 16.6225 37.2315C16.9433 38.8008 18.3396 39.9913 19.9999 39.9913C21.6604 39.9913 23.0569 38.8004 23.3773 37.2309C23.4003 37.2331 23.4233 37.2342 23.4465 37.234H39.3008C39.6814 37.2394 39.9945 36.9351 39.9999 36.5545C40.0053 36.1739 39.701 35.8608 39.3204 35.8554C39.3139 35.8553 39.3074 35.8553 39.3009 35.8554H23.4466C23.4234 35.855 23.4004 35.8558 23.3774 35.8579C23.1019 34.5104 22.0336 33.4425 20.6862 33.1673C20.6884 33.1443 20.6895 33.1213 20.6893 33.0981V26.205C20.6892 26.2036 20.6892 26.2021 20.6891 26.2007H28.4735C30.1847 26.2007 31.5839 24.8014 31.5839 23.0902C31.5839 21.379 30.1848 19.9799 28.4735 19.9799H20.6893V14.0396C22.7423 13.7073 24.3209 11.9183 24.3209 9.77465C24.3209 7.39637 22.3782 5.45373 20 5.45373ZM20 6.83237C21.6331 6.83237 22.9423 8.14152 22.9423 9.77465C22.9423 11.4078 21.6331 12.7169 20 12.7169C18.3669 12.7169 17.0577 11.4078 17.0577 9.77465C17.0577 8.14152 18.3669 6.83237 20 6.83237ZM20 7.61405C18.8109 7.61405 17.8397 8.58558 17.8397 9.77465C17.8369 9.96504 17.9891 10.1215 18.1795 10.1241C18.3699 10.1269 18.5264 9.97469 18.529 9.7843C18.529 9.78099 18.529 9.77782 18.529 9.77451C18.529 8.95795 19.1834 8.30323 20 8.30323C20.1904 8.30599 20.3469 8.15379 20.3495 7.9634C20.3521 7.77301 20.2001 7.61654 20.0097 7.61392C20.0065 7.61392 20.0033 7.61392 20 7.61405ZM11.5265 21.3584H28.4735C29.4448 21.3584 30.2052 22.1187 30.2052 23.0901C30.2052 24.0614 29.4449 24.8219 28.4735 24.8219H11.5265C10.5553 24.8219 9.7948 24.0613 9.7948 23.0901C9.7948 22.1188 10.5553 21.3584 11.5265 21.3584ZM11.5265 22.4006C11.1459 22.3952 10.8328 22.6995 10.8274 23.0801C10.822 23.4608 11.1263 23.7739 11.5069 23.7792C11.5134 23.7794 11.5199 23.7794 11.5264 23.7792H23.6315C24.0121 23.7846 24.3252 23.4804 24.3306 23.0997C24.336 22.7191 24.0317 22.406 23.6511 22.4006C23.6446 22.4005 23.6381 22.4005 23.6316 22.4006H11.5265ZM26.0526 22.485C25.7183 22.485 25.4474 22.7559 25.4473 23.0902V23.0903C25.4473 23.4247 25.7182 23.6956 26.0525 23.6957H26.0526C26.387 23.6957 26.6579 23.4248 26.658 23.0905V23.0903C26.6579 22.756 26.387 22.485 26.0526 22.485ZM28.4735 22.485C28.1392 22.485 27.8683 22.7559 27.8682 23.0902V23.0903C27.8682 23.4247 28.1391 23.6956 28.4734 23.6957H28.4735C28.8078 23.6957 29.0787 23.4248 29.0789 23.0905V23.0903C29.0789 22.756 28.808 22.485 28.4735 22.485C28.4737 22.485 28.4735 22.485 28.4735 22.485ZM20 34.4766C21.1502 34.4766 22.068 35.3944 22.068 36.5446C22.068 37.6948 21.1502 38.6125 20 38.6125C18.8498 38.6125 17.9321 37.6948 17.9321 36.5446C17.9321 35.3944 18.8498 34.4766 20 34.4766ZM20 34.8213C19.0523 34.8213 18.2767 35.5969 18.2767 36.5446C18.274 36.735 18.4262 36.8914 18.6166 36.8941C18.8069 36.8968 18.9634 36.7446 18.966 36.5542C18.966 36.5509 18.966 36.5477 18.966 36.5444C18.966 35.9693 19.4248 35.5105 20 35.5105C20.1904 35.5132 20.3469 35.361 20.3495 35.1706C20.3523 34.9802 20.2001 34.8238 20.0097 34.8211C20.0065 34.8213 20.0033 34.8213 20 34.8213Z" fill="#3E3E3E"/>
</g>
<g clip-path="url(#clip1)">
<path d="M20 2.43213C18.1183 2.43213 16.2364 3.14805 14.8047 4.57977C11.9413 7.44319 11.9413 12.1067 14.8047 14.9701C15.0708 15.2424 15.5073 15.2475 15.7796 14.9814C16.0518 14.7154 16.0569 14.2789 15.7909 14.0066C15.7872 14.0027 15.7833 13.9989 15.7794 13.9952C13.4428 11.6585 13.4428 7.89111 15.7794 5.55446C18.1161 3.21781 21.8838 3.21781 24.2204 5.55446C26.5571 7.89111 26.5571 11.6585 24.2204 13.9952C23.948 14.2612 23.9429 14.6976 24.2088 14.97C24.4749 15.2424 24.9112 15.2475 25.1837 14.9816C25.1875 14.9778 25.1914 14.974 25.1951 14.9701C28.0585 12.1067 28.0585 7.44319 25.1951 4.57977C23.7635 3.14805 21.8817 2.43213 20 2.43213Z" fill="#FF4444"/>
</g>
<defs>
<clipPath id="clip0">
<rect width="40" height="40" fill="white"/>
</clipPath>
<clipPath id="clip1">
<rect width="40" height="40" fill="white"/>
</clipPath>
</defs>
</svg>
