<svg width="40" height="40" viewBox="0 0 40 40" fill="none" xmlns="http://www.w3.org/2000/svg">
<path d="M31.6129 30.9679C30.9013 30.9679 30.3225 30.3892 30.3225 29.6776C30.3225 28.966 30.9013 28.3873 31.6129 28.3873C32.3245 28.3873 32.9032 28.966 32.9032 29.6776H34.1935C34.1935 28.4789 33.3677 27.477 32.258 27.1886V25.8066H30.9677V27.1886C29.858 27.477 29.0322 28.4789 29.0322 29.6776C29.0322 31.1008 30.1896 32.2583 31.6129 32.2583C32.3245 32.2583 32.9032 32.837 32.9032 33.5486C32.9032 34.2602 32.3245 34.8389 31.6129 34.8389C30.9013 34.8389 30.3225 34.2602 30.3225 33.5486H29.0322C29.0322 34.7473 29.858 35.7492 30.9677 36.0376V37.4195H32.258V36.0376C33.3677 35.7492 34.1935 34.7473 34.1935 33.5486C34.1935 32.1254 33.0361 30.9679 31.6129 30.9679Z" fill="#FF4444"/>
<path d="M37.4193 30.9678H36.129V32.2581H37.4193V30.9678Z" fill="#3E3E3E"/>
<path d="M27.0968 30.9678H25.8065V32.2581H27.0968V30.9678Z" fill="#3E3E3E"/>
<path d="M32.2581 23.2587V3.58065C32.2581 3.02836 31.8103 2.58065 31.2581 2.58065H28.3871V1.93548C28.3871 0.868387 27.5187 0 26.4516 0C25.3845 0 24.5161 0.868387 24.5161 1.93548V2.58065H23.2258V1.93548C23.2258 0.868387 22.3574 0 21.2903 0C20.2232 0 19.3548 0.868387 19.3548 1.93548V2.58065H18.0645V1.93548C18.0645 0.868387 17.1961 0 16.129 0C15.0619 0 14.1935 0.868387 14.1935 1.93548V2.58065H12.9032V1.93548C12.9032 0.868387 12.0348 0 10.9677 0C9.90065 0 9.03226 0.868387 9.03226 1.93548V2.58065H7.74194V1.93548C7.74194 0.868387 6.87355 0 5.80645 0C4.73935 0 3.87097 0.868387 3.87097 1.93548V2.58065H1C0.447716 2.58065 0 3.02836 0 3.58065V31.2581C0 31.8103 0.447715 32.2581 1 32.2581H23.2587C23.5897 36.5813 27.2058 40 31.6129 40C33.6245 40 35.5703 39.2768 37.0916 37.9632L36.2484 36.9865C34.9613 38.0981 33.3148 38.7097 31.6129 38.7097C27.7 38.7097 24.5161 35.5258 24.5161 31.6129C24.5161 27.7 27.7 24.5161 31.6129 24.5161C35.5258 24.5161 38.7097 27.7 38.7097 31.6129C38.7097 33.249 38.169 34.7858 37.1452 36.0581L38.151 36.8671C39.3432 35.3845 40 33.5187 40 31.6129C40 27.2058 36.5813 23.5897 32.2581 23.2587ZM25.8064 1.93548C25.8064 1.58 26.0961 1.29032 26.4516 1.29032C26.8071 1.29032 27.0968 1.58 27.0968 1.93548V4.51613C27.0968 4.87161 26.8071 5.16129 26.4516 5.16129C26.0961 5.16129 25.8064 4.87161 25.8064 4.51613V1.93548ZM20.6452 1.93548C20.6452 1.58 20.9348 1.29032 21.2903 1.29032C21.6458 1.29032 21.9355 1.58 21.9355 1.93548V4.51613C21.9355 4.87161 21.6458 5.16129 21.2903 5.16129C20.9348 5.16129 20.6452 4.87161 20.6452 4.51613V1.93548ZM15.4839 1.93548C15.4839 1.58 15.7735 1.29032 16.129 1.29032C16.4845 1.29032 16.7742 1.58 16.7742 1.93548V4.51613C16.7742 4.87161 16.4845 5.16129 16.129 5.16129C15.7735 5.16129 15.4839 4.87161 15.4839 4.51613V1.93548ZM10.3226 1.93548C10.3226 1.58 10.6123 1.29032 10.9677 1.29032C11.3232 1.29032 11.6129 1.58 11.6129 1.93548V4.51613C11.6129 4.87161 11.3232 5.16129 10.9677 5.16129C10.6123 5.16129 10.3226 4.87161 10.3226 4.51613V1.93548ZM5.16129 1.93548C5.16129 1.58 5.45097 1.29032 5.80645 1.29032C6.16194 1.29032 6.45161 1.58 6.45161 1.93548V4.51613C6.45161 4.87161 6.16194 5.16129 5.80645 5.16129C5.45097 5.16129 5.16129 4.87161 5.16129 4.51613V1.93548ZM28.3871 23.2258H24.5161V19.3548H28.3871V23.2258ZM28.3871 18.0645H24.5161V14.1935H28.3871V18.0645ZM28.3871 12.9032H24.5161V9.03226H28.3871V12.9032ZM30.9677 23.2587C30.5271 23.2923 30.0968 23.3606 29.6774 23.4606V7.74194H18.0645V12.9032H2.58065V29.6774H14.1935V24.5161H27.1632C24.9748 25.8935 23.4671 28.2484 23.2587 30.9677H1.29032V3.87097H3.87097V4.51613C3.87097 5.58323 4.73935 6.45161 5.80645 6.45161C6.87355 6.45161 7.74194 5.58323 7.74194 4.51613V3.87097H9.03226V4.51613C9.03226 5.58323 9.90065 6.45161 10.9677 6.45161C12.0348 6.45161 12.9032 5.58323 12.9032 4.51613V3.87097H14.1935V4.51613C14.1935 5.58323 15.0619 6.45161 16.129 6.45161C17.1961 6.45161 18.0645 5.58323 18.0645 4.51613V3.87097H19.3548V4.51613C19.3548 5.58323 20.2232 6.45161 21.2903 6.45161C22.3574 6.45161 23.2258 5.58323 23.2258 4.51613V3.87097H24.5161V4.51613C24.5161 5.58323 25.3845 6.45161 26.4516 6.45161C27.5187 6.45161 28.3871 5.58323 28.3871 4.51613V3.87097H30.9677V23.2587ZM19.3548 18.0645V14.1935H23.2258V18.0645H19.3548ZM23.2258 19.3548V23.2258H19.3548V19.3548H23.2258ZM19.3548 12.9032V9.03226H23.2258V12.9032H19.3548ZM14.1935 18.0645V14.1935H18.0645V18.0645H14.1935ZM18.0645 19.3548V23.2258H14.1935V19.3548H18.0645ZM9.03226 23.2258V19.3548H12.9032V23.2258H9.03226ZM12.9032 24.5161V28.3871H9.03226V24.5161H12.9032ZM9.03226 18.0645V14.1935H12.9032V18.0645H9.03226ZM3.87097 23.2258V19.3548H7.74194V23.2258H3.87097ZM7.74194 24.5161V28.3871H3.87097V24.5161H7.74194ZM3.87097 18.0645V14.1935H7.74194V18.0645H3.87097Z" fill="#3E3E3E"/>
</svg>
