<svg width="40" height="40" viewBox="0 0 40 40" fill="none" xmlns="http://www.w3.org/2000/svg">
<g clip-path="">
<path d="M6.64626 35.5414C6.50102 35.396 6.29946 35.3125 6.09399 35.3125C5.88853 35.3125 5.68696 35.396 5.54165 35.5414C5.39634 35.6868 5.31274 35.8883 5.31274 36.0938C5.31274 36.2992 5.39626 36.5008 5.54165 36.646C5.68696 36.7913 5.88853 36.875 6.09399 36.875C6.29946 36.875 6.50102 36.7914 6.64626 36.646C6.79157 36.5008 6.87524 36.2992 6.87524 36.0938C6.87524 35.8883 6.79165 35.6867 6.64626 35.5414Z" fill="#FF4444"/>
<path d="M36.6816 14.2919C36.5362 14.1465 36.3355 14.063 36.1292 14.063C35.9237 14.063 35.7222 14.1465 35.5769 14.2919C35.4316 14.4372 35.348 14.6388 35.348 14.8442C35.348 15.0497 35.4316 15.2513 35.5769 15.3965C35.7222 15.5418 35.9237 15.6255 36.1292 15.6255C36.3355 15.6255 36.5362 15.5419 36.6816 15.3965C36.8276 15.2513 36.9112 15.0497 36.9112 14.8442C36.9112 14.6388 36.8276 14.4372 36.6816 14.2919Z" fill="#FF4444"/>
<path d="M39.7714 0.228828C39.6249 0.0823437 39.4261 0 39.2189 0L20.0006 0.00101562C19.5692 0.00101562 19.2194 0.350859 19.2194 0.782266V3.01641L11.814 5.0007C11.3972 5.11242 11.1499 5.54078 11.2616 5.9575L15.0996 20.2811L11.7794 23.6013C11.3568 22.9843 10.6473 22.5785 9.84472 22.5785H2.34495C1.05261 22.5785 0.00128174 23.6299 0.00128174 24.9222V37.6562C0.00128174 38.9486 1.05261 40 2.34495 40H9.8448C10.9427 40 11.8663 39.2409 12.1194 38.2203L13.0483 39.0304C13.7654 39.6557 14.6842 40.0001 15.6357 40.0001H39.219C39.6504 40.0001 40.0003 39.6502 40.0003 39.2188V0.78125C40.0001 0.574063 39.9179 0.375313 39.7714 0.228828ZM10.6259 37.6563C10.6259 38.087 10.2754 38.4376 9.84464 38.4376H2.34488C1.91409 38.4376 1.56363 38.0871 1.56363 37.6563V24.9223C1.56363 24.4915 1.91409 24.141 2.34488 24.141H5.31355V33.1406C5.31355 33.572 5.66339 33.9219 6.0948 33.9219C6.5262 33.9219 6.87605 33.572 6.87605 33.1406V24.141H9.84472C10.2755 24.141 10.626 24.4915 10.626 24.9223V37.6563H10.6259ZM12.973 6.30773L19.2194 4.63398V7.52891L18.6958 7.66922C18.4956 7.72289 18.325 7.85375 18.2214 8.0332C18.1178 8.21266 18.0897 8.42586 18.1434 8.62602C18.4436 9.74641 17.7764 10.9021 16.656 11.2023C16.4556 11.2561 16.2847 11.3872 16.1812 11.567C16.0777 11.7468 16.0498 11.9604 16.1039 12.1607L19.1492 23.4371H17.5812L16.7732 20.2759C16.7475 20.1752 16.7025 20.0825 16.6422 20.0019L12.973 6.30773ZM19.2194 11.1116V17.7039L17.7945 12.4277C18.3897 12.1204 18.8768 11.6605 19.2194 11.1116ZM30.4432 38.4375H15.6355C15.0617 38.4375 14.5075 38.2298 14.075 37.8527L12.1884 36.2073V25.4021L15.5992 21.9913L16.2178 24.4116C16.3062 24.7575 16.6177 24.9994 16.9746 24.9994L32.3343 25.0003C32.9375 25.0003 33.4281 25.4909 33.4281 26.0941C33.4281 26.6972 32.9375 27.1878 32.3343 27.1878H24.464C24.0326 27.1878 23.6828 27.5377 23.6828 27.9691C23.6828 28.4005 24.0326 28.7503 24.464 28.7503H34.7796C35.3828 28.7503 35.8734 29.2409 35.8734 29.8441C35.8734 30.4472 35.3828 30.9378 34.7796 30.9378H24.464C24.0326 30.9378 23.6828 31.2877 23.6828 31.7191C23.6828 32.1505 24.0326 32.5003 24.464 32.5003H33.108C33.7111 32.5003 34.2018 32.9909 34.2018 33.5941C34.2018 34.1972 33.7111 34.6878 33.108 34.6878H24.464C24.0326 34.6878 23.6828 35.0377 23.6828 35.4691C23.6828 35.9005 24.0326 36.2503 24.464 36.2503H30.4432C31.0463 36.2503 31.5369 36.7409 31.5369 37.3441C31.5368 37.9469 31.0462 38.4375 30.4432 38.4375ZM38.4378 38.4375H38.4377H32.8628C33.0143 38.1037 33.0993 37.7336 33.0993 37.3438C33.0993 36.9539 33.0143 36.5838 32.8628 36.25H33.108C34.5726 36.25 35.7642 35.0584 35.7642 33.5938C35.7642 33.1666 35.6622 32.763 35.4822 32.405C36.6069 32.0961 37.4357 31.0652 37.4357 29.8439C37.4357 29.2514 37.2406 28.7037 36.9114 28.2615V18.3599C36.9114 17.9285 36.5616 17.5787 36.1302 17.5787C35.6988 17.5787 35.3489 17.9285 35.3489 18.3599V27.2499C35.1653 27.2097 34.975 27.1878 34.7795 27.1878H34.7539C34.9053 26.854 34.9904 26.4839 34.9904 26.0941C34.9904 24.6294 33.7989 23.4379 32.3343 23.4379H31.0784C32.4119 22.866 33.3485 21.5405 33.3485 20C33.3485 17.9384 31.6713 16.2611 29.6096 16.2611C27.5481 16.2611 25.8708 17.9384 25.8708 20C25.8708 21.5405 26.8075 22.866 28.1409 23.4379H23.8703V8.58305C25.266 8.27891 26.3672 7.17773 26.6713 5.78203H32.5479C32.852 7.17773 33.9532 8.27891 35.3489 8.58305V11.012C35.3489 11.4434 35.6987 11.7932 36.1301 11.7932C36.5615 11.7932 36.9114 11.4434 36.9114 11.012V7.88555C36.9114 7.45414 36.5615 7.1043 36.1301 7.1043C34.9702 7.1043 34.0267 6.16062 34.0267 5.00078C34.0267 4.56938 33.6768 4.21953 33.2454 4.21953H25.9739C25.5425 4.21953 25.1926 4.56938 25.1926 5.00078C25.1926 6.1607 24.249 7.1043 23.0892 7.1043C22.6578 7.1043 22.3079 7.45414 22.3079 7.88555V23.4378H20.782V1.56336L38.4378 1.5625V38.4375ZM29.6098 22.1764C28.4097 22.1764 27.4335 21.2001 27.4335 20.0001C27.4335 18.8001 28.4098 17.8237 29.6098 17.8237C30.8098 17.8237 31.7861 18.8 31.7861 20C31.7861 21.2 30.8099 22.1764 29.6098 22.1764Z" fill="#3E3E3E"/>
<path d="M5.31354 33.1407V24.1411H6.87604V33.1407C6.87604 33.5721 6.52619 33.922 6.09479 33.922C5.66338 33.922 5.31354 33.5721 5.31354 33.1407Z" fill="#FF4444"/>
</g>
<defs>
<clipPath id="clip0">
<rect width="40" height="40" fill="white"/>
</clipPath>
</defs>
</svg>
