<svg width="106" height="106" viewBox="0 0 106 106" fill="none" xmlns="http://www.w3.org/2000/svg">
<circle cx="53" cy="53" r="53" fill="#F3F3F3"/>
<path d="M66.593 73.0622H66.743H66.593ZM66.593 73.0622V73.2122M66.593 73.0622V73.2122M66.593 73.2122V74.9032V74.9032M66.593 73.2122V74.9032M73.0214 72.5517V72.7923V74.9032C73.0214 76.0008 72.0869 76.8803 70.9988 76.8803H68.5248C67.4534 76.8803 66.593 76.0061 66.593 74.9372L73.0214 72.5517ZM73.0214 72.5517L72.8054 72.6576M73.0214 72.5517L72.8054 72.6576M72.8054 72.6576C72.249 72.9303 71.6251 73.0622 70.9988 73.0622L72.8054 72.6576ZM33.0007 61.7499V61.7482V61.7499ZM33.0007 61.7499V69.1266V61.7499ZM35.6829 57.8549H35.7382H70.7945H70.8542L70.8975 57.8958L71.9189 58.8604L71.9192 58.8607L35.6829 57.8549ZM35.6829 57.8549L35.6409 57.8908M35.6829 57.8549L35.6409 57.8908M35.6409 57.8908L34.245 59.0824L35.6409 57.8908ZM66.593 74.9032V74.9033M66.593 74.9032V74.9033M66.593 74.9033V74.9034M66.593 74.9033V74.9034M66.593 74.9034V74.9034M66.593 74.9034V74.9034M66.593 74.9034V74.9035M66.593 74.9034V74.9035M66.593 74.9035V74.9036M66.593 74.9035V74.9036M66.593 74.9036V74.9036M66.593 74.9036V74.9036M66.593 74.9036V74.9037M66.593 74.9036V74.9037M66.593 74.9037V74.9038M66.593 74.9037V74.9038M66.593 74.9038V74.9038M66.593 74.9038V74.9038M66.593 74.9038V74.9039M66.593 74.9038V74.9039M66.593 74.9039V74.904M66.593 74.9039V74.904M66.593 74.904V74.904M66.593 74.904V74.904M66.593 74.904V74.9041M66.593 74.904V74.9041M66.593 74.9041V74.9042M66.593 74.9041V74.9042M66.593 74.9042V74.9042M66.593 74.9042V74.9042M66.593 74.9042V74.9043M66.593 74.9042V74.9043M66.593 74.9043V74.9044M66.593 74.9043V74.9044M66.593 74.9044V74.9044M66.593 74.9044V74.9044M66.593 74.9044V74.9045M66.593 74.9044V74.9045M66.593 74.9045V74.9046M66.593 74.9045V74.9046M66.593 74.9046V74.9046M66.593 74.9046V74.9046M66.593 74.9046V74.9047M66.593 74.9046V74.9047M66.593 74.9047V74.9048M66.593 74.9047V74.9048M66.593 74.9048V74.9048M66.593 74.9048V74.9048M66.593 74.9048V74.9049M66.593 74.9048V74.9049M66.593 74.9049V74.9049M66.593 74.9049V74.9049M66.593 74.9049V74.905M66.593 74.9049V74.905M66.593 74.905V74.9051M66.593 74.905V74.9051M66.593 74.9051V74.9051M66.593 74.9051V74.9051M66.593 74.9051V74.9052M66.593 74.9051V74.9052M66.593 74.9052V74.9053M66.593 74.9052V74.9053M66.593 74.9053V74.9053M66.593 74.9053V74.9053M66.593 74.9053V74.9054M66.593 74.9053V74.9054M66.593 74.9054V74.9055M66.593 74.9054V74.9055M66.593 74.9055V74.9055M66.593 74.9055V74.9055M66.593 74.9055V74.9056M66.593 74.9055V74.9056M66.593 74.9056V74.9057M66.593 74.9056V74.9057M66.593 74.9057V74.9057M66.593 74.9057V74.9057M66.593 74.9057V74.9058M66.593 74.9057V74.9058M66.593 74.9058V74.9059M66.593 74.9058V74.9059M66.593 74.9059V74.9059M66.593 74.9059V74.9059M66.593 74.9059V74.906M66.593 74.9059V74.906M66.593 74.906V74.9061M66.593 74.906V74.9061M66.593 74.9061V74.9061M66.593 74.9061V74.9061M66.593 74.9061V74.9062M66.593 74.9061V74.9062M66.593 74.9062V74.9063M66.593 74.9062V74.9063M66.593 74.9063V74.9063M66.593 74.9063V74.9063M66.593 74.9063V74.9064M66.593 74.9063V74.9064M66.593 74.9064V74.9065M66.593 74.9064V74.9065M66.593 74.9065V74.9065M66.593 74.9065V74.9065M66.593 74.9065V74.9066M66.593 74.9065V74.9066M66.593 74.9066V74.9067M66.593 74.9066V74.9067M66.593 74.9067V74.9067M66.593 74.9067V74.9067M66.593 74.9067V74.9068M66.593 74.9067V74.9068M66.593 74.9068V74.9069M66.593 74.9068V74.9069M66.593 74.9069V74.9069M66.593 74.9069V74.9069M66.593 74.9069V74.907M66.593 74.9069V74.907M66.593 74.907V74.9071M66.593 74.907V74.9071M66.593 74.9071V74.9071M66.593 74.9071V74.9071M66.593 74.9071V74.9072M66.593 74.9071V74.9072M66.593 74.9072V74.9073M66.593 74.9072V74.9073M66.593 74.9073V74.9073M66.593 74.9073V74.9073M66.593 74.9073V74.9074M66.593 74.9073V74.9074M66.593 74.9074V74.9075M66.593 74.9074V74.9075M66.593 74.9075V74.9075M66.593 74.9075V74.9075M66.593 74.9075V74.9076M66.593 74.9075V74.9076M66.593 74.9076V74.9077M66.593 74.9076V74.9077M66.593 74.9077V74.9077M66.593 74.9077V74.9077M66.593 74.9077V74.9078M66.593 74.9077V74.9078M66.593 74.9078V74.9079M66.593 74.9078V74.9079M66.593 74.9079V74.9079M66.593 74.9079V74.9079M66.593 74.9079V74.908M66.593 74.9079V74.908M66.593 74.908V74.9081M66.593 74.908V74.9081M66.593 74.9081V74.9081M66.593 74.9081V74.9081M66.593 74.9081V74.9082M66.593 74.9081V74.9082M66.593 74.9082V74.9083M66.593 74.9082V74.9083M66.593 74.9083V74.9083M66.593 74.9083V74.9083M66.593 74.9083V74.9084M66.593 74.9083V74.9084M66.593 74.9084V74.9085M66.593 74.9084V74.9085M66.593 74.9085V74.9085M66.593 74.9085V74.9085M66.593 74.9085V74.9086M66.593 74.9085V74.9086M66.593 74.9086V74.9087M66.593 74.9086V74.9087M66.593 74.9087V74.9087M66.593 74.9087V74.9087M66.593 74.9087V74.9088M66.593 74.9087V74.9088M66.593 74.9088V74.9089M66.593 74.9088V74.9089M66.593 74.9089V74.9089M66.593 74.9089V74.9089M66.593 74.9089V74.909M66.593 74.9089V74.909M66.593 74.909V74.9091M66.593 74.909V74.9091M66.593 74.9091V74.9091M66.593 74.9091V74.9091M66.593 74.9091V74.9092M66.593 74.9091V74.9092M66.593 74.9092V74.9093M66.593 74.9092V74.9093M66.593 74.9093V74.9093M66.593 74.9093V74.9093M66.593 74.9093V74.9094M66.593 74.9093V74.9094M66.593 74.9094V74.9095M66.593 74.9094V74.9095M66.593 74.9095V74.9095M66.593 74.9095V74.9095M66.593 74.9095V74.9096M66.593 74.9095V74.9096M66.593 74.9096V74.9097M66.593 74.9096V74.9097M66.593 74.9097V74.9097M66.593 74.9097V74.9097M66.593 74.9097V74.9098M66.593 74.9097V74.9098M66.593 74.9098V74.9099M66.593 74.9098V74.9099M66.593 74.9099V74.9099M66.593 74.9099V74.9099M66.593 74.9099V74.91M66.593 74.9099V74.91M66.593 74.91V74.9101M66.593 74.91V74.9101M66.593 74.9101V74.9101M66.593 74.9101V74.9101M66.593 74.9101V74.9102M66.593 74.9101V74.9102M66.593 74.9102V74.9103M66.593 74.9102V74.9103M66.593 74.9103V74.9103M66.593 74.9103V74.9103M66.593 74.9103V74.9104M66.593 74.9103V74.9104M66.593 74.9104V74.9105M66.593 74.9104V74.9105M66.593 74.9105V74.9105M66.593 74.9105V74.9105M66.593 74.9105V74.9106M66.593 74.9105V74.9106M66.593 74.9106V74.9107M66.593 74.9106V74.9107M66.593 74.9107V74.9107M66.593 74.9107V74.9107M66.593 74.9107V74.9108M66.593 74.9107V74.9108M66.593 74.9108V74.9109M66.593 74.9108V74.9109M66.593 74.9109V74.9109M66.593 74.9109V74.9109M66.593 74.9109V74.911M66.593 74.9109V74.911M66.593 74.911V74.9111M66.593 74.911V74.9111M66.593 74.9111V74.9111M66.593 74.9111V74.9111M66.593 74.9111V74.9112M66.593 74.9111V74.9112M66.593 74.9112V74.9113M66.593 74.9112V74.9113M66.593 74.9113V74.9113M66.593 74.9113V74.9113M66.593 74.9113V74.9114M66.593 74.9113V74.9114M66.593 74.9114V74.9115M66.593 74.9114V74.9115M66.593 74.9115V74.9115M66.593 74.9115V74.9115M66.593 74.9115V74.9116M66.593 74.9115V74.9116M66.593 74.9116V74.9117M66.593 74.9116V74.9117M66.593 74.9117V74.9117M66.593 74.9117V74.9117M66.593 74.9117V74.9118M66.593 74.9117V74.9118M66.593 74.9118V74.9119M66.593 74.9118V74.9119M66.593 74.9119V74.9119M66.593 74.9119V74.9119M66.593 74.9119V74.912M66.593 74.9119V74.912M66.593 74.912V74.9121M66.593 74.912V74.9121M66.593 74.9121V74.9121M66.593 74.9121V74.9121M66.593 74.9121V74.9122M66.593 74.9121V74.9122M66.593 74.9122V74.9123M66.593 74.9122V74.9123M66.593 74.9123V74.9123M66.593 74.9123V74.9123M66.593 74.9123V74.9124M66.593 74.9123V74.9124M66.593 74.9124V74.9125M66.593 74.9124V74.9125M66.593 74.9125V74.9125M66.593 74.9125V74.9125M66.593 74.9125V74.9126M66.593 74.9125V74.9126M66.593 74.9126V74.9127M66.593 74.9126V74.9127M66.593 74.9127V74.9127M66.593 74.9127V74.9127M66.593 74.9127V74.9128M66.593 74.9127V74.9128M66.593 74.9128V74.9129M66.593 74.9128V74.9129M66.593 74.9129V74.9129M66.593 74.9129V74.9129M66.593 74.9129V74.913M66.593 74.9129V74.913M66.593 74.913V74.9131M66.593 74.913V74.9131M66.593 74.9131V74.9131M66.593 74.9131V74.9131M66.593 74.9131V74.9132M66.593 74.9131V74.9132M66.593 74.9132V74.9133M66.593 74.9132V74.9133M66.593 74.9133V74.9133M66.593 74.9133V74.9133M66.593 74.9133V74.9134M66.593 74.9133V74.9134M66.593 74.9134V74.9135M66.593 74.9134V74.9135M66.593 74.9135V74.9135M66.593 74.9135V74.9135M66.593 74.9135V74.9136M66.593 74.9135V74.9136M66.593 74.9136V74.9137M66.593 74.9136V74.9137M66.593 74.9137V74.9137M66.593 74.9137V74.9137M66.593 74.9137V74.9138M66.593 74.9137V74.9138M66.593 74.9138V74.9139M66.593 74.9138V74.9139M66.593 74.9139V74.9139M66.593 74.9139V74.9139M66.593 74.9139V74.914M66.593 74.9139V74.914M66.593 74.914V74.9141M66.593 74.914V74.9141M66.593 74.9141V74.9141M66.593 74.9141V74.9141M66.593 74.9141V74.9142M66.593 74.9141V74.9142M66.593 74.9142V74.9143M66.593 74.9142V74.9143M66.593 74.9143V74.9143M66.593 74.9143V74.9143M66.593 74.9143V74.9144M66.593 74.9143V74.9144M66.593 74.9144V74.9145M66.593 74.9144V74.9145M66.593 74.9145V74.9145M66.593 74.9145V74.9145M66.593 74.9145V74.9146M66.593 74.9145V74.9146M66.593 74.9146V74.9147M66.593 74.9146V74.9147M66.593 74.9147V74.9147M66.593 74.9147V74.9147M66.593 74.9147V74.9148M66.593 74.9147V74.9148M66.593 74.9148V74.9149M66.593 74.9148V74.9149M66.593 74.9149V74.9149M66.593 74.9149V74.9149M66.593 74.9149V74.915M66.593 74.9149V74.915M66.593 74.915V74.9151M66.593 74.915V74.9151M66.593 74.9151V74.9151M66.593 74.9151V74.9151M66.593 74.9151V74.9152M66.593 74.9151V74.9152M66.593 74.9152V74.9153M66.593 74.9152V74.9153M66.593 74.9153V74.9153M66.593 74.9153V74.9153M66.593 74.9153V74.9154M66.593 74.9153V74.9154M66.593 74.9154V74.9155M66.593 74.9154V74.9155M66.593 74.9155V74.9155M66.593 74.9155V74.9155M66.593 74.9155V74.9156M66.593 74.9155V74.9156M66.593 74.9156V74.9157M66.593 74.9156V74.9157M66.593 74.9157V74.9157M66.593 74.9157V74.9157M66.593 74.9157V74.9158M66.593 74.9157V74.9158M66.593 74.9158V74.9159M66.593 74.9158V74.9159M66.593 74.9159V74.9159M66.593 74.9159V74.9159M66.593 74.9159V74.916M66.593 74.9159V74.916M66.593 74.916V74.9161M66.593 74.916V74.9161M66.593 74.9161V74.9161M66.593 74.9161V74.9161M66.593 74.9161V74.9162M66.593 74.9161V74.9162M66.593 74.9162V74.9163M66.593 74.9162V74.9163M66.593 74.9163V74.9163M66.593 74.9163V74.9163M66.593 74.9163V74.9164M66.593 74.9163V74.9164M66.593 74.9164V74.9165M66.593 74.9164V74.9165M66.593 74.9165V74.9165M66.593 74.9165V74.9165M66.593 74.9165V74.9166M66.593 74.9165V74.9166M66.593 74.9166V74.9167M66.593 74.9166V74.9167M66.593 74.9167V74.9167M66.593 74.9167V74.9167M66.593 74.9167V74.9168M66.593 74.9167V74.9168M66.593 74.9168V74.9169M66.593 74.9168V74.9169M66.593 74.9169V74.9169M66.593 74.9169V74.9169M66.593 74.9169V74.917M66.593 74.9169V74.917M66.593 74.917V74.9171M66.593 74.917V74.9171M66.593 74.9171V74.9171M66.593 74.9171V74.9171M66.593 74.9171V74.9172M66.593 74.9171V74.9172M66.593 74.9172V74.9173M66.593 74.9172V74.9173M66.593 74.9173V74.9173M66.593 74.9173V74.9173M66.593 74.9173V74.9174M66.593 74.9173V74.9174M66.593 74.9174V74.9174M66.593 74.9174V74.9174M66.593 74.9174V74.9175M66.593 74.9174V74.9175M66.593 74.9175V74.9176M66.593 74.9175V74.9176M66.593 74.9176V74.9177M66.593 74.9176V74.9177M66.593 74.9177V74.9177M66.593 74.9177V74.9177M66.593 74.9177V74.9178M66.593 74.9177V74.9178M66.593 74.9178V74.9178M66.593 74.9178V74.9178M66.593 74.9178V74.9179M66.593 74.9178V74.9179M66.593 74.9179V74.918M66.593 74.9179V74.918M66.593 74.918V74.918M66.593 74.918V74.918M66.593 74.918V74.9181M66.593 74.918V74.9181M66.593 74.9181V74.9182M66.593 74.9181V74.9182M66.593 74.9182V74.9182M66.593 74.9182V74.9182M66.593 74.9182V74.9183M66.593 74.9182V74.9183M66.593 74.9183V74.9184M66.593 74.9183V74.9184M66.593 74.9184V74.9184M66.593 74.9184V74.9184M66.593 74.9184V74.9185M66.593 74.9184V74.9185M66.593 74.9185V74.9186M66.593 74.9185V74.9186M66.593 74.9186V74.9186M66.593 74.9186V74.9186M66.593 74.9186V74.9187M66.593 74.9186V74.9187M66.593 74.9187V74.9188M66.593 74.9187V74.9188M66.593 74.9188V74.9188M66.593 74.9188V74.9188M66.593 74.9188V74.9189M66.593 74.9188V74.9189M66.593 74.9189V74.919M66.593 74.9189V74.919M66.593 74.919V74.919M66.593 74.919V74.919M66.593 74.919V74.9191M66.593 74.919V74.9191M66.593 74.9191V74.9192M66.593 74.9191V74.9192M66.593 74.9192V74.9192M66.593 74.9192V74.9192M66.593 74.9192V74.9193M66.593 74.9192V74.9193M66.593 74.9193V74.9194M66.593 74.9193V74.9194M66.593 74.9194V74.9194M66.593 74.9194V74.9194M66.593 74.9194V74.9195M66.593 74.9194V74.9195M66.593 74.9195V74.9196M66.593 74.9195V74.9196M66.593 74.9196V74.9196M66.593 74.9196V74.9196M66.593 74.9196V74.9197M66.593 74.9196V74.9197M66.593 74.9197V74.9198M66.593 74.9197V74.9198M66.593 74.9198V74.9198M66.593 74.9198V74.9198M66.593 74.9198V74.9199M66.593 74.9198V74.9199M66.593 74.9199V74.92M66.593 74.9199V74.92M66.593 74.92V74.92M66.593 74.92V74.92M66.593 74.92V74.9201M66.593 74.92V74.9201M66.593 74.9201V74.9202M66.593 74.9201V74.9202M66.593 74.9202V74.9202M66.593 74.9202V74.9202M66.593 74.9202V74.9203M66.593 74.9202V74.9203M66.593 74.9203V74.9204M66.593 74.9203V74.9204M66.593 74.9204V74.9204M66.593 74.9204V74.9204M66.593 74.9204V74.9205M66.593 74.9204V74.9205M66.593 74.9205V74.9206M66.593 74.9205V74.9206M66.593 74.9206V74.9206M66.593 74.9206V74.9206M66.593 74.9206V74.9207M66.593 74.9206V74.9207M66.593 74.9207V74.9208M66.593 74.9207V74.9208M66.593 74.9208V74.9208M66.593 74.9208V74.9208M66.593 74.9208V74.9209M66.593 74.9208V74.9209M66.593 74.9209V74.921M66.593 74.9209V74.921M66.593 74.921V74.921M66.593 74.921V74.921M66.593 74.921V74.9211M66.593 74.921V74.9211M66.593 74.9211V74.9212M66.593 74.9211V74.9212M66.593 74.9212V74.9212M66.593 74.9212V74.9212M66.593 74.9212V74.9213M66.593 74.9212V74.9213M66.593 74.9213V74.9214M66.593 74.9213V74.9214M66.593 74.9214V74.9214M66.593 74.9214V74.9214M66.593 74.9214V74.9215M66.593 74.9214V74.9215M66.593 74.9215V74.9216M66.593 74.9215V74.9216M66.593 74.9216V74.9216M66.593 74.9216V74.9216M66.593 74.9216V74.9217M66.593 74.9216V74.9217M66.593 74.9217V74.9218M66.593 74.9217V74.9218M66.593 74.9218V74.9218M66.593 74.9218V74.9218M66.593 74.9218V74.9219M66.593 74.9218V74.9219M66.593 74.9219V74.922M66.593 74.9219V74.922M66.593 74.922V74.922M66.593 74.922V74.922M66.593 74.922V74.9221M66.593 74.922V74.9221M66.593 74.9221V74.9222M66.593 74.9221V74.9222M66.593 74.9222V74.9222M66.593 74.9222V74.9222M66.593 74.9222V74.9223M66.593 74.9222V74.9223M66.593 74.9223V74.9224M66.593 74.9223V74.9224M66.593 74.9224V74.9224M66.593 74.9224V74.9224M66.593 74.9224V74.9225M66.593 74.9224V74.9225M66.593 74.9225V74.9226M66.593 74.9225V74.9226M66.593 74.9226V74.9226M66.593 74.9226V74.9226M66.593 74.9226V74.9227M66.593 74.9226V74.9227M66.593 74.9227V74.9228M66.593 74.9227V74.9228M66.593 74.9228V74.9228M66.593 74.9228V74.9228M66.593 74.9228V74.9229M66.593 74.9228V74.9229M66.593 74.9229V74.923M66.593 74.9229V74.923M66.593 74.923V74.923M66.593 74.923V74.923M66.593 74.923V74.9231M66.593 74.923V74.9231M66.593 74.9231V74.9232M66.593 74.9231V74.9232M66.593 74.9232V74.9232M66.593 74.9232V74.9232M66.593 74.9232V74.9233M66.593 74.9232V74.9233M66.593 74.9233V74.9234M66.593 74.9233V74.9234M66.593 74.9234V74.9234M66.593 74.9234V74.9234M66.593 74.9234V74.9235M66.593 74.9234V74.9235M66.593 74.9235V74.9236M66.593 74.9235V74.9236M66.593 74.9236V74.9236M66.593 74.9236V74.9236M66.593 74.9236V74.9237M66.593 74.9236V74.9237M66.593 74.9237V74.9238M66.593 74.9237V74.9238M66.593 74.9238V74.9238M66.593 74.9238V74.9238M66.593 74.9238V74.9239M66.593 74.9238V74.9239M66.593 74.9239V74.924M66.593 74.9239V74.924M66.593 74.924V74.924M66.593 74.924V74.924M66.593 74.924V74.9241M66.593 74.924V74.9241M66.593 74.9241V74.9242M66.593 74.9241V74.9242M66.593 74.9242V74.9242M66.593 74.9242V74.9242M66.593 74.9242V74.9243M66.593 74.9242V74.9243M66.593 74.9243V74.9244M66.593 74.9243V74.9244M66.593 74.9244V74.9244M66.593 74.9244V74.9244M66.593 74.9244V74.9245M66.593 74.9244V74.9245M66.593 74.9245V74.9246M66.593 74.9245V74.9246M66.593 74.9246V74.9246M66.593 74.9246V74.9246M66.593 74.9246V74.9247M66.593 74.9246V74.9247M66.593 74.9247V74.9248M66.593 74.9247V74.9248M66.593 74.9248V74.9248M66.593 74.9248V74.9248M66.593 74.9248V74.9249M66.593 74.9248V74.9249M66.593 74.9249V74.925M66.593 74.9249V74.925M66.593 74.925V74.925M66.593 74.925V74.925M66.593 74.925V74.9251M66.593 74.925V74.9251M66.593 74.9251V74.9252M66.593 74.9251V74.9252M66.593 74.9252V74.9252M66.593 74.9252V74.9252M66.593 74.9252V74.9253M66.593 74.9252V74.9253M66.593 74.9253V74.9254M66.593 74.9253V74.9254M66.593 74.9254V74.9254M66.593 74.9254V74.9254M66.593 74.9254V74.9255M66.593 74.9254V74.9255M66.593 74.9255V74.9256M66.593 74.9255V74.9256M66.593 74.9256V74.9256M66.593 74.9256V74.9256M66.593 74.9256V74.9257M66.593 74.9256V74.9257M66.593 74.9257V74.9258M66.593 74.9257V74.9258M66.593 74.9258V74.9258M66.593 74.9258V74.9258M66.593 74.9258V74.9259M66.593 74.9258V74.9259M66.593 74.9259V74.926M66.593 74.9259V74.926M66.593 74.926V74.926M66.593 74.926V74.926M66.593 74.926V74.9261M66.593 74.926V74.9261M66.593 74.9261V74.9262M66.593 74.9261V74.9262M66.593 74.9262V74.9262M66.593 74.9262V74.9262M66.593 74.9262V74.9263M66.593 74.9262V74.9263M66.593 74.9263V74.9264M66.593 74.9263V74.9264M66.593 74.9264V74.9264M66.593 74.9264V74.9264M66.593 74.9264V74.9265M66.593 74.9264V74.9265M66.593 74.9265V74.9266M66.593 74.9265V74.9266M66.593 74.9266V74.9266M66.593 74.9266V74.9266M66.593 74.9266V74.9267M66.593 74.9266V74.9267M66.593 74.9267V74.9268M66.593 74.9267V74.9268M66.593 74.9268V74.9268M66.593 74.9268V74.9268M66.593 74.9268V74.9269M66.593 74.9268V74.9269M66.593 74.9269V74.927M66.593 74.9269V74.927M66.593 74.927V74.927M66.593 74.927V74.927M66.593 74.927V74.9271M66.593 74.927V74.9271M66.593 74.9271V74.9272M66.593 74.9271V74.9272M66.593 74.9272V74.9272M66.593 74.9272V74.9272M66.593 74.9272V74.9273M66.593 74.9272V74.9273M66.593 74.9273V74.9274M66.593 74.9273V74.9274M66.593 74.9274V74.9274M66.593 74.9274V74.9274M66.593 74.9274V74.9275M66.593 74.9274V74.9275M66.593 74.9275V74.9276M66.593 74.9275V74.9276M66.593 74.9276V74.9276M66.593 74.9276V74.9276M66.593 74.9276V74.9277M66.593 74.9276V74.9277M66.593 74.9277V74.9278M66.593 74.9277V74.9278M66.593 74.9278V74.9278M66.593 74.9278V74.9278M66.593 74.9278V74.9279M66.593 74.9278V74.9279M66.593 74.9279V74.928M66.593 74.9279V74.928M66.593 74.928V74.928M66.593 74.928V74.928M66.593 74.928V74.9281M66.593 74.928V74.9281M66.593 74.9281V74.9282M66.593 74.9281V74.9282M66.593 74.9282V74.9282M66.593 74.9282V74.9282M66.593 74.9282V74.9283M66.593 74.9282V74.9283M66.593 74.9283V74.9284M66.593 74.9283V74.9284M66.593 74.9284V74.9284M66.593 74.9284V74.9284M66.593 74.9284V74.9285M66.593 74.9284V74.9285M66.593 74.9285V74.9286M66.593 74.9285V74.9286M66.593 74.9286V74.9286M66.593 74.9286V74.9286M66.593 74.9286V74.9287M66.593 74.9286V74.9287M66.593 74.9287V74.9288M66.593 74.9287V74.9288M66.593 74.9288V74.9288M66.593 74.9288V74.9288M66.593 74.9288V74.9289M66.593 74.9288V74.9289M66.593 74.9289V74.929M66.593 74.9289V74.929M66.593 74.929V74.929M66.593 74.929V74.929M66.593 74.929V74.9291M66.593 74.929V74.9291M66.593 74.9291V74.9292M66.593 74.9291V74.9292M66.593 74.9292V74.9292M66.593 74.9292V74.9292M66.593 74.9292V74.9293M66.593 74.9292V74.9293M66.593 74.9293V74.9294M66.593 74.9293V74.9294M66.593 74.9294V74.9294M66.593 74.9294V74.9294M66.593 74.9294V74.9295M66.593 74.9294V74.9295M66.593 74.9295V74.9296M66.593 74.9295V74.9296M66.593 74.9296V74.9296M66.593 74.9296V74.9296M66.593 74.9296V74.9297M66.593 74.9296V74.9297M66.593 74.9297V74.9298M66.593 74.9297V74.9298M66.593 74.9298V74.9298M66.593 74.9298V74.9298M66.593 74.9298V74.9299M66.593 74.9298V74.9299M66.593 74.9299V74.93M66.593 74.9299V74.93M66.593 74.93V74.93M66.593 74.93V74.93M66.593 74.93V74.9301M66.593 74.93V74.9301M66.593 74.9301V74.9302M66.593 74.9301V74.9302M66.593 74.9302V74.9302M66.593 74.9302V74.9302M66.593 74.9302V74.9303M66.593 74.9302V74.9303M66.593 74.9303V74.9303M66.593 74.9303V74.9303M66.593 74.9303V74.9304M66.593 74.9303V74.9304M66.593 74.9304V74.9305M66.593 74.9304V74.9305M66.593 74.9305V74.9305M66.593 74.9305V74.9305M66.593 74.9305V74.9306M66.593 74.9305V74.9306M66.593 74.9306V74.9307M66.593 74.9306V74.9307M66.593 74.9307V74.9307M66.593 74.9307V74.9307M66.593 74.9307V74.9308M66.593 74.9307V74.9308M66.593 74.9308V74.9309M66.593 74.9308V74.9309M66.593 74.9309V74.9309M66.593 74.9309V74.9309M66.593 74.9309V74.931M66.593 74.9309V74.931M66.593 74.931V74.9311M66.593 74.931V74.9311M66.593 74.9311V74.9311M66.593 74.9311V74.9311M66.593 74.9311V74.9312M66.593 74.9311V74.9312M66.593 74.9312V74.9313M66.593 74.9312V74.9313M66.593 74.9313V74.9313M66.593 74.9313V74.9313M66.593 74.9313V74.9314M66.593 74.9313V74.9314M66.593 74.9314V74.9315M66.593 74.9314V74.9315M66.593 74.9315V74.9315M66.593 74.9315V74.9315M66.593 74.9315V74.9316M66.593 74.9315V74.9316M66.593 74.9316V74.9317M66.593 74.9316V74.9317M66.593 74.9317V74.9317M66.593 74.9317V74.9317M66.593 74.9317V74.9318M66.593 74.9317V74.9318M66.593 74.9318V74.9319M66.593 74.9318V74.9319M66.593 74.9319V74.9319M66.593 74.9319V74.9319M66.593 74.9319V74.932M66.593 74.9319V74.932M66.593 74.932V74.9321M66.593 74.932V74.9321M66.593 74.9321V74.9321M66.593 74.9321V74.9321M66.593 74.9321V74.9322M66.593 74.9321V74.9322M66.593 74.9322V74.9323M66.593 74.9322V74.9323M66.593 74.9323V74.9323M66.593 74.9323V74.9323M66.593 74.9323V74.9324M66.593 74.9323V74.9324M66.593 74.9324V74.9325M66.593 74.9324V74.9325M66.593 74.9325V74.9325M66.593 74.9325V74.9325M66.593 74.9325V74.9326M66.593 74.9325V74.9326M66.593 74.9326V74.9327M66.593 74.9326V74.9327M66.593 74.9327V74.9327M66.593 74.9327V74.9327M66.593 74.9327V74.9328M66.593 74.9327V74.9328M66.593 74.9328V74.9329M66.593 74.9328V74.9329M66.593 74.9329V74.9329M66.593 74.9329V74.9329M66.593 74.9329V74.933M66.593 74.9329V74.933M66.593 74.933V74.9331V74.933ZM72.3789 56.6124L72.3809 56.6143V56.6288L72.4286 56.6733L73.268 57.456C74.3615 58.4831 74.9798 59.9076 74.9798 61.4095V74.9032C74.9798 77.0766 73.1652 78.8501 70.9875 78.8501H68.5135H68.5134H68.5134H68.5134H68.5133H68.5133H68.5133H68.5132H68.5132H68.5132H68.5131H68.5131H68.513H68.513H68.513H68.5129H68.5129H68.5129H68.5128H68.5128H68.5128H68.5127H68.5127H68.5127H68.5126H68.5126H68.5125H68.5125H68.5125H68.5124H68.5124H68.5123H68.5123H68.5122H68.5122H68.5121H68.5121H68.512H68.512H68.5119H68.5119H68.5118H68.5118H68.5117H68.5117H68.5116H68.5116H68.5115H68.5115H68.5114H68.5114H68.5114H68.5113H68.5113H68.5113H68.5112H68.5112H68.5112H68.5111H68.5111H68.5111H68.511H68.511H68.511H68.5109H68.5109H68.5109H68.5108H68.5108H68.5108H68.5107H68.5107H68.5107H68.5106H68.5106H68.5106H68.5105H68.5105H68.5105H68.5104H68.5104H68.5104H68.5103H68.5103H68.5103H68.5102H68.5102H68.5102H68.5101H68.5101H68.51H68.51H68.51H68.5099H68.5099H68.5098H68.5098H68.5098H68.5097H68.5097H68.5097H68.5096H68.5096H68.5095H68.5095H68.5095H68.5094H68.5094H68.5093H68.5093H68.5093H68.5092H68.5092H68.5091H68.5091H68.5091H68.509H68.509H68.5089H68.5089H68.5088H68.5088H68.5088H68.5087H68.5087H68.5086H68.5086H68.5085H68.5085H68.5085H68.5084H68.5084H68.5083H68.5083H68.5082H68.5082H68.5082H68.5081H68.5081H68.508H68.508H68.5079H68.5079H68.5078H68.5078H68.5077H68.5077H68.5077H68.5076H68.5076H68.5075H68.5075H68.5074H68.5074H68.5073H68.5073H68.5072H68.5072H68.5071H68.5071H68.507H68.507H68.5069H68.5069H68.5069H68.5068H68.5068H68.5067H68.5067H68.5066H68.5066H68.5065H68.5065H68.5064H68.5064H68.5063H68.5063H68.5062H68.5062H68.5061H68.5061H68.506H68.506H68.5059H68.5059H68.5058H68.5057H68.5057H68.5056H68.5056H68.5055H68.5055H68.5054H68.5054H68.5053H68.5053H68.5052H68.5052H68.5051H68.5051H68.505H68.505H68.5049H68.5049H68.5048H68.5048H68.5047H68.5046H68.5046H68.5045H68.5045H68.5044H68.5044H68.5043H68.5043H68.5042H68.5042H68.5041H68.504H68.504H68.5039H68.5039H68.5038H68.5038H68.5037H68.5037H68.5036H68.5035H68.5035H68.5034H68.5034H68.5033H68.5033H68.5032H68.5032H68.5031H68.503H68.503H68.5029H68.5029H68.5028H68.5028H68.5027H68.5026H68.5026H68.5025H68.5025H68.5024H68.5023H68.5023H68.5022H68.5022H68.5021H68.5021H68.502H68.5019H68.5019H68.5018H68.5018H68.5017H68.5016H68.5016H68.5015H68.5015H68.5014H68.5013H68.5013H68.5012H68.5012H68.5011H68.501H68.501H68.5009H68.5009H68.5008H68.5007H68.5007H68.5006H68.5006H68.5005H68.5004H68.5004H68.5003H68.5003H68.5002H68.5001H68.5001H68.5H68.5H68.4999H68.4998H68.4998H68.4997H68.4996H68.4996H68.4995H68.4995H68.4994H68.4993H68.4993H68.4992H68.4991H68.4991H68.499H68.499H68.4989H68.4988H68.4988H68.4987H68.4986H68.4986H68.4985H68.4985H68.4984H68.4983H68.4983H68.4982H68.4981H68.4981H68.498H68.498H68.4979H68.4978H68.4978H68.4977H68.4976H68.4976H68.4975H68.4974H68.4974H68.4973H68.4973H68.4972H68.4971H68.4971H68.497H68.4969H68.4969H68.4968H68.4967H68.4967H68.4966H68.4965H68.4965H68.4964H68.4964H68.4963H68.4962H68.4962H68.4961H68.496H68.496H68.4959H68.4958H68.4958H68.4957H68.4956H68.4956H68.4955H68.4954H68.4954H68.4953H68.4952H68.4952H68.4951H68.4951H68.495H68.4949H68.4949H68.4948H68.4947H68.4947H68.4946H68.4945H68.4945H68.4944H68.4943H68.4943H68.4942H68.4941H68.4941H68.494H68.4939H68.4939H68.4938H68.4937H68.4937H68.4936H68.4935H68.4935H68.4934H68.4933H68.4933H68.4932H68.4931H68.4931H68.493H68.4929H68.4929H68.4928H68.4927H68.4927H68.4926H68.4925H68.4925H68.4924H68.4923H68.4923H68.4922H68.4921H68.4921H68.492H68.492H68.4919H68.4918H68.4917H68.4917H68.4916H68.4916H68.4915C66.327 78.8278 64.5901 77.068 64.6119 74.9047V74.9032V73.2122V73.0622H64.4619H41.5375H41.3875V73.2122V74.9145V74.9145V74.9145V74.9146V74.9146V74.9146V74.9146V74.9146V74.9146V74.9147V74.9147V74.9147V74.9147V74.9147V74.9148V74.9148V74.9148V74.9148V74.9149V74.9149V74.9149V74.9149V74.915V74.915V74.915V74.915V74.915V74.915V74.9151V74.9151V74.9151V74.9151V74.9151V74.9151V74.9152V74.9152V74.9152V74.9152V74.9152V74.9153V74.9153V74.9153V74.9153V74.9153V74.9153V74.9154V74.9154V74.9154V74.9154V74.9154V74.9155V74.9155V74.9155V74.9155V74.9156V74.9156V74.9156V74.9156V74.9156V74.9157V74.9157V74.9157V74.9157V74.9158V74.9158V74.9158V74.9158V74.9159V74.9159V74.9159V74.9159V74.916V74.916V74.916V74.916V74.9161V74.9161V74.9161V74.9161V74.9162V74.9162V74.9162V74.9163V74.9163V74.9163V74.9163V74.9164V74.9164V74.9164V74.9165V74.9165V74.9165V74.9165V74.9166V74.9166V74.9166V74.9167V74.9167V74.9167V74.9168V74.9168V74.9168V74.9168V74.9169V74.9169V74.9169V74.917V74.917V74.917V74.9171V74.9171V74.9171V74.9172V74.9172V74.9172V74.9173V74.9173V74.9173V74.9174V74.9174V74.9174V74.9175V74.9175V74.9176V74.9176V74.9176V74.9177V74.9177V74.9177V74.9178V74.9178V74.9178V74.9179V74.9179V74.9179V74.918V74.918V74.9181V74.9181V74.9181V74.9182V74.9182V74.9183V74.9183V74.9183V74.9184V74.9184V74.9184V74.9185V74.9185V74.9186V74.9186V74.9186V74.9187V74.9187V74.9188V74.9188V74.9189V74.9189V74.9189V74.919V74.919V74.9191V74.9191V74.9191V74.9192V74.9192V74.9193V74.9193V74.9194V74.9194V74.9194V74.9195V74.9195V74.9196V74.9196V74.9197V74.9197V74.9198V74.9198V74.9198V74.9199V74.9199V74.92V74.92V74.9201V74.9201V74.9202V74.9202V74.9202V74.9203V74.9203V74.9204V74.9204V74.9205V74.9205V74.9206V74.9206V74.9207V74.9207V74.9208V74.9208V74.9209V74.9209V74.921V74.921V74.9211V74.9211V74.9212V74.9212V74.9212V74.9213V74.9213V74.9214V74.9214V74.9215V74.9215V74.9216V74.9216V74.9217V74.9217V74.9218V74.9218V74.9219V74.9219V74.922V74.922V74.9221V74.9221V74.9222V74.9223V74.9223V74.9224V74.9224V74.9225V74.9225V74.9226V74.9226V74.9227V74.9227V74.9228V74.9228V74.9229V74.9229V74.923V74.923V74.9231V74.9231V74.9232V74.9233V74.9233V74.9234V74.9234V74.9235V74.9235V74.9236V74.9236V74.9237V74.9237V74.9238V74.9239V74.9239V74.924V74.924V74.9241V74.9241V74.9242V74.9242V74.9243V74.9244V74.9244V74.9245V74.9245V74.9246V74.9246V74.9247V74.9247V74.9248V74.9249V74.9249V74.925V74.925V74.9251V74.9251V74.9252V74.9253V74.9253V74.9254V74.9254V74.9255V74.9255V74.9256V74.9257V74.9257V74.9258V74.9258V74.9259V74.926V74.926V74.9261V74.9261V74.9262V74.9263V74.9263V74.9264V74.9264V74.9265V74.9265V74.9266V74.9267V74.9267V74.9268V74.9268V74.9269V74.927V74.927V74.9271V74.9271V74.9272V74.9273V74.9273V74.9274V74.9274V74.9275V74.9276V74.9276V74.9277V74.9278V74.9278V74.9279V74.9279V74.928V74.9281V74.9281V74.9282V74.9282V74.9283V74.9284V74.9284V74.9285V74.9286V74.9286V74.9287V74.9287V74.9288V74.9289V74.9289V74.929V74.9291V74.9291V74.9292V74.9292V74.9293V74.9294V74.9294V74.9295V74.9296V74.9296V74.9297V74.9297V74.9298V74.9299V74.9299V74.93V74.9301V74.9301V74.9302V74.9303V74.9303V74.9304V74.9304V74.9305V74.9306V74.9306V74.9307V74.9308V74.9308V74.9309V74.931V74.931V74.9311V74.9311V74.9312V74.9313V74.9313V74.9314V74.9315V74.9315V74.9316V74.9317V74.9317V74.9318V74.9319V74.9319V74.932V74.9321V74.9321V74.9322V74.9322V74.9323V74.9324V74.9324V74.9325V74.9326V74.9326V74.9327V74.9328V74.9328V74.9329V74.933V74.933V74.9331V74.9332V74.9332V74.9333V74.9334V74.9334V74.9335V74.9336V74.9336V74.9337V74.9338V74.9338V74.9339V74.934V74.934V74.9341V74.9341V74.9342V74.9343V74.9343V74.9344V74.9345V74.9345V74.9346V74.9347V74.9347V74.9348V74.9349V74.9349V74.935V74.9351V74.9351V74.9352V74.9353V74.9353V74.9354V74.9355V74.9355V74.9356V74.9357V74.9357V74.9358V74.9359V74.9359V74.936V74.9361V74.9361V74.9362V74.9363V74.9363V74.9364V74.9365V74.9365V74.9366V74.9367V74.9367V74.9368V74.9369V74.9369V74.937V74.9371V74.9371V74.9372C41.3875 77.0909 39.6493 78.8501 37.486 78.8501H35.0119C32.8342 78.8501 31.0196 77.0766 31.0196 74.9032V61.7391C31.0308 60.1375 31.7377 58.6249 32.963 57.5981C32.9631 57.598 32.9632 57.5979 32.9633 57.5978L34.2339 56.5428L34.2648 56.5171L34.2787 56.4795L37.6264 47.4465C37.6264 47.4464 37.6264 47.4463 37.6265 47.4462C38.2062 45.9045 39.6824 44.8768 41.3332 44.8768H65.2791C66.9298 44.8768 68.406 45.9044 68.9857 47.446C68.9858 47.4462 68.9858 47.4464 68.9859 47.4465L72.3675 56.5816L72.3789 56.6124ZM39.4793 48.1121L39.4789 48.1132L36.6644 55.6828L36.5892 55.8851H36.805H55.0425H55.1686L55.1903 55.7608C55.7116 52.7659 58.3524 50.4037 61.5453 50.4037C64.7385 50.4037 67.3907 52.7662 67.9232 55.7614L67.9452 55.8851H68.0709H69.8072H70.0233L69.9477 55.6826L67.1219 48.113L67.1215 48.1121C66.8271 47.3392 66.0903 46.8347 65.2666 46.8466H41.3343C40.5106 46.8347 39.7738 47.3392 39.4793 48.1121ZM65.7557 55.8851H65.9507L65.9007 55.6967C65.4895 54.1458 64.2796 52.9486 62.731 52.5262L62.7306 52.5261C60.3357 51.8804 57.8586 53.3007 57.2128 55.6961L57.1618 55.8851H57.3576H65.7557ZM37.5313 76.8803L37.5348 76.8803C38.6041 76.8557 39.4527 75.9711 39.4291 74.9014V73.2122V73.0622H39.2791H35.0233C34.3977 73.0622 33.7845 72.9305 33.2157 72.6571L33.0007 72.5537V72.7923V74.9032C33.0007 76.0008 33.9352 76.8803 35.0233 76.8803H37.4973H37.4974H37.4974H37.4975H37.4976H37.4976H37.4977H37.4978H37.4978H37.4979H37.498H37.498H37.4981H37.4982H37.4982H37.4983H37.4984H37.4984H37.4985H37.4986H37.4986H37.4987H37.4988H37.4988H37.4989H37.499H37.499H37.4991H37.4992H37.4992H37.4993H37.4994H37.4994H37.4995H37.4996H37.4996H37.4997H37.4998H37.4998H37.4999H37.5H37.5H37.5001H37.5002H37.5002H37.5003H37.5004H37.5004H37.5005H37.5006H37.5006H37.5007H37.5008H37.5008H37.5009H37.501H37.501H37.5011H37.5012H37.5012H37.5013H37.5014H37.5014H37.5015H37.5016H37.5016H37.5017H37.5018H37.5018H37.5019H37.502H37.502H37.5021H37.5022H37.5022H37.5023H37.5024H37.5024H37.5025H37.5026H37.5026H37.5027H37.5028H37.5028H37.5029H37.503H37.503H37.5031H37.5032H37.5032H37.5033H37.5034H37.5034H37.5035H37.5036H37.5036H37.5037H37.5038H37.5038H37.5039H37.504H37.504H37.5041H37.5042H37.5042H37.5043H37.5044H37.5044H37.5045H37.5046H37.5046H37.5047H37.5048H37.5048H37.5049H37.5049H37.505H37.5051H37.5051H37.5052H37.5053H37.5053H37.5054H37.5055H37.5055H37.5056H37.5057H37.5057H37.5058H37.5059H37.5059H37.506H37.5061H37.5061H37.5062H37.5063H37.5063H37.5064H37.5065H37.5065H37.5066H37.5067H37.5067H37.5068H37.5069H37.5069H37.507H37.5071H37.5071H37.5072H37.5073H37.5073H37.5074H37.5075H37.5075H37.5076H37.5077H37.5077H37.5078H37.5079H37.5079H37.508H37.5081H37.5081H37.5082H37.5083H37.5083H37.5084H37.5085H37.5085H37.5086H37.5087H37.5087H37.5088H37.5089H37.5089H37.509H37.5091H37.5091H37.5092H37.5093H37.5093H37.5094H37.5095H37.5095H37.5096H37.5097H37.5097H37.5098H37.5099H37.5099H37.51H37.5101H37.5101H37.5102H37.5103H37.5103H37.5104H37.5105H37.5105H37.5106H37.5107H37.5107H37.5108H37.5109H37.5109H37.511H37.5111H37.5111H37.5112H37.5113H37.5113H37.5114H37.5115H37.5115H37.5116H37.5117H37.5117H37.5118H37.5119H37.5119H37.512H37.5121H37.5121H37.5122H37.5123H37.5123H37.5124H37.5125H37.5125H37.5126H37.5127H37.5127H37.5128H37.5129H37.5129H37.513H37.5131H37.5131H37.5132H37.5133H37.5133H37.5134H37.5135H37.5135H37.5136H37.5137H37.5137H37.5138H37.5139H37.5139H37.514H37.5141H37.5141H37.5142H37.5143H37.5143H37.5144H37.5145H37.5145H37.5146H37.5147H37.5147H37.5148H37.5149H37.5149H37.515H37.5151H37.5151H37.5152H37.5153H37.5153H37.5154H37.5155H37.5155H37.5156H37.5157H37.5157H37.5158H37.5159H37.5159H37.516H37.5161H37.5161H37.5162H37.5163H37.5163H37.5164H37.5165H37.5165H37.5166H37.5167H37.5167H37.5168H37.5169H37.5169H37.517H37.5171H37.5171H37.5172H37.5173H37.5173H37.5174H37.5175H37.5175H37.5176H37.5177H37.5177H37.5178H37.5179H37.5179H37.518H37.518H37.5181H37.5182H37.5182H37.5183H37.5184H37.5184H37.5185H37.5186H37.5186H37.5187H37.5188H37.5188H37.5189H37.519H37.519H37.5191H37.5192H37.5192H37.5193H37.5194H37.5194H37.5195H37.5196H37.5196H37.5197H37.5198H37.5198H37.5199H37.52H37.52H37.5201H37.5202H37.5202H37.5203H37.5204H37.5204H37.5205H37.5206H37.5206H37.5207H37.5208H37.5208H37.5209H37.521H37.521H37.5211H37.5212H37.5212H37.5213H37.5214H37.5214H37.5215H37.5216H37.5216H37.5217H37.5218H37.5218H37.5219H37.522H37.522H37.5221H37.5222H37.5222H37.5223H37.5224H37.5224H37.5225H37.5226H37.5226H37.5227H37.5228H37.5228H37.5229H37.523H37.523H37.5231H37.5232H37.5232H37.5233H37.5234H37.5234H37.5235H37.5236H37.5236H37.5237H37.5238H37.5238H37.5239H37.524H37.524H37.5241H37.5242H37.5242H37.5243H37.5244H37.5244H37.5245H37.5246H37.5246H37.5247H37.5248H37.5248H37.5249H37.525H37.525H37.5251H37.5252H37.5252H37.5253H37.5254H37.5254H37.5255H37.5256H37.5256H37.5257H37.5258H37.5258H37.5259H37.526H37.526H37.5261H37.5262H37.5262H37.5263H37.5264H37.5264H37.5265H37.5266H37.5266H37.5267H37.5268H37.5268H37.5269H37.527H37.527H37.5271H37.5272H37.5272H37.5273H37.5274H37.5274H37.5275H37.5276H37.5276H37.5277H37.5278H37.5278H37.5279H37.528H37.528H37.5281H37.5282H37.5282H37.5283H37.5284H37.5284H37.5285H37.5286H37.5286H37.5287H37.5288H37.5288H37.5289H37.529H37.529H37.5291H37.5292H37.5292H37.5293H37.5294H37.5294H37.5295H37.5296H37.5296H37.5297H37.5298H37.5298H37.5299H37.53H37.53H37.5301H37.5302H37.5302H37.5303H37.5304H37.5304H37.5305H37.5306H37.5306H37.5307H37.5308H37.5308H37.5309H37.531H37.531H37.5311H37.5311H37.5312H37.5313L37.5313 76.8803Z" fill="#3E3E3E" stroke="#F3F3F3" stroke-width="0.3"/>
<path d="M42.3434 66.4394H42.4934V66.2894V63.6792V63.5292H42.3434H37.5769H37.4269V63.6792V66.2894V66.4394H37.5769H42.3434ZM36.442 61.5594H43.4782C44.0196 61.5594 44.4631 62.003 44.4631 62.5443V67.4243C44.4631 67.9656 44.0196 68.4091 43.4782 68.4091H36.442C35.9007 68.4091 35.4571 67.9656 35.4571 67.4243V62.5443C35.4571 62.003 35.9007 61.5594 36.442 61.5594Z" fill="#3E3E3E" stroke="#F3F3F3" stroke-width="0.3"/>
<path d="M68.4454 66.4394H68.5954V66.2894V63.6792V63.5292H68.4454H63.6789H63.5289V63.6792V66.2894V66.4394H63.6789H68.4454ZM62.5441 61.5594H69.5803C70.1216 61.5594 70.5652 62.003 70.5652 62.5443V67.4243C70.5652 67.9656 70.1216 68.4091 69.5803 68.4091H62.5441C62.0027 68.4091 61.5592 67.9656 61.5592 67.4243V62.5443C61.5592 62.003 62.0027 61.5594 62.5441 61.5594Z" fill="#3E3E3E" stroke="#F3F3F3" stroke-width="0.3"/>
<path d="M48.483 65.4181H57.528C58.0797 65.4181 58.5129 65.8606 58.5129 66.4029C58.5129 66.9443 58.0693 67.3878 57.528 67.3878H48.483C47.9417 67.3878 47.4981 66.9443 47.4981 66.4029C47.4981 65.8616 47.9417 65.4181 48.483 65.4181Z" fill="#3E3E3E" stroke="#F3F3F3" stroke-width="0.3"/>
<path d="M48.483 62.5807H57.528C58.0797 62.5807 58.5129 63.0232 58.5129 63.5655C58.5129 64.1069 58.0693 64.5504 57.528 64.5504H48.483C47.9417 64.5504 47.4981 64.1069 47.4981 63.5655C47.4981 63.0242 47.9417 62.5807 48.483 62.5807Z" fill="#3E3E3E" stroke="#F3F3F3" stroke-width="0.3"/>
<path d="M67.0707 37.4844L67.0719 37.4843L69.6367 37.28L69.9288 37.2567L69.7769 37.5073C68.872 38.9997 67.3103 39.8149 65.326 39.8266M67.0707 37.4844L65.3257 39.8266C65.3258 39.8266 65.3259 39.8266 65.326 39.8266M67.0707 37.4844C66.739 37.5136 66.4242 37.3681 66.215 37.0992C64.9741 35.4845 64.9633 33.2441 66.1934 31.6187L66.1936 31.6188L66.1986 31.6114L66.2182 31.582C66.4266 31.3169 66.7506 31.1717 67.082 31.2009L67.0826 31.201L69.5112 31.4053L69.8471 31.4335L69.6433 31.1651C68.6818 29.8988 67.1494 29.1541 65.3484 29.1424H65.3475C62.8813 29.1424 60.901 30.5308 60.2219 32.7895C60.0941 33.2016 59.7117 33.4762 59.2793 33.4664V33.4663H59.2759H46.4972V33.4663L46.4932 33.4664C46.1234 33.4761 45.7789 33.2618 45.6105 32.9262C44.7011 31.0269 42.664 29.7212 40.6299 29.7212C38.6206 29.7212 37.069 30.5607 36.1874 32.0887L36.0451 32.3355L36.3291 32.3132L38.9393 32.109L38.9408 32.1088C39.2756 32.0793 39.5893 32.2164 39.7965 32.4828L39.7971 32.4835C41.0594 34.086 41.071 36.3368 39.8185 37.9739L39.8182 37.9737L39.8128 37.9818L39.7932 38.0112C39.5848 38.2763 39.2608 38.4215 38.9294 38.3923L38.9288 38.3922L36.5002 38.1879L36.1643 38.1597L36.3681 38.4281C37.3305 39.6957 38.864 40.4167 40.6753 40.4167C43.1537 40.4167 45.1334 39.0048 45.8122 36.7469C45.9414 36.3306 46.3277 36.0361 46.7582 36.0361H59.4895M67.0707 37.4844L59.4895 36.0361M65.326 39.8266C62.9724 39.8498 61.1104 38.1679 60.3883 36.619L60.3878 36.618C60.2314 36.2757 59.8766 36.0467 59.4895 36.0361M65.326 39.8266L59.4895 36.0361M71.3419 33.5237L71.3406 33.5236L67.6182 33.2172L67.5121 33.2084L67.4688 33.3057C67.179 33.9577 67.1795 34.7052 67.4684 35.3673L67.511 35.465L67.6174 35.4569L71.317 35.1731L71.3192 35.173C71.4265 35.1632 71.532 35.1732 71.6256 35.2013L71.6256 35.2015L71.6336 35.2035C72.1633 35.331 72.4798 35.8606 72.3515 36.3951C71.9279 38.1004 71.0157 39.4988 69.7302 40.4408C68.535 41.315 67.0148 41.7836 65.3547 41.785L65.3498 41.7838C65.3449 41.7825 65.3349 41.78 65.3241 41.778C65.3128 41.7758 65.2973 41.7736 65.2794 41.7736C62.4024 41.7736 60.1325 40.0739 58.9629 38.0689L58.9194 37.9945H58.8333H47.5753H47.4761L47.4373 38.0858C46.3047 40.7507 43.7965 42.3751 40.698 42.3751C37.3098 42.3751 34.5577 40.3832 33.6697 37.3084L33.6698 37.3084L33.6679 37.3026C33.6299 37.1888 33.6197 37.0735 33.6296 36.9545C33.6793 36.411 34.1529 36.0091 34.6923 36.0582L34.694 36.0583L38.4164 36.3534L38.5222 36.3618L38.5653 36.2648C38.8551 35.6128 38.8546 34.8653 38.5657 34.2032L38.5231 34.1055L38.4168 34.1136L34.7171 34.3974L34.7171 34.3973L34.7136 34.3977C34.6202 34.407 34.523 34.3981 34.4191 34.3775C33.8913 34.2593 33.5648 33.7299 33.6832 33.1955C34.0848 31.4558 34.9749 30.036 36.2592 29.0838C37.4565 28.197 38.9678 27.7174 40.6412 27.7174C43.2078 27.7174 45.7138 29.1858 47.0611 31.4129L47.1049 31.4852H47.1895H58.4928H58.5921L58.6309 31.3939C59.7628 28.7304 62.2699 27.15 65.3702 27.15C66.9279 27.15 68.4413 27.6283 69.7213 28.5187C71.0095 29.4294 71.9421 30.7507 72.364 32.2719L72.3638 32.2719L72.3662 32.2792C72.4042 32.3931 72.4144 32.5084 72.4045 32.6275C72.3547 33.1709 71.8812 33.5727 71.3419 33.5237Z" fill="#3E3E3E" stroke="#F3F3F3" stroke-width="0.3"/>
</svg>
