<svg width="106" height="106" viewBox="0 0 106 106" fill="none" xmlns="http://www.w3.org/2000/svg">
<circle cx="53" cy="53" r="53" fill="#F3F3F3"/>
<path d="M53.5271 61.7317C53.9882 61.7317 54.3621 61.3578 54.3621 60.8967C54.3621 60.4356 53.9882 60.0617 53.5271 60.0617C53.066 60.0617 52.6922 60.4356 52.6922 60.8967C52.6922 61.3579 53.066 61.7317 53.5271 61.7317ZM59.3718 62.0499C59.833 62.0499 60.2068 61.6761 60.2068 61.215C60.2068 60.7539 59.833 60.38 59.3718 60.38C58.9107 60.38 58.5369 60.7539 58.5369 61.215C58.5369 61.6761 58.9107 62.0499 59.3718 62.0499ZM55.6575 66.2912C56.1186 66.2912 56.4925 65.9174 56.4925 65.4563C56.4925 64.9951 56.1186 64.6213 55.6575 64.6213C55.1964 64.6213 54.8225 64.9951 54.8225 65.4563C54.8225 65.9174 55.1964 66.2912 55.6575 66.2912ZM80.165 77.1035C77.6685 77.1035 76.3522 77.7391 75.1909 78.2998C74.0938 78.8297 73.0574 79.3301 70.943 79.3301C68.8285 79.3301 67.7921 78.8297 66.695 78.2998C65.5337 77.7391 64.2174 77.1035 61.7209 77.1035C59.2244 77.1035 57.9082 77.7391 56.7469 78.2998C55.6498 78.8297 54.6136 79.3301 52.4992 79.3301C50.385 79.3301 49.3487 78.8297 48.2516 78.2998C47.0905 77.7391 45.7742 77.1035 43.2779 77.1035C40.7815 77.1035 39.4653 77.7391 38.304 78.2998C37.207 78.8297 36.1707 79.3301 34.0564 79.3301C31.942 79.3301 30.9058 78.8297 29.8088 78.2998C28.6475 77.7391 27.3314 77.1035 24.835 77.1035C24.3738 77.1035 24 77.4772 24 77.9385C24 78.3997 24.3738 78.7734 24.835 78.7734C26.9493 78.7734 27.9855 79.2739 29.0826 79.8037C30.2438 80.3644 31.56 81 34.0564 81C36.5528 81 37.8689 80.3644 39.0302 79.8037C40.1273 79.2739 41.1636 78.7734 43.2779 78.7734C45.3923 78.7734 46.4285 79.2739 47.5255 79.8037C48.6868 80.3644 50.0029 81 52.4992 81C54.9956 81 56.3119 80.3644 57.4731 79.8037C58.5703 79.2739 59.6065 78.7734 61.7209 78.7734C63.8353 78.7734 64.8717 79.2739 65.9688 79.8037C67.1301 80.3644 68.4463 81 70.943 81C73.4396 81 74.7558 80.3644 75.9171 79.8037C77.0142 79.2739 78.0506 78.7734 80.165 78.7734C80.6262 78.7734 81 78.3997 81 77.9385C81 77.4772 80.6262 77.1035 80.165 77.1035ZM41.3404 73.1569C41.3404 73.6181 41.7142 73.9919 42.1753 73.9919C42.6364 73.9919 43.0103 73.6181 43.0103 73.1569C43.0103 72.6958 42.6364 72.322 42.1753 72.322C41.7142 72.322 41.3404 72.6958 41.3404 73.1569ZM51.2967 74.5744C51.2967 75.0355 51.6705 75.4093 52.1316 75.4093C52.5927 75.4093 52.9666 75.0355 52.9666 74.5744C52.9666 74.1132 52.5927 73.7394 52.1316 73.7394C51.6705 73.7394 51.2967 74.1132 51.2967 74.5744ZM29.61 73.7394C29.61 74.2005 29.9839 74.5744 30.445 74.5744C30.9061 74.5744 31.28 74.2005 31.28 73.7394C31.28 73.2783 30.9061 72.9044 30.445 72.9044C29.9839 72.9044 29.61 73.2783 29.61 73.7394ZM61.3732 72.9044C61.3732 73.3656 61.747 73.7394 62.2081 73.7394C62.6693 73.7394 63.0431 73.3656 63.0431 72.9044C63.0431 72.4433 62.6693 72.0695 62.2081 72.0695C61.747 72.0695 61.3732 72.4433 61.3732 72.9044ZM43.2779 66.6714C40.7815 66.6714 39.4653 67.307 38.304 67.8677C37.207 68.3975 36.1707 68.898 34.0564 68.898C31.942 68.898 30.9058 68.3975 29.8088 67.8677C28.6475 67.307 27.3314 66.6714 24.835 66.6714C24.3738 66.6714 24 67.0451 24 67.5064C24 67.9676 24.3738 68.3413 24.835 68.3413C26.9493 68.3413 27.9855 68.8417 29.0826 69.3716C30.2438 69.9323 31.56 70.5679 34.0564 70.5679C36.5528 70.5679 37.8689 69.9323 39.0302 69.3716C40.1273 68.8417 41.1636 68.3413 43.2779 68.3413C45.3923 68.3413 46.4285 68.8417 47.5255 69.3716C48.6868 69.9323 50.0029 70.5679 52.4992 70.5679C54.9956 70.5679 56.3119 69.9323 57.4731 69.3716C58.5703 68.8417 59.6065 68.3413 61.7209 68.3413C63.8353 68.3413 64.8717 68.8417 65.9688 69.3716C67.1301 69.9323 68.4463 70.5679 70.943 70.5679C73.4396 70.5679 74.7558 69.9323 75.9171 69.3716C77.0142 68.8417 78.0506 68.3413 80.165 68.3413C80.6262 68.3413 81 67.9676 81 67.5064C81 67.0451 80.6262 66.6714 80.165 66.6714C77.6685 66.6714 76.3522 67.307 75.1909 67.8677C74.0938 68.3975 73.0574 68.898 70.943 68.898C68.8285 68.898 67.7921 68.3975 66.695 67.8677C66.3609 67.7064 66.0137 67.5389 65.6295 67.3821C66.3196 65.6883 66.3262 64.2901 65.9768 62.6656C65.7969 61.8291 65.627 61.0392 65.7931 59.9451C65.8993 59.2454 66.1276 58.5577 66.4702 57.8954C67.6005 57.6536 68.4508 56.6475 68.4508 55.4462V51.8504C68.4508 50.6694 67.6289 49.6773 66.5272 49.4143V43.6966C68.8238 43.4904 70.9561 42.4982 72.6064 40.8478C76.5094 36.945 76.4073 30.6916 72.6064 26.8906C68.7426 23.0267 62.4887 23.051 58.6492 26.8906C58.419 27.1209 58.2017 27.3607 57.9974 27.6089C55.8246 26.5058 53.403 25.9239 50.9469 25.9239H40.9725C40.7098 24.822 39.7176 24 38.5366 24H34.9408C33.7596 24 32.7675 24.822 32.5047 25.9238H24.835C24.3738 25.9238 24 26.2975 24 26.7587C24 27.2199 24.3738 27.5937 24.835 27.5937H32.4359V41.5097H24.835C24.3738 41.5097 24 41.8834 24 42.3446C24 42.8059 24.3738 43.1796 24.835 43.1796H32.5049C32.7681 44.2809 33.76 45.1024 34.9408 45.1024H38.5366C39.7173 45.1024 40.7092 44.2809 40.9724 43.1796H48.8818C49.0967 43.1796 49.2715 43.3544 49.2715 43.5693V49.4144C48.17 49.6775 47.3484 50.6695 47.3484 51.8504V55.4462C47.3484 56.4717 47.9682 57.3549 48.8527 57.7419C48.6655 58.4849 48.6013 59.2257 48.6671 59.9535C48.8066 61.4993 49.5069 62.0624 49.7147 63.2631C49.9165 64.4299 49.1682 65.8594 47.4948 67.5134C46.4894 67.0694 45.2532 66.6714 43.2779 66.6714ZM71.4258 39.667C69.8771 41.2157 67.8181 42.0686 65.628 42.0686C63.7186 42.0686 61.9092 41.42 60.4505 40.2276L71.9863 28.6918C74.5931 31.855 74.3594 36.7332 71.4258 39.667ZM59.8302 28.0715C62.794 25.1076 67.5418 24.8425 70.8055 27.5108L59.2696 39.0467C56.6263 35.813 56.8719 31.0299 59.8302 28.0715ZM48.8818 41.5097H41.0414V33.8791C41.0414 33.4179 40.6676 33.0442 40.2065 33.0442C39.7454 33.0442 39.3715 33.4179 39.3715 33.8791V42.5975C39.3715 43.0579 38.997 43.4324 38.5366 43.4324H34.9408C34.4803 43.4324 34.1058 43.0579 34.1058 42.5975V26.5049C34.1058 26.0444 34.4803 25.6699 34.9408 25.6699H38.5366C38.997 25.6699 39.3715 26.0444 39.3715 26.5049C39.3715 26.5133 39.3711 26.751 39.3711 26.7587C39.3711 26.7616 39.3715 26.7644 39.3715 26.7673V29.9827C39.3715 30.4439 39.7454 30.8176 40.2065 30.8176C40.6676 30.8176 41.0414 30.4439 41.0414 29.9827V27.5937H50.947C53.0659 27.5937 55.1558 28.0771 57.0434 28.9974C54.8726 32.7707 55.518 37.7165 58.6493 40.8478C60.3305 42.5289 62.5117 43.526 64.8574 43.7061V49.3455H50.9414V43.5693C50.9414 42.4336 50.0175 41.5097 48.8818 41.5097ZM51.3601 62.9791C51.1392 61.7024 50.4519 61.1526 50.3302 59.8039C50.2758 59.2013 50.3425 58.5801 50.5249 57.9511H57.1453C57.6064 57.9511 57.9802 57.5773 57.9802 57.1161C57.9802 56.6549 57.6064 56.2811 57.1453 56.2811H49.9224C49.9153 56.2811 49.9081 56.2809 49.9009 56.2811H49.8533C49.3928 56.2811 49.0183 55.9066 49.0183 55.4462V51.8504C49.0183 51.3899 49.3928 51.0154 49.8533 51.0154H65.946C66.4063 51.0154 66.781 51.3899 66.781 51.8504V55.4462C66.781 55.9066 66.4063 56.2811 65.946 56.2811H61.0418C60.5806 56.2811 60.2068 56.6549 60.2068 57.1161C60.2068 57.5773 60.5806 57.9511 61.0418 57.9511H64.6147C64.3917 58.5201 64.232 59.1026 64.1423 59.6945C63.9302 61.091 64.1503 62.114 64.3443 63.0167C64.6351 64.3691 64.6391 65.4751 64.0255 66.8897C63.3803 66.7557 62.629 66.6714 61.7209 66.6714C59.2244 66.6714 57.9082 67.307 56.7469 67.8677C55.6498 68.3975 54.6136 68.898 52.4992 68.898C50.9255 68.898 49.9492 68.6205 49.1004 68.2603C50.9022 66.347 51.6429 64.6131 51.3601 62.9791ZM70.5722 74.5744C70.5722 75.0355 70.9461 75.4093 71.4072 75.4093C71.8683 75.4093 72.2421 75.0355 72.2421 74.5744C72.2421 74.1132 71.8683 73.7394 71.4072 73.7394C70.9461 73.7394 70.5722 74.1132 70.5722 74.5744Z" fill="#3E3E3E"/>
</svg>
