<svg width="106" height="106" viewBox="0 0 106 106" fill="none" xmlns="http://www.w3.org/2000/svg">
<circle cx="53" cy="53" r="53" fill="#F3F3F3"/>
<path d="M65.8594 70.4548V45.3748C65.8561 41.124 64.166 37.0484 61.1603 34.0426C58.1546 31.0369 54.0789 29.3468 49.8281 29.3435H48.9375V28.4529C48.9326 27.8263 48.7077 27.2214 48.302 26.7438C47.8963 26.2662 47.3357 25.9465 46.7182 25.8404C46.1006 25.7342 45.4654 25.8486 44.9236 26.1633C44.3818 26.4781 43.9678 26.9733 43.7541 27.5623H30.2344C29.0533 27.5623 27.9207 28.0315 27.0855 28.8666C26.2504 29.7017 25.7812 30.8344 25.7812 32.0154V40.9217C25.7812 41.5065 25.8964 42.0855 26.1202 42.6258C26.344 43.1661 26.672 43.657 27.0855 44.0705C27.9207 44.9056 29.0533 45.3748 30.2344 45.3748H43.7541C43.9678 45.9638 44.3818 46.459 44.9236 46.7738C45.4654 47.0885 46.1006 47.2028 46.7182 47.0967C47.3357 46.9906 47.8963 46.6708 48.302 46.1933C48.7077 45.7157 48.9326 45.1107 48.9375 44.4842V43.5935H49.8281C50.3001 43.5949 50.7524 43.7831 51.0861 44.1168C51.4198 44.4505 51.608 44.9028 51.6094 45.3748V70.3746C25.7812 72.1737 25.7812 73.857 25.7812 74.7654C25.7812 75.5402 25.7812 76.992 35.3911 78.1676C41.6622 78.8834 47.9695 79.2343 54.2812 79.2185C56.8373 79.2185 79.2188 79.0938 79.2188 74.7654C79.2188 74.0084 79.2188 72.7615 65.8594 70.4548ZM43.5938 43.5935H30.2344C29.5264 43.5914 28.848 43.3092 28.3474 42.8086C27.8468 42.308 27.5646 41.6296 27.5625 40.9217V32.0154C27.5646 31.3074 27.8468 30.6291 28.3474 30.1284C28.848 29.6278 29.5264 29.3456 30.2344 29.3435H43.5938V43.5935ZM47.1562 44.4842C47.1562 44.7204 47.0624 44.9469 46.8954 45.1139C46.7284 45.281 46.5018 45.3748 46.2656 45.3748C46.0294 45.3748 45.8029 45.281 45.6359 45.1139C45.4688 44.9469 45.375 44.7204 45.375 44.4842V28.4529C45.375 28.2167 45.4688 27.9902 45.6359 27.8231C45.8029 27.6561 46.0294 27.5623 46.2656 27.5623C46.5018 27.5623 46.7284 27.6561 46.8954 27.8231C47.0624 27.9902 47.1562 28.2167 47.1562 28.4529V44.4842ZM54.2812 77.4373C41.1534 77.4373 30.8044 76.0301 28.1147 74.9079C31.1962 73.9727 42.338 72.7882 52.5623 72.0935C52.7876 72.0777 52.9984 71.977 53.1522 71.8116C53.306 71.6463 53.3912 71.4287 53.3906 71.2029V45.3748C53.3906 44.4299 53.0153 43.5238 52.3472 42.8557C51.6791 42.1876 50.773 41.8123 49.8281 41.8123H48.9375V31.1248H49.8281C53.6059 31.1297 57.2276 32.6327 59.8989 35.304C62.5703 37.9753 64.0732 41.597 64.0781 45.3748V71.2029C64.0786 71.4132 64.1528 71.6166 64.2879 71.7778C64.423 71.9389 64.6104 72.0475 64.8173 72.0846C69.7425 72.9129 75.398 74.1509 77.1347 74.9168C75.2733 76.0301 66.9103 77.4373 54.2812 77.4373Z" fill="#3E3E3E"/>
<path d="M33.7976 56.8896C33.7976 56.6534 33.7038 56.4269 33.5368 56.2599C33.3697 56.0929 33.1432 55.999 32.907 55.999C32.6708 55.999 32.4442 56.0929 32.2772 56.2599C32.1102 56.4269 32.0164 56.6534 32.0164 56.8896C32.0668 57.6127 31.9615 58.3381 31.7076 59.017C31.4537 59.6959 31.0571 60.3124 30.5446 60.8249C30.0321 61.3374 29.4156 61.734 28.7367 61.9879C28.0579 62.2418 27.3324 62.3471 26.6094 62.2966C26.3732 62.2966 26.1466 62.3905 25.9796 62.5575C25.8126 62.7245 25.7188 62.9511 25.7188 63.1873C25.7188 63.4235 25.8126 63.65 25.9796 63.817C26.1466 63.9841 26.3732 64.0779 26.6094 64.0779C27.3324 64.0275 28.0579 64.1328 28.7367 64.3866C29.4156 64.6405 30.0321 65.0371 30.5446 65.5496C31.0571 66.0621 31.4537 66.6786 31.7076 67.3575C31.9615 68.0364 32.0668 68.7618 32.0164 69.4849C32.0164 69.7211 32.1102 69.9476 32.2772 70.1146C32.4442 70.2817 32.6708 70.3755 32.907 70.3755C33.1432 70.3755 33.3697 70.2817 33.5368 70.1146C33.7038 69.9476 33.7976 69.7211 33.7976 69.4849C33.7472 68.7618 33.8525 68.0364 34.1064 67.3575C34.3603 66.6786 34.7568 66.0621 35.2694 65.5496C35.7819 65.0371 36.3984 64.6405 37.0772 64.3866C37.7561 64.1328 38.4816 64.0275 39.2046 64.0779C39.4408 64.0779 39.6673 63.9841 39.8344 63.817C40.0014 63.65 40.0952 63.4235 40.0952 63.1873C40.0952 62.9511 40.0014 62.7245 39.8344 62.5575C39.6673 62.3905 39.4408 62.2966 39.2046 62.2966C38.4816 62.3471 37.7561 62.2418 37.0772 61.9879C36.3984 61.734 35.7819 61.3374 35.2694 60.8249C34.7568 60.3124 34.3603 59.6959 34.1064 59.017C33.8525 58.3381 33.7472 57.6127 33.7976 56.8896ZM32.907 65.7425C32.3213 64.6607 31.4335 63.7729 30.3518 63.1873C31.4335 62.6016 32.3213 61.7138 32.907 60.6321C33.4926 61.7138 34.3805 62.6016 35.4622 63.1873C34.3805 63.7729 33.4926 64.6607 32.907 65.7425Z" fill="#3E3E3E"/>
<path d="M41.8132 60.5786C41.8132 60.8148 41.9071 61.0414 42.0741 61.2084C42.2411 61.3754 42.4677 61.4692 42.7039 61.4692C42.9401 61.4692 43.1666 61.3754 43.3336 61.2084C43.5007 61.0414 43.5945 60.8148 43.5945 60.5786C43.5441 59.8556 43.6493 59.1301 43.9032 58.4513C44.1571 57.7724 44.5537 57.1559 45.0662 56.6434C45.5787 56.1309 46.1952 55.7343 46.8741 55.4804C47.553 55.2265 48.2784 55.1212 49.0015 55.1716C49.2377 55.1716 49.4642 55.0778 49.6312 54.9108C49.7983 54.7438 49.8921 54.5172 49.8921 54.281C49.8921 54.0448 49.7983 53.8183 49.6312 53.6512C49.4642 53.4842 49.2377 53.3904 49.0015 53.3904C48.2784 53.4408 47.553 53.3355 46.8741 53.0816C46.1952 52.8277 45.5787 52.4311 45.0662 51.9186C44.5537 51.4061 44.1571 50.7896 43.9032 50.1108C43.6493 49.4319 43.5441 48.7064 43.5945 47.9834C43.5945 47.7472 43.5007 47.5207 43.3336 47.3536C43.1666 47.1866 42.9401 47.0928 42.7039 47.0928C42.4677 47.0928 42.2411 47.1866 42.0741 47.3536C41.9071 47.5207 41.8132 47.7472 41.8132 47.9834C41.8637 48.7064 41.7584 49.4319 41.5045 50.1108C41.2506 50.7896 40.854 51.4061 40.3415 51.9186C39.829 52.4311 39.2125 52.8277 38.5336 53.0816C37.8547 53.3355 37.1293 53.4408 36.4062 53.3904C36.17 53.3904 35.9435 53.4842 35.7765 53.6512C35.6095 53.8183 35.5156 54.0448 35.5156 54.281C35.5156 54.5172 35.6095 54.7438 35.7765 54.9108C35.9435 55.0778 36.17 55.1716 36.4062 55.1716C37.1293 55.1212 37.8547 55.2265 38.5336 55.4804C39.2125 55.7343 39.829 56.1309 40.3415 56.6434C40.854 57.1559 41.2506 57.7724 41.5045 58.4513C41.7584 59.1301 41.8637 59.8556 41.8132 60.5786ZM42.7039 51.7258C43.2895 52.8075 44.1773 53.6954 45.2591 54.281C44.1773 54.8666 43.2895 55.7545 42.7039 56.8362C42.1182 55.7545 41.2304 54.8666 40.1487 54.281C41.2304 53.6954 42.1182 52.8075 42.7039 51.7258Z" fill="#3E3E3E"/>
<path d="M75.6569 40.7051C75.6569 40.4689 75.563 40.2423 75.396 40.0753C75.229 39.9083 75.0024 39.8145 74.7662 39.8145C74.53 39.8145 74.3035 39.9083 74.1365 40.0753C73.9694 40.2423 73.8756 40.4689 73.8756 40.7051C73.9071 41.0924 73.854 41.4819 73.72 41.8466C73.586 42.2113 73.3743 42.5425 73.0995 42.8173C72.8247 43.092 72.4935 43.3037 72.1288 43.4378C71.7641 43.5718 71.3746 43.6249 70.9873 43.5934C70.7511 43.5934 70.5246 43.6872 70.3575 43.8542C70.1905 44.0213 70.0967 44.2478 70.0967 44.484C70.0967 44.7202 70.1905 44.9467 70.3575 45.1138C70.5246 45.2808 70.7511 45.3746 70.9873 45.3746C71.3746 45.3431 71.7641 45.3962 72.1288 45.5302C72.4935 45.6643 72.8247 45.876 73.0995 46.1507C73.3743 46.4255 73.586 46.7567 73.72 47.1214C73.854 47.4861 73.9071 47.8756 73.8756 48.2629C73.8756 48.4991 73.9694 48.7257 74.1365 48.8927C74.3035 49.0597 74.53 49.1535 74.7662 49.1535C75.0024 49.1535 75.229 49.0597 75.396 48.8927C75.563 48.7257 75.6569 48.4991 75.6569 48.2629C75.6254 47.8756 75.6785 47.4861 75.8125 47.1214C75.9465 46.7567 76.1582 46.4255 76.433 46.1507C76.7077 45.876 77.0389 45.6643 77.4036 45.5302C77.7684 45.3962 78.1579 45.3431 78.5452 45.3746C78.7814 45.3746 79.0079 45.2808 79.1749 45.1138C79.3419 44.9467 79.4358 44.7202 79.4358 44.484C79.4358 44.2478 79.3419 44.0213 79.1749 43.8542C79.0079 43.6872 78.7814 43.5934 78.5452 43.5934C78.1579 43.6249 77.7684 43.5718 77.4036 43.4378C77.0389 43.3037 76.7077 43.092 76.433 42.8173C76.1582 42.5425 75.9465 42.2113 75.8125 41.8466C75.6785 41.4819 75.6254 41.0924 75.6569 40.7051ZM74.7662 45.3746C74.5153 45.0351 74.2151 44.735 73.8756 44.484C74.2151 44.233 74.5153 43.9329 74.7662 43.5934C75.0172 43.9329 75.3174 44.233 75.6569 44.484C75.3174 44.735 75.0172 45.0351 74.7662 45.3746Z" fill="#3E3E3E"/>
<path d="M79.4358 65.859C79.0485 65.8905 78.659 65.8374 78.2943 65.7034C77.9296 65.5694 77.5983 65.3577 77.3236 65.0829C77.0488 64.8081 76.8371 64.4769 76.7031 64.1122C76.5691 63.7475 76.516 63.358 76.5475 62.9707C76.5475 62.7345 76.4536 62.508 76.2866 62.3409C76.1196 62.1739 75.8931 62.0801 75.6569 62.0801C75.4206 62.0801 75.1941 62.1739 75.0271 62.3409C74.8601 62.508 74.7662 62.7345 74.7662 62.9707C74.7977 63.358 74.7446 63.7475 74.6106 64.1122C74.4766 64.4769 74.2649 64.8081 73.9901 65.0829C73.7154 65.3577 73.3842 65.5694 73.0194 65.7034C72.6547 65.8374 72.2652 65.8905 71.8779 65.859C71.6417 65.859 71.4152 65.9528 71.2482 66.1199C71.0811 66.2869 70.9873 66.5134 70.9873 66.7496C70.9873 66.9858 71.0811 67.2124 71.2482 67.3794C71.4152 67.5464 71.6417 67.6402 71.8779 67.6402C72.2652 67.6088 72.6547 67.6619 73.0194 67.7959C73.3842 67.9299 73.7154 68.1416 73.9901 68.4164C74.2649 68.6911 74.4766 69.0223 74.6106 69.387C74.7446 69.7518 74.7977 70.1413 74.7662 70.5285C74.7662 70.7648 74.8601 70.9913 75.0271 71.1583C75.1941 71.3253 75.4206 71.4192 75.6569 71.4192C75.8931 71.4192 76.1196 71.3253 76.2866 71.1583C76.4536 70.9913 76.5475 70.7648 76.5475 70.5285C76.516 70.1413 76.5691 69.7518 76.7031 69.387C76.8371 69.0223 77.0488 68.6911 77.3236 68.4164C77.5983 68.1416 77.9296 67.9299 78.2943 67.7959C78.659 67.6619 79.0485 67.6088 79.4358 67.6402C79.672 67.6402 79.8985 67.5464 80.0655 67.3794C80.2326 67.2124 80.3264 66.9858 80.3264 66.7496C80.3264 66.5134 80.2326 66.2869 80.0655 66.1199C79.8985 65.9528 79.672 65.859 79.4358 65.859ZM75.6569 67.6402C75.4059 67.3008 75.1057 67.0006 74.7662 66.7496C75.1057 66.4987 75.4059 66.1985 75.6569 65.859C75.9078 66.1985 76.208 66.4987 76.5475 66.7496C76.208 67.0006 75.9078 67.3008 75.6569 67.6402Z" fill="#3E3E3E"/>
<path d="M74.9827 56.9528C74.5954 56.9842 74.2059 56.9311 73.8411 56.7971C73.4764 56.6631 73.1452 56.4514 72.8705 56.1766C72.5957 55.9019 72.384 55.5707 72.25 55.206C72.116 54.8412 72.0629 54.4517 72.0944 54.0645C72.0944 53.8282 72.0005 53.6017 71.8335 53.4347C71.6665 53.2677 71.4399 53.1738 71.2037 53.1738C70.9675 53.1738 70.741 53.2677 70.574 53.4347C70.4069 53.6017 70.3131 53.8282 70.3131 54.0645C70.3446 54.4517 70.2915 54.8412 70.1575 55.206C70.0235 55.5707 69.8118 55.9019 69.537 56.1766C69.2622 56.4514 68.931 56.6631 68.5663 56.7971C68.2016 56.9311 67.8121 56.9842 67.4248 56.9528C67.1886 56.9528 66.9621 57.0466 66.795 57.2136C66.628 57.3806 66.5342 57.6072 66.5342 57.8434C66.5342 58.0796 66.628 58.3061 66.795 58.4731C66.9621 58.6402 67.1886 58.734 67.4248 58.734C67.8121 58.7025 68.2016 58.7556 68.5663 58.8896C68.931 59.0236 69.2622 59.2353 69.537 59.5101C69.8118 59.7849 70.0235 60.1161 70.1575 60.4808C70.2915 60.8455 70.3446 61.235 70.3131 61.6223C70.3131 61.8585 70.4069 62.085 70.574 62.2521C70.741 62.4191 70.9675 62.5129 71.2037 62.5129C71.4399 62.5129 71.6665 62.4191 71.8335 62.2521C72.0005 62.085 72.0944 61.8585 72.0944 61.6223C72.0629 61.235 72.116 60.8455 72.25 60.4808C72.384 60.1161 72.5957 59.7849 72.8705 59.5101C73.1452 59.2353 73.4764 59.0236 73.8411 58.8896C74.2059 58.7556 74.5954 58.7025 74.9827 58.734C75.2189 58.734 75.4454 58.6402 75.6124 58.4731C75.7794 58.3061 75.8733 58.0796 75.8733 57.8434C75.8733 57.6072 75.7794 57.3806 75.6124 57.2136C75.4454 57.0466 75.2189 56.9528 74.9827 56.9528ZM71.2037 58.734C70.9528 58.3945 70.6526 58.0943 70.3131 57.8434C70.6526 57.5924 70.9528 57.2922 71.2037 56.9528C71.4547 57.2922 71.7549 57.5924 72.0944 57.8434C71.7549 58.0943 71.4547 58.3945 71.2037 58.734Z" fill="#3E3E3E"/>
<path d="M64.0156 33.7966C64.7387 33.7462 65.4641 33.8515 66.143 34.1054C66.8219 34.3593 67.4384 34.7559 67.9509 35.2684C68.4634 35.7809 68.86 36.3974 69.1139 37.0763C69.3677 37.7551 69.473 38.4806 69.4226 39.2036C69.4226 39.4398 69.5164 39.6664 69.6835 39.8334C69.8505 40.0004 70.077 40.0942 70.3132 40.0942C70.5494 40.0942 70.776 40.0004 70.943 39.8334C71.11 39.6664 71.2039 39.4398 71.2039 39.2036C71.1534 38.4806 71.2587 37.7551 71.5126 37.0763C71.7665 36.3974 72.1631 35.7809 72.6756 35.2684C73.1881 34.7559 73.8046 34.3593 74.4835 34.1054C75.1624 33.8515 75.8878 33.7462 76.6108 33.7966C76.8471 33.7966 77.0736 33.7028 77.2406 33.5358C77.4076 33.3687 77.5015 33.1422 77.5015 32.906C77.5015 32.6698 77.4076 32.4433 77.2406 32.2762C77.0736 32.1092 76.8471 32.0154 76.6108 32.0154C75.8878 32.0658 75.1624 31.9605 74.4835 31.7066C73.8046 31.4527 73.1881 31.0561 72.6756 30.5436C72.1631 30.0311 71.7665 29.4146 71.5126 28.7358C71.2587 28.0569 71.1534 27.3314 71.2039 26.6084C71.2039 26.3722 71.11 26.1457 70.943 25.9786C70.776 25.8116 70.5494 25.7178 70.3132 25.7178C70.077 25.7178 69.8505 25.8116 69.6835 25.9786C69.5164 26.1457 69.4226 26.3722 69.4226 26.6084C69.473 27.3314 69.3677 28.0569 69.1139 28.7358C68.86 29.4146 68.4634 30.0311 67.9509 30.5436C67.4384 31.0561 66.8219 31.4527 66.143 31.7066C65.4641 31.9605 64.7387 32.0658 64.0156 32.0154C63.7794 32.0154 63.5529 32.1092 63.3859 32.2762C63.2188 32.4433 63.125 32.6698 63.125 32.906C63.125 33.1422 63.2188 33.3687 63.3859 33.5358C63.5529 33.7028 63.7794 33.7966 64.0156 33.7966ZM70.3132 30.3508C70.8989 31.4325 71.7867 32.3204 72.8684 32.906C71.7867 33.4916 70.8989 34.3795 70.3132 35.4612C69.7276 34.3795 68.8397 33.4916 67.758 32.906C68.8397 32.3204 69.7276 31.4325 70.3132 30.3508Z" fill="#3E3E3E"/>
</svg>
