<svg width="106" height="106" viewBox="0 0 106 106" fill="none" xmlns="http://www.w3.org/2000/svg">
<circle cx="53" cy="53" r="53" fill="#F3F3F3"/>
<path d="M54.875 40.8125H66.125V42.6875H54.875V40.8125Z" fill="#3E3E3E"/>
<path d="M54.875 44.5625H66.125V46.4375H54.875V44.5625Z" fill="#3E3E3E"/>
<path d="M45.5 54.875C45.5 54.3777 45.3025 53.9008 44.9508 53.5492C44.5992 53.1975 44.1223 53 43.625 53H41.75C41.2527 53 40.7758 53.1975 40.4242 53.5492C40.0725 53.9008 39.875 54.3777 39.875 54.875V56.75C39.875 57.2473 40.0725 57.7242 40.4242 58.0758C40.7758 58.4275 41.2527 58.625 41.75 58.625H43.625C44.1223 58.625 44.5992 58.4275 44.9508 58.0758C45.3025 57.7242 45.5 57.2473 45.5 56.75V54.875ZM41.75 56.75V54.875H43.625V56.75H41.75Z" fill="#3E3E3E"/>
<path d="M45.5 62.375C45.5 61.8777 45.3025 61.4008 44.9508 61.0492C44.5992 60.6975 44.1223 60.5 43.625 60.5H41.75C41.2527 60.5 40.7758 60.6975 40.4242 61.0492C40.0725 61.4008 39.875 61.8777 39.875 62.375V64.25C39.875 64.7473 40.0725 65.2242 40.4242 65.5758C40.7758 65.9275 41.2527 66.125 41.75 66.125H43.625C44.1223 66.125 44.5992 65.9275 44.9508 65.5758C45.3025 65.2242 45.5 64.7473 45.5 64.25V62.375ZM41.75 64.25V62.375H43.625V64.25H41.75Z" fill="#3E3E3E"/>
<path d="M43.625 68H41.75C41.2527 68 40.7758 68.1975 40.4242 68.5492C40.0725 68.9008 39.875 69.3777 39.875 69.875V71.75C39.875 72.2473 40.0725 72.7242 40.4242 73.0758C40.7758 73.4275 41.2527 73.625 41.75 73.625H43.625C44.1223 73.625 44.5992 73.4275 44.9508 73.0758C45.3025 72.7242 45.5 72.2473 45.5 71.75V69.875C45.5 69.3777 45.3025 68.9008 44.9508 68.5492C44.5992 68.1975 44.1223 68 43.625 68ZM41.75 71.75V69.875H43.625V71.75H41.75Z" fill="#3E3E3E"/>
<path d="M47.375 54.875H60.5V56.75H47.375V54.875Z" fill="#3E3E3E"/>
<path d="M47.375 62.375H60.5V64.25H47.375V62.375Z" fill="#3E3E3E"/>
<path d="M47.375 69.875H58.625V71.75H47.375V69.875Z" fill="#3E3E3E"/>
<path d="M38 41.75V45.5H39.875V44.5625H40.9063C41.0272 45.1493 41.2602 45.7074 41.5925 46.2059L40.8584 46.94L40.1956 46.2762L38.87 47.6019L41.5213 50.2541L42.8469 48.9284L42.1841 48.2656L42.9181 47.5316C43.4168 47.8645 43.9752 48.0978 44.5625 48.2188V49.25H43.625V51.125H47.375V49.25H46.4375V48.2188C47.0244 48.098 47.5824 47.865 48.0809 47.5325L48.815 48.2666L48.1522 48.9294L49.4778 50.255L52.1291 47.6028L50.8034 46.2772L50.1406 46.9409L49.4066 46.2069C49.7393 45.7081 49.9726 45.1497 50.0938 44.5625H51.125V45.5H53V41.75H51.125V42.6875H50.0938C49.9728 42.1007 49.7398 41.5426 49.4075 41.0441L50.1416 40.31L50.8044 40.9738L52.13 39.6481L49.4787 36.9959L48.1531 38.3216L48.8159 38.9844L48.0819 39.7184C47.5832 39.3855 47.0248 39.1522 46.4375 39.0313V38H47.375V36.125H43.625V38H44.5625V39.0313C43.9756 39.152 43.4176 39.385 42.9191 39.7175L42.185 38.9834L42.8478 38.3206L41.5222 36.995L38.8709 39.6472L40.1966 40.9728L40.8594 40.3091L41.5934 41.0431C41.2607 41.5419 41.0274 42.1003 40.9063 42.6875H39.875V41.75H38ZM45.5 40.8125C46.0563 40.8125 46.6 40.9774 47.0625 41.2865C47.5251 41.5955 47.8855 42.0348 48.0984 42.5487C48.3113 43.0626 48.367 43.6281 48.2585 44.1737C48.1499 44.7193 47.8821 45.2204 47.4887 45.6137C47.0954 46.0071 46.5943 46.2749 46.0487 46.3835C45.5031 46.492 44.9376 46.4363 44.4237 46.2234C43.9098 46.0105 43.4705 45.6501 43.1615 45.1875C42.8524 44.725 42.6875 44.1813 42.6875 43.625C42.6875 42.8791 42.9838 42.1637 43.5113 41.6363C44.0387 41.1088 44.7541 40.8125 45.5 40.8125Z" fill="#3E3E3E"/>
<path d="M71.75 26.75H61.2687C61.0742 26.2037 60.716 25.7306 60.2429 25.3951C59.7699 25.0596 59.2049 24.878 58.625 24.875H47.375C46.6298 24.8772 45.9157 25.1743 45.3887 25.7012C44.8618 26.2282 44.5647 26.9423 44.5625 27.6875V30.5H36.125C35.6282 30.5015 35.1521 30.6995 34.8008 31.0508C34.4495 31.4021 34.2515 31.8782 34.25 32.375V50.1875H36.125V32.375H44.5625C44.564 32.8718 44.762 33.3479 45.1133 33.6992C45.4646 34.0505 45.9407 34.2485 46.4375 34.25H59.5625C60.0593 34.2485 60.5354 34.0505 60.8867 33.6992C61.238 33.3479 61.436 32.8718 61.4375 32.375H68V68H62.375C61.8782 68.0015 61.4021 68.1995 61.0508 68.5508C60.6995 68.9021 60.5015 69.3782 60.5 69.875V75.5H36.125V52.0625H34.25V75.5C34.2515 75.9968 34.4495 76.4729 34.8008 76.8242C35.1521 77.1755 35.6282 77.3735 36.125 77.375H61.4375C61.686 77.3731 61.9244 77.2758 62.1031 77.1031L69.6031 69.6031C69.7758 69.4244 69.8731 69.186 69.875 68.9375V32.375C69.8735 31.8782 69.6755 31.4021 69.3242 31.0508C68.9729 30.6995 68.4968 30.5015 68 30.5H61.4375V28.625H71.75V79.25H32.375V28.625H42.6875V26.75H32.375C31.8782 26.7515 31.4021 26.9495 31.0508 27.3008C30.6995 27.6521 30.5015 28.1282 30.5 28.625V79.25C30.5015 79.7468 30.6995 80.2229 31.0508 80.5742C31.4021 80.9255 31.8782 81.1235 32.375 81.125H71.75C72.2468 81.1235 72.7229 80.9255 73.0742 80.5742C73.4255 80.2229 73.6235 79.7468 73.625 79.25V28.625C73.6235 28.1282 73.4255 27.6521 73.0742 27.3008C72.7229 26.9495 72.2468 26.7515 71.75 26.75ZM59.5625 32.375H46.4375V27.6875C46.4375 27.4389 46.5363 27.2004 46.7121 27.0246C46.8879 26.8488 47.1264 26.75 47.375 26.75H58.625C58.8736 26.75 59.1121 26.8488 59.2879 27.0246C59.4637 27.2004 59.5625 27.4389 59.5625 27.6875V32.375ZM62.375 74.1781V69.875H66.6781L62.375 74.1781Z" fill="#3E3E3E"/>
<path d="M62.375 54.875H64.25V56.75H62.375V54.875Z" fill="#3E3E3E"/>
<path d="M62.375 62.375H64.25V64.25H62.375V62.375Z" fill="#3E3E3E"/>
</svg>
