<svg width="106" height="106" viewBox="0 0 106 106" fill="none" xmlns="http://www.w3.org/2000/svg">
<circle cx="53" cy="53" r="53" fill="#F3F3F3"/>
<path d="M40.0312 46.2656H38.25V48.0469H40.0312V46.2656Z" fill="#3E3E3E"/>
<path d="M48.9375 46.2656H47.1562V48.0469H48.9375V46.2656Z" fill="#3E3E3E"/>
<path d="M78.4546 56.0715L74.975 55.5745C74.8095 55.0879 74.6141 54.612 74.3898 54.1495L76.4953 51.3423C76.6239 51.1708 76.6863 50.9586 76.6711 50.7448C76.6558 50.531 76.564 50.3298 76.4124 50.1782L72.6335 46.3993C72.4883 46.2552 72.2975 46.1661 72.0938 46.1473V37.5741C72.9271 36.907 73.5998 36.0611 74.0623 35.099C74.5248 34.1369 74.7651 33.0832 74.7657 32.0157C74.7738 30.666 74.3944 29.3422 73.6724 28.2017C72.9505 27.0613 71.9163 26.152 70.6928 25.5819C70.5571 25.5178 70.4074 25.489 70.2576 25.4983C70.1078 25.5075 69.9627 25.5545 69.8359 25.6348C69.7091 25.7152 69.6047 25.8262 69.5323 25.9577C69.4599 26.0892 69.422 26.2369 69.4219 26.387V31.3745L67.6407 31.9685L65.8594 31.3745V26.387C65.8588 26.2372 65.8204 26.09 65.7477 25.959C65.6751 25.8279 65.5706 25.7174 65.4439 25.6375C65.3172 25.5575 65.1724 25.5109 65.0229 25.5018C64.8734 25.4927 64.724 25.5215 64.5885 25.5854C63.3656 26.1553 62.3318 27.064 61.6099 28.2038C60.888 29.3436 60.5082 30.6666 60.5157 32.0157C60.5162 33.0832 60.7566 34.1369 61.2191 35.099C61.6815 36.0611 62.3543 36.907 63.1875 37.5741V43.5939H60.5157C60.3014 43.5938 60.0942 43.6711 59.9323 43.8114C59.7703 43.9518 59.6644 44.1459 59.634 44.358L59.0577 48.3917L60.8212 48.6437L61.2878 45.3751H65.0872L65.5539 48.6437C65.5782 48.813 65.6508 48.9718 65.7629 49.101C65.8751 49.2302 66.022 49.3244 66.1863 49.3722C66.9286 49.5867 67.6453 49.8815 68.3238 50.2513C68.4739 50.3336 68.6445 50.3709 68.8153 50.3587C68.986 50.3466 69.1496 50.2854 69.2865 50.1827L71.9237 48.2055L74.6098 50.8916L72.6282 53.5288C72.5254 53.6657 72.4643 53.8293 72.4522 54.0001C72.44 54.1708 72.4773 54.3414 72.5596 54.4915C72.9294 55.17 73.2242 55.8867 73.4386 56.629C73.4865 56.7933 73.5807 56.9403 73.7099 57.0524C73.8391 57.1645 73.9978 57.2371 74.1672 57.2614L77.4358 57.7281V61.5275L74.1672 61.9942C73.9978 62.0185 73.8391 62.091 73.7099 62.2032C73.5807 62.3153 73.4865 62.4623 73.4386 62.6265C73.2242 63.3688 72.9294 64.0856 72.5596 64.764C72.4773 64.9141 72.44 65.0847 72.4522 65.2555C72.4643 65.4262 72.5254 65.5899 72.6282 65.7268L74.6054 68.3639L71.9192 71.05L69.2839 69.0657C69.147 68.963 68.9833 68.9019 68.8126 68.8897C68.6418 68.8775 68.4712 68.9148 68.3211 68.9972C67.6427 69.367 66.9259 69.6617 66.1836 69.8762C66.0194 69.9241 65.8724 70.0182 65.7603 70.1474C65.6481 70.2766 65.5756 70.4354 65.5513 70.6047L65.0872 73.8751H61.4063V70.1087C61.4057 69.1678 61.2707 68.2318 61.0055 67.329C62.7019 67.8256 64.5141 67.7547 66.1665 67.127C67.8189 66.4992 69.2211 65.3491 70.1598 63.8514C71.0986 62.3537 71.5226 60.5904 71.3674 58.8296C71.2121 57.0688 70.4861 55.4069 69.2997 54.0966C68.1133 52.7863 66.5315 51.8992 64.7948 51.5703C63.058 51.2414 61.2614 51.4887 59.6781 52.2745C58.0947 53.0604 56.8114 54.3417 56.0231 55.9238C55.2348 57.5059 54.9847 59.3022 55.3109 61.0394C55.2895 61.0305 55.269 61.0198 55.2476 61.0118L48.0469 58.1315V56.7626C49.237 56.1538 50.2912 55.3096 51.1454 54.2814H53.3907C54.0993 54.2814 54.7789 53.9999 55.28 53.4988C55.781 52.9977 56.0625 52.3181 56.0625 51.6095V49.6644C56.5817 49.4808 57.0315 49.1414 57.3503 48.6924C57.6692 48.2435 57.8415 47.707 57.8438 47.1564V44.4845C57.8415 43.9338 57.6692 43.3974 57.3503 42.9484C57.0315 42.4995 56.5817 42.16 56.0625 41.9765V40.922C56.0625 37.6151 54.7489 34.4436 52.4105 32.1052C50.0722 29.7669 46.9007 28.4532 43.5938 28.4532C40.2869 28.4532 37.1154 29.7669 34.7771 32.1052C32.4387 34.4436 31.1251 37.6151 31.1251 40.922V41.9765C30.6059 42.16 30.1561 42.4995 29.8373 42.9484C29.5184 43.3974 29.3461 43.9338 29.3438 44.4845V47.1564C29.3438 47.865 29.6253 48.5446 30.1264 49.0457C30.6274 49.5467 31.307 49.8282 32.0157 49.8282H33.7969C33.8539 49.8282 33.9091 49.8193 33.9653 49.8158C34.2391 51.2924 34.8481 52.6866 35.7453 53.8909C36.6425 55.0953 37.8041 56.0777 39.1407 56.7626V58.1315L31.94 61.0118C30.1183 61.7338 28.5563 62.9878 27.4578 64.6105C26.3592 66.2331 25.775 68.1491 25.7813 70.1087V78.3282C25.7813 78.5644 25.8751 78.791 26.0422 78.958C26.2092 79.125 26.4357 79.2189 26.6719 79.2189H60.5157C60.7519 79.2189 60.9784 79.125 61.1454 78.958C61.3125 78.791 61.4063 78.5644 61.4063 78.3282V75.6564H65.8594C66.0737 75.6564 66.2809 75.5791 66.4428 75.4388C66.6048 75.2984 66.7107 75.1043 66.7411 74.8922L67.2381 71.4125C67.7247 71.247 68.2006 71.0516 68.6631 70.8274L71.4704 72.9328C71.6419 73.0614 71.854 73.1238 72.0678 73.1086C72.2817 73.0934 72.4828 73.0016 72.6344 72.85L76.4133 69.0711C76.5649 68.9195 76.6567 68.7183 76.672 68.5045C76.6872 68.2907 76.6248 68.0785 76.4962 67.907L74.3907 65.0998C74.6149 64.6373 74.8104 64.1614 74.9759 63.6748L78.4555 63.1778C78.6674 63.1472 78.8611 63.0413 79.0013 62.8796C79.1414 62.7178 79.2186 62.511 79.2188 62.297V56.9532C79.2188 56.7389 79.1416 56.5318 79.0012 56.3698C78.8608 56.2079 78.6668 56.1019 78.4546 56.0715ZM68.6578 48.4228C68.6159 48.4023 68.5687 48.389 68.5268 48.3694V37.3595H66.75V44.4221L66.7411 44.358C66.7107 44.1459 66.6048 43.9518 66.4428 43.8114C66.2809 43.6711 66.0737 43.5938 65.8594 43.5939H64.9688V37.1279C64.9688 36.9843 64.9341 36.8427 64.8675 36.7154C64.801 36.5881 64.7047 36.4787 64.5867 36.3967C63.9247 35.9358 63.3756 35.331 62.9806 34.6276C62.5856 33.9242 62.355 33.1405 62.3061 32.3352C62.2571 31.53 62.3911 30.7242 62.6981 29.9781C63.005 29.2321 63.4768 28.5652 64.0782 28.0275V32.0157C64.0781 32.2027 64.1369 32.385 64.2463 32.5367C64.3556 32.6884 64.5099 32.8018 64.6874 32.8609L67.3592 33.7516C67.5419 33.8124 67.7394 33.8124 67.9221 33.7516L70.594 32.8609C70.7714 32.8018 70.9257 32.6884 71.0351 32.5367C71.1444 32.385 71.2032 32.2027 71.2032 32.0157V28.0275C71.805 28.5652 72.2773 29.2322 72.5845 29.9785C72.8917 30.7249 73.0259 31.5311 72.977 32.3366C72.928 33.1422 72.6973 33.9263 72.302 34.6299C71.9067 35.3335 71.3572 35.9385 70.6946 36.3994C70.5771 36.4812 70.4809 36.5901 70.4144 36.7169C70.3479 36.8437 70.313 36.9847 70.3125 37.1279V47.1857L68.6578 48.4228ZM56.9532 59.6251C56.9434 58.2325 57.3968 56.8762 58.2422 55.7695C59.0875 54.6628 60.2768 53.8685 61.6229 53.5117C62.969 53.1548 64.3956 53.2556 65.6782 53.7981C66.9607 54.3407 68.0266 55.2942 68.7079 56.5088C69.3893 57.7233 69.6476 59.1299 69.4421 60.5073C69.2366 61.8847 68.5791 63.1547 67.5729 64.1175C66.5667 65.0803 65.269 65.6812 63.8839 65.8259C62.4988 65.9705 61.105 65.6505 59.9216 64.9163C59.3059 63.93 58.5183 63.0622 57.5962 62.354C57.1725 61.5068 56.9523 60.5724 56.9532 59.6251ZM53.3907 52.5001H52.3095C52.7435 51.6548 53.0511 50.7504 53.2223 49.8158C53.2785 49.8158 53.3337 49.8282 53.3907 49.8282H54.2813V51.6095C54.2813 51.8457 54.1875 52.0722 54.0204 52.2392C53.8534 52.4063 53.6269 52.5001 53.3907 52.5001ZM51.6094 42.7032C51.1948 42.7022 50.7861 42.6052 50.4152 42.4198C50.0444 42.2343 49.7215 41.9656 49.4719 41.6345L47.8688 39.497C47.7972 39.4016 47.7072 39.3215 47.6041 39.2615C47.501 39.2015 47.3869 39.1629 47.2685 39.1479C47.1501 39.1333 47.0301 39.1425 46.9152 39.1747C46.8004 39.207 46.6931 39.2617 46.5997 39.3358L43.6107 41.7235C42.8221 42.3546 41.8429 42.7 40.8329 42.7032H35.5782V41.8126C35.5782 39.6867 36.4227 37.6479 37.9259 36.1447C39.4291 34.6415 41.4679 33.797 43.5938 33.797C45.7197 33.797 47.7585 34.6415 49.2617 36.1447C50.7649 37.6479 51.6094 39.6867 51.6094 41.8126V42.7032ZM56.0625 47.1564C56.0625 47.3926 55.9687 47.6191 55.8017 47.7861C55.6347 47.9531 55.4081 48.047 55.1719 48.047H53.3907V43.5939H55.1719C55.4081 43.5939 55.6347 43.6877 55.8017 43.8547C55.9687 44.0217 56.0625 44.2483 56.0625 44.4845V47.1564ZM43.5938 30.2345C46.4274 30.2375 49.144 31.3645 51.1476 33.3682C53.1512 35.3718 54.2782 38.0884 54.2813 40.922V41.8126H53.3907C53.3907 39.2143 52.3585 36.7224 50.5212 34.8852C48.684 33.0479 46.1921 32.0157 43.5938 32.0157C40.9955 32.0157 38.5036 33.0479 36.6664 34.8852C34.8291 36.7224 33.7969 39.2143 33.7969 41.8126H32.9063V40.922C32.9094 38.0884 34.0364 35.3718 36.04 33.3682C38.0436 31.3645 40.7602 30.2375 43.5938 30.2345ZM32.0157 48.047C31.7795 48.047 31.5529 47.9531 31.3859 47.7861C31.2189 47.6191 31.1251 47.3926 31.1251 47.1564V44.4845C31.1251 44.2483 31.2189 44.0217 31.3859 43.8547C31.5529 43.6877 31.7795 43.5939 32.0157 43.5939H33.7969V48.047H32.0157ZM35.5782 48.047V44.4845H40.8329C42.248 44.4826 43.6206 44.001 44.7267 43.1183L46.9987 41.3005L48.0469 42.7032C48.4629 43.255 49.001 43.703 49.6191 44.012C50.2372 44.3211 50.9184 44.4828 51.6094 44.4845V48.047C51.6109 49.6332 51.1389 51.1837 50.2539 52.5001H43.5938V54.2814H48.6205C47.4443 55.2323 46.0228 55.8308 44.5207 56.0074C43.0185 56.184 41.497 55.9315 40.1323 55.2792C38.7677 54.6268 37.6157 53.6014 36.8097 52.3214C36.0037 51.0415 35.5768 49.5595 35.5782 48.047ZM43.5938 57.8439C44.4977 57.8416 45.3969 57.714 46.2657 57.4645V58.7345C46.2657 59.4431 45.9842 60.1227 45.4831 60.6238C44.982 61.1249 44.3024 61.4064 43.5938 61.4064C42.8852 61.4064 42.2056 61.1249 41.7045 60.6238C41.2034 60.1227 40.9219 59.4431 40.9219 58.7345V57.4645C41.7907 57.714 42.6899 57.8416 43.5938 57.8439ZM59.625 77.4376H54.2813V67.6407H52.5V77.4376H34.6875V67.6407H32.9063V77.4376H27.5626V70.1087C27.5574 68.5053 28.0354 66.9377 28.9342 65.61C29.8331 64.2824 31.1111 63.2563 32.6017 62.6657L39.3375 59.9716C39.6005 60.8976 40.1584 61.7127 40.9265 62.293C41.6946 62.8734 42.6311 63.1874 43.5938 63.1874C44.5565 63.1874 45.493 62.8734 46.2611 62.293C47.0292 61.7127 47.5871 60.8976 47.8501 59.9716L54.5859 62.6657C56.0765 63.2563 57.3545 64.2824 58.2534 65.61C59.1522 66.9377 59.6302 68.5053 59.625 70.1087V77.4376Z" fill="#3E3E3E"/>
<path d="M64.0781 47.1562H62.2969V48.9375H64.0781V47.1562Z" fill="#3E3E3E"/>
<path d="M64.0781 70.3125H62.2969V72.0938H64.0781V70.3125Z" fill="#3E3E3E"/>
<path d="M71.3738 66.5525L70.1143 67.812L71.3738 69.0715L72.6333 67.812L71.3738 66.5525Z" fill="#3E3E3E"/>
<path d="M75.6562 58.7344H73.875V60.5156H75.6562V58.7344Z" fill="#3E3E3E"/>
<path d="M71.3743 50.1789L70.1147 51.4385L71.3743 52.698L72.6338 51.4385L71.3743 50.1789Z" fill="#3E3E3E"/>
</svg>
