<svg width="106" height="106" viewBox="0 0 106 106" fill="none" xmlns="http://www.w3.org/2000/svg">
<circle cx="53" cy="53" r="53" fill="#F3F3F3"/>
<path d="M79.2344 58.1094C79.4789 58.1094 79.7134 58.0122 79.8862 57.8394C80.0591 57.6665 80.1562 57.432 80.1562 57.1875V49.8125C80.1562 49.568 80.0591 49.3335 79.8862 49.1606C79.7134 48.9878 79.4789 48.8906 79.2344 48.8906H74.1336C73.5733 46.2468 72.5304 43.7289 71.0573 41.4631L74.66 37.8521C74.8326 37.6793 74.9295 37.445 74.9295 37.2008C74.9295 36.9566 74.8326 36.7223 74.66 36.5495L69.4514 31.3409C69.2786 31.1683 69.0444 31.0714 68.8001 31.0714C68.5559 31.0714 68.3217 31.1683 68.1488 31.3409L64.5369 34.9427C62.2711 33.4696 59.7532 32.4267 57.1094 31.8664V26.7656C57.1094 26.5211 57.0122 26.2866 56.8394 26.1138C56.6665 25.9409 56.432 25.8438 56.1875 25.8438H48.8125C48.568 25.8438 48.3335 25.9409 48.1606 26.1138C47.9878 26.2866 47.8906 26.5211 47.8906 26.7656V31.8664C45.2468 32.4267 42.7289 33.4696 40.4631 34.9427L36.8521 31.34C36.6793 31.1674 36.445 31.0705 36.2008 31.0705C35.9566 31.0705 35.7223 31.1674 35.5495 31.34L30.3409 36.5486C30.1683 36.7214 30.0714 36.9556 30.0714 37.1999C30.0714 37.4441 30.1683 37.6783 30.3409 37.8512L33.9436 41.4622C32.4701 43.7282 31.4269 46.2464 30.8664 48.8906H25.7656C25.5211 48.8906 25.2866 48.9878 25.1138 49.1606C24.9409 49.3335 24.8438 49.568 24.8438 49.8125V57.1875C24.8438 57.432 24.9409 57.6665 25.1138 57.8394C25.2866 58.0122 25.5211 58.1094 25.7656 58.1094H30.8664C31.4267 60.7532 32.4696 63.2711 33.9427 65.5369L30.34 69.1479C30.1674 69.3207 30.0705 69.555 30.0705 69.7992C30.0705 70.0434 30.1674 70.2777 30.34 70.4505L35.5486 75.6591C35.7214 75.8316 35.9556 75.9286 36.1999 75.9286C36.4441 75.9286 36.6783 75.8316 36.8512 75.6591L40.4622 72.0564C42.7282 73.5299 45.2464 74.5731 47.8906 75.1336V80.2344C47.8906 80.4789 47.9878 80.7134 48.1606 80.8862C48.3335 81.0591 48.568 81.1562 48.8125 81.1562H56.1875C56.432 81.1562 56.6665 81.0591 56.8394 80.8862C57.0122 80.7134 57.1094 80.4789 57.1094 80.2344V75.1336C59.7524 74.5711 62.2693 73.5267 64.5342 72.0527L72.0557 79.5743C72.9215 80.4325 74.0919 80.9128 75.3108 80.9101C76.5298 80.9074 77.6981 80.422 78.5601 79.5601C79.422 78.6981 79.9074 77.5298 79.9101 76.3108C79.9128 75.0919 79.4325 73.9215 78.5743 73.0557L71.0527 65.5342C72.5267 63.2693 73.5711 60.7524 74.1336 58.1094H79.2344ZM77.2708 78.2708C77.014 78.5276 76.7091 78.7314 76.3735 78.8704C76.0379 79.0094 75.6782 79.081 75.315 79.081C74.9518 79.081 74.5921 79.0094 74.2566 78.8704C73.921 78.7314 73.6161 78.5276 73.3593 78.2708L55.7072 60.6196C55.2785 60.1915 54.7692 59.8524 54.2088 59.622C53.6483 59.3917 53.0478 59.2745 52.4419 59.2774C52.2497 59.2773 52.0576 59.2887 51.8667 59.3115C50.6706 59.4552 49.4576 59.3034 48.3339 58.8695C47.2101 58.4356 46.2099 57.7328 45.4207 56.8226C44.6316 55.9125 44.0776 54.8228 43.8073 53.6488C43.537 52.4749 43.5587 51.2527 43.8703 50.0891L47.9367 54.1564C48.1096 54.3293 48.344 54.4264 48.5885 54.4265H52.5C52.7445 54.4265 52.979 54.3294 53.1519 54.1565C53.3247 53.9836 53.4219 53.7491 53.4219 53.5046V49.5885C53.4218 49.344 53.3247 49.1096 53.1518 48.9367L49.0891 44.8703C50.2524 44.5594 51.4743 44.5383 52.6477 44.8089C53.8211 45.0795 54.9103 45.6336 55.8199 46.4227C56.7296 47.2117 57.432 48.2117 57.8658 49.3351C58.2995 50.4585 58.4512 51.671 58.3078 52.8667C58.2189 53.5642 58.2905 54.2728 58.5172 54.9384C58.7439 55.604 59.1197 56.209 59.616 56.7072L77.2708 74.3593C77.5276 74.6161 77.7314 74.921 77.8704 75.2566C78.0094 75.5921 78.081 75.9518 78.081 76.315C78.081 76.6782 78.0094 77.0379 77.8704 77.3735C77.7314 77.7091 77.5276 78.014 77.2708 78.2708ZM60.9232 55.4083C60.6249 55.1069 60.3996 54.7413 60.2644 54.3394C60.1293 53.9376 60.0878 53.5101 60.1433 53.0898C60.3408 51.4511 60.0945 49.7895 59.4301 48.2787C58.7657 46.7678 57.7076 45.4632 56.3664 44.5013C55.0252 43.5393 53.4502 42.9554 51.8061 42.8104C50.162 42.6655 48.5092 42.9649 47.0204 43.6774C46.8875 43.7412 46.7719 43.8359 46.6832 43.9536C46.5945 44.0712 46.5352 44.2085 46.5105 44.3538C46.4858 44.499 46.4962 44.6481 46.541 44.7885C46.5857 44.9289 46.6635 45.0566 46.7678 45.1607L51.5781 49.9701V52.5781H48.9701L44.1607 47.7678C44.0566 47.6635 43.9289 47.5857 43.7885 47.541C43.6481 47.4962 43.499 47.4858 43.3538 47.5105C43.2085 47.5352 43.0712 47.5945 42.9536 47.6832C42.8359 47.7719 42.7412 47.8875 42.6774 48.0204C41.9651 49.5087 41.6657 51.1611 41.8105 52.8047C41.9552 54.4484 42.5387 56.0229 43.5002 57.3639C44.4616 58.7049 45.7655 59.763 47.2757 60.4277C48.7859 61.0924 50.4469 61.3392 52.0852 61.1423C52.5056 61.0871 52.9331 61.1287 53.3349 61.264C53.7368 61.3994 54.1023 61.6248 54.4037 61.9232L59.1458 66.6644C56.013 68.247 52.4188 68.6614 49.0081 67.8332C45.5974 67.005 42.5934 64.9884 40.5353 62.1453C38.4772 59.3023 37.4996 55.8188 37.778 52.32C38.0564 48.8213 39.5726 45.5362 42.0544 43.0544C44.5362 40.5726 47.8213 39.0564 51.32 38.778C54.8188 38.4996 58.3023 39.4772 61.1453 41.5353C63.9884 43.5934 66.005 46.5974 66.8332 50.0081C67.6614 53.4188 67.247 57.013 65.6644 60.1458L60.9232 55.4083ZM72.4632 57.0363C72.0187 59.5807 71.0878 62.0156 69.7215 64.2076L67.026 61.512C68.96 58.0074 69.5636 53.9224 68.7258 50.0082C67.888 46.094 65.6652 42.614 62.4661 40.208C59.2671 37.8021 55.3069 36.6321 51.314 36.9132C47.321 37.1943 43.5638 38.9076 40.7334 41.738C37.903 44.5684 36.1897 48.3256 35.9086 52.3186C35.6275 56.3115 36.7975 60.2717 39.2034 63.4708C41.6093 66.6698 45.0894 68.8927 49.0036 69.7304C52.9178 70.5682 57.0028 69.9646 60.5074 68.0306L63.203 70.7262C61.0109 72.0924 58.5761 73.0233 56.0317 73.4678C55.8182 73.5044 55.6244 73.615 55.4844 73.7802C55.3443 73.9454 55.2668 74.1547 55.2656 74.3713V79.3125H49.7344V74.3713C49.7342 74.1539 49.6573 73.9435 49.5171 73.7774C49.3769 73.6112 49.1826 73.4999 48.9683 73.4632C46.0602 72.9542 43.3001 71.8103 40.8844 70.1131C40.7068 69.9883 40.491 69.9302 40.2748 69.9489C40.0586 69.9676 39.856 70.062 39.7025 70.2154L36.2068 73.7047L32.2999 69.7978L35.7892 66.3021C35.9426 66.1486 36.037 65.946 36.0557 65.7298C36.0744 65.5136 36.0163 65.2978 35.8915 65.1202C34.1937 62.7032 33.0498 59.9414 32.5414 57.0317C32.5045 56.8167 32.3926 56.6217 32.2255 56.4814C32.0584 56.3411 31.8469 56.2647 31.6287 56.2656H26.6875V50.7344H31.6287C31.8461 50.7342 32.0565 50.6573 32.2226 50.5171C32.3888 50.3769 32.5001 50.1826 32.5368 49.9683C33.0458 47.0602 34.1897 44.3001 35.8869 41.8844C36.0117 41.7068 36.0698 41.491 36.0511 41.2748C36.0324 41.0586 35.938 40.856 35.7846 40.7025L32.2953 37.2068L36.2022 33.2999L39.6979 36.7892C39.8514 36.9426 40.054 37.037 40.2702 37.0557C40.4864 37.0744 40.7022 37.0163 40.8798 36.8915C43.2968 35.1937 46.0586 34.0498 48.9683 33.5414C49.1833 33.5045 49.3783 33.3926 49.5186 33.2255C49.6589 33.0584 49.7353 32.8469 49.7344 32.6287V27.6875H55.2656V32.6287C55.2658 32.8461 55.3427 33.0565 55.4829 33.2226C55.6231 33.3888 55.8174 33.5001 56.0317 33.5368C58.9414 34.0452 61.7032 35.1891 64.1202 36.8869C64.2978 37.0117 64.5136 37.0698 64.7298 37.0511C64.946 37.0324 65.1486 36.938 65.3021 36.7846L68.7978 33.2953L72.7047 37.2022L69.2154 40.6979C69.062 40.8514 68.9676 41.054 68.9489 41.2702C68.9302 41.4864 68.9883 41.7022 69.1131 41.8798C70.8109 44.2968 71.9548 47.0586 72.4632 49.9683C72.4999 50.1826 72.6112 50.3769 72.7774 50.5171C72.9435 50.6573 73.1539 50.7342 73.3713 50.7344H78.3125V56.2656H73.3713C73.1539 56.2658 72.9435 56.3427 72.7774 56.4829C72.6112 56.6231 72.4999 56.8174 72.4632 57.0317V57.0363Z" fill="#3E3E3E"/>
<path d="M58.3667 58.0632C58.2817 57.9751 58.1799 57.9049 58.0675 57.8566C57.955 57.8083 57.834 57.7828 57.7116 57.7818C57.5892 57.7807 57.4678 57.804 57.3545 57.8504C57.2412 57.8967 57.1383 57.9652 57.0518 58.0518C56.9652 58.1383 56.8967 58.2412 56.8504 58.3545C56.804 58.4678 56.7807 58.5892 56.7818 58.7116C56.7828 58.834 56.8083 58.955 56.8566 59.0675C56.9049 59.1799 56.9751 59.2817 57.0632 59.3667L57.7149 60.0185C57.8888 60.1864 58.1217 60.2793 58.3634 60.2772C58.6051 60.2751 58.8363 60.1782 59.0072 60.0072C59.1782 59.8363 59.2751 59.6051 59.2772 59.3634C59.2793 59.1217 59.1864 58.8888 59.0185 58.7149L58.3667 58.0632Z" fill="#3E3E3E"/>
<path d="M71.4038 73.7076C71.5776 73.8755 71.8105 73.9684 72.0522 73.9663C72.2939 73.9642 72.5252 73.8672 72.6961 73.6963C72.867 73.5254 72.964 73.2942 72.9661 73.0525C72.9682 72.8108 72.8752 72.5779 72.7073 72.404L61.6264 61.3222C61.4534 61.1492 61.2188 61.052 60.9741 61.052C60.7295 61.052 60.4949 61.1492 60.3219 61.3222C60.1489 61.4951 60.0518 61.7298 60.0518 61.9744C60.0518 62.219 60.1489 62.4536 60.3219 62.6266L71.4038 73.7076Z" fill="#3E3E3E"/>
<path d="M74.6636 76.9671C74.8374 77.135 75.0703 77.2279 75.312 77.2258C75.5537 77.2237 75.7849 77.1268 75.9559 76.9559C76.1268 76.7849 76.2237 76.5537 76.2258 76.312C76.2279 76.0703 76.135 75.8374 75.9671 75.6636L75.3153 75.0109C75.1424 74.8379 74.9077 74.7407 74.6631 74.7407C74.4185 74.7407 74.1839 74.8379 74.0109 75.0109C73.8379 75.1839 73.7407 75.4185 73.7407 75.6631C73.7407 75.9077 73.8379 76.1424 74.0109 76.3153L74.6636 76.9671Z" fill="#3E3E3E"/>
</svg>
