<svg width="106" height="106" viewBox="0 0 106 106" fill="none" xmlns="http://www.w3.org/2000/svg">
<circle cx="53" cy="53" r="53" fill="#F3F3F3"/>
<path d="M80.1441 48.0792H74.229V44.3047H80.1441C80.4509 44.3047 80.7363 44.1473 80.9 43.8878C81.0635 43.6285 81.0827 43.3031 80.9506 43.0263C80.5223 42.1287 79.926 41.3385 79.1784 40.6773C78.8086 40.3505 78.2438 40.3852 77.917 40.7549C77.5902 41.1246 77.6249 41.6893 77.9946 42.0163C78.1728 42.1739 78.3398 42.3411 78.4949 42.5176H73.3354C72.8418 42.5176 72.4418 42.9177 72.4418 43.4112V48.9728C72.4418 49.4662 72.8418 49.8663 73.3354 49.8663H78.4917C77.4468 51.0497 75.9224 51.7637 74.3058 51.7637C72.7828 51.7637 71.327 51.1366 70.2777 50.0385C69.9699 48.3144 68.3661 46.904 66.5452 46.9154H64.2813V43.9846H68.6319C68.9584 43.9846 69.2589 43.8066 69.4156 43.5203C70.3955 41.7315 72.2692 40.6203 74.3058 40.6203C74.431 40.6203 74.5574 40.6245 74.6815 40.6327C75.1745 40.6654 75.5996 40.2926 75.6322 39.8002C75.6648 39.3078 75.2921 38.8821 74.7997 38.8495C74.6365 38.8387 74.4702 38.8332 74.3058 38.8332C71.797 38.8332 69.4757 40.1094 68.125 42.1975H64.2813V41.5184C64.2813 39.3599 62.5251 37.6038 60.3667 37.6038C59.1517 37.6038 58.0642 38.1603 57.3456 39.0317C56.6271 38.1603 55.5396 37.6038 54.3246 37.6038C53.1096 37.6038 52.0221 38.1603 51.3035 39.0317C50.585 38.1603 49.4975 37.6038 48.2825 37.6038C46.6286 37.6038 45.212 38.6353 44.6395 40.0883C43.9763 39.5722 43.1439 39.2636 42.2404 39.2636C40.4205 39.2636 38.8867 40.5121 38.4503 42.1975H36.8751C36.765 42.0275 36.6479 41.862 36.5247 41.7021C36.2234 41.3112 35.6623 41.2387 35.2714 41.54C34.8805 41.8414 34.808 42.4025 35.1095 42.7933C35.2861 43.0224 35.446 43.2671 35.5847 43.5203C35.7415 43.8066 36.042 43.9846 36.3684 43.9846H38.3258V48.3994H36.3684C36.042 48.3994 35.7415 48.5774 35.5847 48.8637C34.6049 50.6525 32.7312 51.7637 30.6946 51.7637C29.0781 51.7637 27.5536 51.0497 26.5087 49.8663H31.665C32.1586 49.8663 32.5585 49.4662 32.5585 48.9728V43.4112C32.5585 42.9177 32.1586 42.5176 31.665 42.5176H26.5088C27.5538 41.3342 29.078 40.6203 30.6947 40.6203C31.1449 40.6203 31.5926 40.674 32.0249 40.7798C32.5041 40.8974 32.988 40.6037 33.1054 40.1244C33.2226 39.6451 32.9293 39.1614 32.45 39.0441C31.8786 38.9042 31.288 38.8332 30.6947 38.8332C27.8736 38.8332 25.2655 40.4791 24.0501 43.0263C23.918 43.3032 23.9372 43.6285 24.1009 43.8878C24.2645 44.1473 24.5498 44.3047 24.8566 44.3047H30.7717V48.0792H24.8565C24.5497 48.0792 24.2643 48.2366 24.1008 48.4961C23.9371 48.7554 23.9179 49.0808 24.05 49.3576C25.2654 51.9048 27.8737 53.5509 30.6946 53.5509C33.2033 53.5509 35.5247 52.2746 36.8754 50.1866H38.3652C38.6336 52.0854 40.2687 53.5509 42.2404 53.5509C43.2151 53.5509 44.107 53.192 44.7929 52.6005C45.4404 53.8715 46.7611 54.7445 48.2825 54.7445C49.2434 54.7445 50.1239 54.3959 50.806 53.8193C51.4427 55.1211 52.7805 56.0202 54.3247 56.0202C55.6457 56.0202 56.8346 55.3698 57.5495 54.3263C58.2007 54.7251 59.4931 54.7828 60.3588 54.7445L55.7017 57.7541C54.0724 58.8071 53.0997 60.5938 53.0997 62.5338C53.0997 63.0273 53.4997 63.4274 53.9932 63.4274C54.4869 63.4274 54.8868 63.0273 54.8868 62.5338C54.8868 61.203 55.5541 59.9773 56.6715 59.2551L63.8726 54.6013C64.2054 54.3863 64.3567 53.978 64.2447 53.598C64.1327 53.2181 63.7839 52.9573 63.3877 52.9573H59.3064C58.1333 52.9573 57.179 52.0029 57.179 50.8298C57.1894 49.7593 58.0493 48.7296 59.3064 48.7023H66.5452C67.4558 48.7023 68.2491 49.3184 68.4746 50.2006L69.5952 54.5851C69.8497 55.5809 69.6089 56.647 68.9514 57.4366L62.7011 64.9414C61.0907 66.7606 59.3689 69.0114 59.473 71.6232V82.1065C59.473 82.6 59.873 83 60.3666 83C60.8602 83 61.2601 82.6 61.2601 82.1065V71.6234C61.1414 69.4458 62.8284 67.5575 64.0796 66.079L70.3244 58.5805C71.3481 57.3514 71.7227 55.6925 71.3267 54.1427L70.9707 52.7498C71.9935 53.2699 73.1345 53.5507 74.3057 53.5507C77.1267 53.5507 79.7349 51.9048 80.9502 49.3575C81.0824 49.0806 81.0632 48.7553 80.8995 48.496C80.7363 48.2366 80.451 48.0792 80.1441 48.0792ZM42.2405 51.7637C41.0673 51.7637 40.113 50.8093 40.113 49.6362V43.1782C40.113 42.0052 41.0674 41.0507 42.2405 41.0507C43.4136 41.0507 44.3679 42.0052 44.3679 43.1782V49.6362C44.3679 50.8093 43.4134 51.7637 42.2405 51.7637ZM48.2826 52.9574C47.1094 52.9574 46.1551 52.003 46.1551 50.8299V41.5182C46.1551 40.3452 47.1095 39.3908 48.2826 39.3908C49.4557 39.3908 50.4101 40.3452 50.4101 41.5182V50.8299C50.4101 52.0031 49.4557 52.9574 48.2826 52.9574ZM54.3247 54.233C53.1515 54.233 52.1972 53.2786 52.1972 52.1056V41.5182C52.1972 40.3452 53.1516 39.3908 54.3247 39.3908C55.4978 39.3908 56.4521 40.3452 56.4521 41.5182V48.1552C55.7954 48.8556 55.392 49.7964 55.392 50.8299C55.392 51.7055 55.681 52.5148 56.1686 53.1677C55.7957 53.8189 55.1023 54.233 54.3247 54.233ZM58.2393 47.0645V41.5182C58.2393 40.3452 59.1937 39.3908 60.3668 39.3908C61.5399 39.3908 62.4943 40.3452 62.4943 41.5182V46.9153H59.3066C58.9366 46.9153 58.5789 46.9681 58.2393 47.0645Z" fill="#3E3E3E"/>
<path d="M40.1128 63.119V55.8547C40.1128 55.3613 39.7128 54.9612 39.2192 54.9612C38.7256 54.9612 38.3257 55.3613 38.3257 55.8547V63.119C38.3257 64.8677 38.9333 66.578 40.0364 67.9348C40.8814 68.974 41.3467 70.2839 41.3467 71.6231V82.1063C41.3467 82.5998 41.7467 82.9999 42.2403 82.9999C42.7339 82.9999 43.1338 82.5998 43.1338 82.1063V71.6232C43.1338 69.8745 42.5262 68.1642 41.4231 66.8075C40.5783 65.7682 40.1128 64.4584 40.1128 63.119Z" fill="#3E3E3E"/>
<path d="M52.5 28.1671C52.9936 28.1671 53.3936 27.767 53.3936 27.2735V22.8936C53.3936 22.4001 52.9936 22 52.5 22C52.0064 22 51.6064 22.4001 51.6064 22.8936V27.2735C51.6064 27.767 52.0064 28.1671 52.5 28.1671Z" fill="#3E3E3E"/>
<path d="M58.2558 29.8533C58.4051 29.9491 58.572 29.9947 58.7371 29.9947C59.0314 29.9947 59.3196 29.8494 59.4902 29.5832L60.6471 27.7784C60.9134 27.363 60.7924 26.8103 60.3769 26.544C59.9617 26.2776 59.4089 26.3986 59.1425 26.8141L57.9856 28.6189C57.7193 29.0343 57.8402 29.587 58.2558 29.8533Z" fill="#3E3E3E"/>
<path d="M63.074 35.0558C63.1947 35.0558 63.3172 35.0313 63.4345 34.9794L65.3955 34.1131C65.8469 33.9138 66.0512 33.3861 65.8518 32.9347C65.6523 32.4831 65.1247 32.2788 64.6734 32.4784L62.7124 33.3446C62.261 33.544 62.0567 34.0716 62.2561 34.5231C62.4037 34.8571 62.7309 35.0558 63.074 35.0558Z" fill="#3E3E3E"/>
<path d="M45.5101 29.5833C45.6808 29.8495 45.969 29.9948 46.2632 29.9948C46.4283 29.9948 46.5952 29.9491 46.7445 29.8534C47.1599 29.5871 47.281 29.0344 47.0147 28.619L45.8579 26.8143C45.5915 26.3987 45.0388 26.278 44.6235 26.5442C44.208 26.8104 44.087 27.3631 44.3532 27.7786L45.5101 29.5833Z" fill="#3E3E3E"/>
<path d="M39.6051 34.1132L41.566 34.9794C41.6833 35.0314 41.8059 35.0559 41.9265 35.0559C42.2695 35.0559 42.5968 34.8572 42.7443 34.5231C42.9437 34.0717 42.7394 33.5441 42.288 33.3447L40.327 32.4784C39.8761 32.2792 39.3481 32.4833 39.1486 32.9347C38.9493 33.3862 39.1536 33.9138 39.6051 34.1132Z" fill="#3E3E3E"/>
</svg>
