<svg width="106" height="106" viewBox="0 0 106 106" fill="none" xmlns="http://www.w3.org/2000/svg">
<circle cx="53" cy="53" r="53" fill="#F3F3F3"/>
<path d="M71.6484 24.8906H33.3516C32.5251 24.8915 31.7328 25.2202 31.1484 25.8046C30.564 26.389 30.2353 27.1814 30.2344 28.0078V76.9922C30.2353 77.8186 30.564 78.611 31.1484 79.1954C31.7328 79.7798 32.5251 80.1085 33.3516 80.1094H71.6484C72.4749 80.1085 73.2672 79.7798 73.8516 79.1954C74.436 78.611 74.7647 77.8186 74.7656 76.9922V28.0078C74.7647 27.1814 74.436 26.389 73.8516 25.8046C73.2672 25.2202 72.4749 24.8915 71.6484 24.8906ZM72.9844 76.9922C72.9841 77.3464 72.8432 77.686 72.5928 77.9365C72.3423 78.187 72.0027 78.3278 71.6484 78.3281H33.3516C32.9973 78.3278 32.6577 78.187 32.4072 77.9365C32.1568 77.686 32.0159 77.3464 32.0156 76.9922V35.5781H72.9844V76.9922ZM72.9844 33.7969H32.0156V28.0078C32.0159 27.6536 32.1568 27.314 32.4072 27.0635C32.6577 26.813 32.9973 26.6722 33.3516 26.6719H71.6484C72.0027 26.6722 72.3423 26.813 72.5928 27.0635C72.8432 27.314 72.9841 27.6536 72.9844 28.0078V33.7969Z" fill="#3E3E3E"/>
<path d="M52.5 43.5938C50.0339 43.5938 47.6232 44.325 45.5727 45.6951C43.5223 47.0652 41.9241 49.0125 40.9804 51.2909C40.0367 53.5693 39.7897 56.0763 40.2708 58.495C40.7519 60.9137 41.9395 63.1355 43.6833 64.8792C45.4271 66.623 47.6488 67.8106 50.0675 68.2917C52.4862 68.7728 54.9932 68.5259 57.2716 67.5821C59.5499 66.6384 61.4973 65.0402 62.8674 62.9898C64.2375 60.9393 64.9687 58.5286 64.9687 56.0625C64.965 52.7567 63.6501 49.5874 61.3126 47.2499C58.9751 44.9124 55.8058 43.5975 52.5 43.5938ZM52.5 66.75C50.3862 66.75 48.3199 66.1232 46.5623 64.9488C44.8048 63.7745 43.435 62.1053 42.626 60.1524C41.8171 58.1995 41.6055 56.0506 42.0179 53.9775C42.4302 51.9043 43.4481 50 44.9428 48.5053C46.4375 47.0106 48.3418 45.9927 50.415 45.5804C52.4881 45.168 54.637 45.3796 56.5899 46.1885C58.5428 46.9974 60.212 48.3673 61.3863 50.1248C62.5607 51.8824 63.1875 53.9487 63.1875 56.0625C63.1843 58.896 62.0573 61.6126 60.0537 63.6162C58.0501 65.6198 55.3335 66.7468 52.5 66.75Z" fill="#3E3E3E"/>
<path d="M33.7969 32.9062H37.3594C37.5956 32.9062 37.8221 32.8124 37.9891 32.6454C38.1562 32.4784 38.25 32.2518 38.25 32.0156V28.4531C38.25 28.2169 38.1562 27.9904 37.9891 27.8234C37.8221 27.6563 37.5956 27.5625 37.3594 27.5625H33.7969C33.5607 27.5625 33.3341 27.6563 33.1671 27.8234C33.0001 27.9904 32.9062 28.2169 32.9062 28.4531V32.0156C32.9062 32.2518 33.0001 32.4784 33.1671 32.6454C33.3341 32.8124 33.5607 32.9062 33.7969 32.9062ZM34.6875 29.3438H36.4688V31.125H34.6875V29.3438Z" fill="#3E3E3E"/>
<path d="M40.0312 32.9062H43.5938C43.83 32.9062 44.0565 32.8124 44.2235 32.6454C44.3905 32.4784 44.4844 32.2518 44.4844 32.0156V28.4531C44.4844 28.2169 44.3905 27.9904 44.2235 27.8234C44.0565 27.6563 43.83 27.5625 43.5938 27.5625H40.0312C39.795 27.5625 39.5685 27.6563 39.4015 27.8234C39.2345 27.9904 39.1406 28.2169 39.1406 28.4531V32.0156C39.1406 32.2518 39.2345 32.4784 39.4015 32.6454C39.5685 32.8124 39.795 32.9062 40.0312 32.9062ZM40.9219 29.3438H42.7031V31.125H40.9219V29.3438Z" fill="#3E3E3E"/>
<path d="M46.2656 32.9062H49.8281C50.0643 32.9062 50.2909 32.8124 50.4579 32.6454C50.6249 32.4784 50.7188 32.2518 50.7188 32.0156V28.4531C50.7188 28.2169 50.6249 27.9904 50.4579 27.8234C50.2909 27.6563 50.0643 27.5625 49.8281 27.5625H46.2656C46.0294 27.5625 45.8029 27.6563 45.6359 27.8234C45.4688 27.9904 45.375 28.2169 45.375 28.4531V32.0156C45.375 32.2518 45.4688 32.4784 45.6359 32.6454C45.8029 32.8124 46.0294 32.9062 46.2656 32.9062ZM47.1562 29.3438H48.9375V31.125H47.1562V29.3438Z" fill="#3E3E3E"/>
<path d="M68.9766 49.8281H67.6406C67.5229 49.828 67.4063 49.8515 67.2977 49.8971C66.0777 46.9776 64.0223 44.4836 61.3896 42.7283C58.7569 40.973 55.6642 40.0347 52.5 40.0312C43.6605 40.0312 36.4688 47.223 36.4688 56.0625C36.4688 64.902 43.6605 72.0938 52.5 72.0938C55.6642 72.0903 58.7569 71.152 61.3896 69.3967C64.0223 67.6414 66.0777 65.1474 67.2977 62.2279C67.4063 62.2735 67.5229 62.297 67.6406 62.2969H68.9766C69.803 62.296 70.5953 61.9673 71.1797 61.3829C71.7641 60.7985 72.0928 60.0061 72.0938 59.1797V52.9453C72.0928 52.1189 71.7641 51.3265 71.1797 50.7421C70.5953 50.1577 69.803 49.829 68.9766 49.8281ZM52.5 70.3125C49.6816 70.3125 46.9265 69.4768 44.5831 67.9109C42.2397 66.3451 40.4133 64.1196 39.3347 61.5157C38.2562 58.9119 37.974 56.0467 38.5238 53.2825C39.0736 50.5182 40.4308 47.9791 42.4237 45.9862C44.4166 43.9933 46.9557 42.6361 49.72 42.0863C52.4842 41.5365 55.3494 41.8187 57.9532 42.8972C60.5571 43.9758 62.7826 45.8022 64.3484 48.1456C65.9143 50.489 66.75 53.2441 66.75 56.0625C66.7458 59.8405 65.2431 63.4626 62.5716 66.1341C59.9001 68.8056 56.278 70.3083 52.5 70.3125ZM70.3125 59.1797C70.3122 59.5339 70.1714 59.8735 69.9209 60.124C69.6704 60.3745 69.3308 60.5153 68.9766 60.5156H68.5312V51.6094H68.9766C69.3308 51.6097 69.6704 51.7505 69.9209 52.001C70.1714 52.2515 70.3122 52.5911 70.3125 52.9453V59.1797Z" fill="#3E3E3E"/>
</svg>
