<svg width="106" height="106" viewBox="0 0 106 106" fill="none" xmlns="http://www.w3.org/2000/svg">
<circle cx="53" cy="53" r="53" fill="#F3F3F3"/>
<path d="M38.25 40.2998H74.3499C78.0228 40.2998 81 37.3226 81 33.6501C81 29.9772 78.0228 27 74.3499 27H30.6501C26.9789 27.0043 24.0043 29.9789 24 33.6501V64.0501C24.0043 67.7209 26.9789 70.6959 30.6501 70.7002H42.0499C42.5744 70.7006 42.9997 71.1255 43.0001 71.65V77.3499C41.4268 77.3516 40.1517 78.6267 40.15 80.2001V81.1498C40.1517 82.7232 41.4268 83.9983 43.0001 84H48.7001C50.2734 83.9983 51.5481 82.7232 51.5498 81.1498V80.2001C51.5481 78.6267 50.2734 77.3516 48.7001 77.3499V71.65C48.6957 67.9792 45.7207 65.0042 42.0499 64.9999H30.6501C30.1257 64.9994 29.7003 64.5745 29.6999 64.0501V33.6501C29.7003 33.1257 30.1257 32.7003 30.6501 32.6999H74.3499C74.606 32.6995 74.8513 32.8047 75.0274 32.9908C75.204 33.1644 75.3023 33.4022 75.3001 33.6501C75.2997 34.1746 74.8743 34.5994 74.3499 34.5999H38.25C34.5788 34.6042 31.6042 37.5788 31.5999 41.25C31.6042 44.9208 34.5792 47.8958 38.25 47.9001H74.3499C74.606 47.8997 74.8513 48.0049 75.0274 48.191C75.204 48.3646 75.3023 48.6024 75.3001 48.8499C75.2997 49.3743 74.8743 49.7997 74.3499 49.8001H38.25C34.5788 49.804 31.6042 52.779 31.5999 56.4502C31.6042 60.121 34.5792 63.096 38.25 63.0999H74.3499C74.606 63.0994 74.8513 63.2047 75.0274 63.3908C75.204 63.5643 75.3023 63.8022 75.3001 64.0501C75.2997 64.5745 74.8743 64.9994 74.3499 64.9999H63.8998C60.229 65.0042 57.2541 67.9792 57.2501 71.65V77.3499C55.6768 77.3516 54.4017 78.6267 54.4 80.2001V81.1498C54.4017 82.7232 55.6768 83.9983 57.2501 84H62.9501C64.5234 83.9983 65.7981 82.7232 65.7998 81.1498V80.2001C65.7981 78.6267 64.5234 77.3516 62.9501 77.3499V71.65C62.9505 71.1255 63.3754 70.7006 63.8998 70.7002H74.3499C78.0211 70.6959 80.9961 67.7209 81 64.0501C80.9957 60.3789 78.0211 57.4043 74.3499 57.4H38.25C37.9939 57.4004 37.7486 57.2952 37.5729 57.109C37.3963 56.9355 37.2976 56.6976 37.2998 56.4502C37.3007 55.9253 37.7255 55.5004 38.25 55.5H74.3499C78.0211 55.4961 80.9961 52.5211 81 48.8499C80.9957 45.1791 78.0211 42.2041 74.3499 42.2002H38.25C37.9939 42.2006 37.7486 42.0954 37.5729 41.9093C37.3963 41.7353 37.2976 41.4974 37.2998 41.25C37.3007 40.7255 37.7255 40.3007 38.25 40.2998ZM49.6498 80.2001V81.1498C49.6494 81.6743 49.2245 82.0996 48.7001 82.1H43.0001C42.4757 82.0996 42.0504 81.6743 42.0499 81.1498V80.2001C42.0504 79.6756 42.4757 79.2503 43.0001 79.2499H48.7001C49.2245 79.2503 49.6494 79.6756 49.6498 80.2001ZM63.8998 80.2001V81.1498C63.8994 81.6743 63.4745 82.0996 62.9501 82.1H57.2501C56.7257 82.0996 56.3004 81.6743 56.2999 81.1498V80.2001C56.3004 79.6756 56.7257 79.2503 57.2501 79.2499H62.9501C63.4745 79.2503 63.8994 79.6756 63.8998 80.2001ZM36.2304 43.253C36.7606 43.7979 37.4898 44.1041 38.25 44.1002H74.3499C76.9722 44.1032 79.097 46.228 79.1 48.8499C79.0957 51.4717 76.9717 53.5957 74.3499 53.6H38.25C36.6766 53.6018 35.4016 54.8768 35.3998 56.4502C35.4072 58.021 36.6792 59.2925 38.25 59.2999H74.3499C76.9722 59.303 79.097 61.4278 79.1 64.0501C79.0957 66.6715 76.9717 68.7959 74.3499 68.7998H63.8998C62.3269 68.8015 61.0518 70.0766 61.0501 71.65V77.3499H59.1501V71.65C59.1532 69.0281 61.278 66.9033 63.8998 66.8998H74.3499C75.9233 66.8981 77.1983 65.6235 77.2001 64.0501C77.1927 62.4789 75.9211 61.2073 74.3499 61.1999H38.25C35.6281 61.1969 33.5029 59.0721 33.4999 56.4502C33.5042 53.8283 35.6286 51.704 38.25 51.7001H74.3499C75.9233 51.6983 77.1983 50.4233 77.2001 48.8499C77.1927 47.2791 75.9211 46.0075 74.3499 46.0001H38.25C35.6281 45.9971 33.5029 43.8719 33.4999 41.25C33.5042 38.6286 35.6286 36.5042 38.25 36.4999H74.3499C75.9233 36.4981 77.1983 35.2235 77.2001 33.6501C77.1927 32.0789 75.9211 30.8073 74.3499 30.7999H30.6501C29.0767 30.8017 27.8017 32.0767 27.7999 33.6501V64.0501C27.8017 65.6235 29.0767 66.8981 30.6501 66.8998H42.0499C44.6722 66.9033 46.797 69.0281 46.8001 71.65V77.3499H44.9001V71.65C44.8984 70.0766 43.6233 68.8015 42.0499 68.7998H30.6501C28.0278 68.7968 25.903 66.672 25.9 64.0501V33.6501C25.903 31.0278 28.0278 28.903 30.6501 28.9H74.3499C76.9735 28.9 79.1 31.0265 79.1 33.6501C79.1 36.2733 76.9735 38.3998 74.3499 38.3998H38.25C36.6766 38.4016 35.4016 39.6766 35.3998 41.25C35.3942 42.0028 35.6938 42.7251 36.2304 43.253Z" fill="#3E3E3E"/>
</svg>
