<svg width="106" height="106" viewBox="0 0 106 106" fill="none" xmlns="http://www.w3.org/2000/svg">
<circle cx="53" cy="53" r="53" fill="#F3F3F3"/>
<path d="M49.335 39.4327L48.7449 32.3507C48.7063 31.8876 48.3192 31.5314 47.8544 31.5314H46.961V30.6377C46.961 29.1595 45.7585 27.957 44.2803 27.957C42.8021 27.957 41.5996 29.1595 41.5996 30.6377V31.5314H40.7062C40.2472 31.5314 39.8628 31.8791 39.8171 32.3359L39.1021 39.4844C39.077 39.7356 39.1593 39.9857 39.3287 40.1729C39.4981 40.36 39.7388 40.4668 39.9912 40.4668H48.45C48.4508 40.4668 48.4515 40.4668 48.4524 40.4668C48.9458 40.4668 49.3459 40.0667 49.3459 39.5732C49.3459 39.5255 49.3421 39.4784 49.335 39.4327ZM43.3868 30.6377C43.3868 30.1449 43.7875 29.7441 44.2803 29.7441C44.7731 29.7441 45.1739 30.1449 45.1739 30.6377V31.5314H43.3868V30.6377ZM40.9786 38.6798L41.5148 33.3185H47.0322L47.4789 38.6798H40.9786Z" fill="#3E3E3E"/>
<path d="M73.0462 29.9526C73.044 29.9308 73.0402 29.9096 73.0365 29.8884C73.0352 29.8809 73.0345 29.8733 73.0331 29.8659C73.0281 29.8406 73.0215 29.8159 73.0143 29.7913C73.0133 29.7881 73.0127 29.7846 73.0118 29.7814C73.0041 29.7564 72.9951 29.732 72.9854 29.7079C72.9843 29.7051 72.9834 29.7022 72.9823 29.6993C72.9728 29.6764 72.962 29.654 72.9505 29.632C72.9485 29.6282 72.9469 29.6242 72.9449 29.6204C72.934 29.6 72.9218 29.5802 72.9093 29.5608C72.906 29.5557 72.9032 29.5503 72.8998 29.5452C72.8873 29.5266 72.8737 29.5088 72.8598 29.4912C72.8557 29.4858 72.852 29.4801 72.8477 29.4749C72.8291 29.4524 72.8096 29.4306 72.7888 29.41L65.6411 22.2619C65.6205 22.2413 65.5988 22.2216 65.5762 22.203C65.5703 22.1983 65.564 22.1942 65.5582 22.1896C65.5412 22.1762 65.524 22.163 65.506 22.151C65.5004 22.1471 65.4945 22.144 65.4887 22.1405C65.4698 22.1284 65.4507 22.1165 65.431 22.1059C65.4265 22.1035 65.422 22.1017 65.4176 22.0995C65.396 22.0884 65.3742 22.0777 65.3518 22.0684C65.3486 22.0671 65.3453 22.0661 65.3421 22.0649C65.3184 22.0554 65.2943 22.0465 65.2696 22.039C65.2661 22.0379 65.2624 22.0372 65.2588 22.0362C65.2345 22.0292 65.2101 22.0226 65.185 22.0176C65.1775 22.0161 65.1698 22.0155 65.1623 22.0142C65.1412 22.0105 65.12 22.0068 65.0983 22.0046C65.0688 22.0015 65.039 22 65.0091 22H32.8428C32.3493 22 31.9492 22.4001 31.9492 22.8936V76.9209C31.9492 77.4143 32.3493 77.8144 32.8428 77.8144H53.0966C53.59 77.8144 53.9901 77.4143 53.9901 76.9209C53.9901 76.4274 53.59 76.0273 53.0966 76.0273H33.7363V23.7871H64.1155V30.0418C64.1155 30.5352 64.5156 30.9353 65.0091 30.9353H71.2635V76.0273H66.202C65.7085 76.0273 65.3085 76.4274 65.3085 76.9209C65.3085 77.4143 65.7085 77.8144 66.202 77.8144H72.157C72.6505 77.8144 73.0506 77.4143 73.0506 76.9209V30.0418C73.0506 30.0119 73.0492 29.9821 73.0462 29.9526ZM65.9026 29.1482V25.0508L69.9999 29.1482H65.9026Z" fill="#3E3E3E"/>
<path d="M65.0093 47.4355H39.9912C39.4977 47.4355 39.0977 47.8356 39.0977 48.3291C39.0977 48.8226 39.4977 49.2227 39.9912 49.2227H65.0093C65.5028 49.2227 65.9029 48.8226 65.9029 48.3291C65.9029 47.8356 65.5028 47.4355 65.0093 47.4355Z" fill="#3E3E3E"/>
<path d="M65.0093 52.2021H39.9912C39.4977 52.2021 39.0977 52.6022 39.0977 53.0957C39.0977 53.5892 39.4977 53.9893 39.9912 53.9893H65.0093C65.5028 53.9893 65.9029 53.5892 65.9029 53.0957C65.9029 52.6022 65.5028 52.2021 65.0093 52.2021Z" fill="#FF4444"/>
<path d="M65.0093 56.968H39.9912C39.4977 56.968 39.0977 57.3681 39.0977 57.8616C39.0977 58.3551 39.4977 58.7551 39.9912 58.7551H65.0093C65.5028 58.7551 65.9029 58.3551 65.9029 57.8616C65.9029 57.3681 65.5028 56.968 65.0093 56.968Z" fill="#3E3E3E"/>
<path d="M50.7132 61.7336H39.9912C39.4977 61.7336 39.0977 62.1337 39.0977 62.6272C39.0977 63.1207 39.4977 63.5208 39.9912 63.5208H50.7132C51.2066 63.5208 51.6067 63.1207 51.6067 62.6272C51.6067 62.1337 51.2066 61.7336 50.7132 61.7336Z" fill="#3E3E3E"/>
<path d="M65.9043 70.3711C65.9043 66.9221 63.0984 64.1162 59.6494 64.1162C56.2004 64.1162 53.3945 66.9221 53.3945 70.3711C53.3945 72.3587 54.3276 74.1315 55.7776 75.278V82.1062C55.7776 82.1157 55.7787 82.1249 55.779 82.1344C55.7796 82.1527 55.7801 82.1708 55.7818 82.189C55.7829 82.2018 55.785 82.2143 55.7866 82.2269C55.7889 82.2432 55.791 82.2595 55.7941 82.2757C55.7968 82.2893 55.8002 82.3027 55.8034 82.316C55.807 82.3309 55.8105 82.3458 55.8149 82.3605C55.819 82.3745 55.8239 82.3881 55.8288 82.4019C55.8336 82.4155 55.8382 82.4292 55.8437 82.4427C55.8495 82.457 55.8561 82.4707 55.8626 82.4846C55.8685 82.497 55.8741 82.5095 55.8805 82.5218C55.8883 82.5364 55.8967 82.5504 55.9052 82.5645C55.9117 82.5755 55.9181 82.5866 55.9251 82.5973C55.935 82.6123 55.9458 82.6266 55.9565 82.641C55.9624 82.6488 55.9674 82.6569 55.9735 82.6645C55.9746 82.6661 55.9761 82.6672 55.9773 82.6688C55.9973 82.6936 56.0185 82.7173 56.041 82.7397C56.0473 82.746 56.0542 82.7515 56.0608 82.7576C56.0771 82.7729 56.0938 82.7879 56.1113 82.8021C56.1218 82.8106 56.1326 82.8182 56.1435 82.8262C56.1581 82.8369 56.1728 82.8474 56.1879 82.8572C56.1993 82.8645 56.2109 82.8715 56.2227 82.8782C56.2385 82.8875 56.2547 82.8961 56.2712 82.9045C56.2824 82.9101 56.2936 82.9157 56.3051 82.9208C56.3234 82.929 56.3421 82.9363 56.3609 82.9433C56.3711 82.9471 56.3813 82.9512 56.3916 82.9545C56.4127 82.9615 56.4344 82.9672 56.4562 82.9726C56.4649 82.9747 56.4735 82.9774 56.4822 82.9793C56.5062 82.9845 56.5308 82.9882 56.5556 82.9914C56.5625 82.9923 56.5693 82.9938 56.5762 82.9945C56.6054 82.9976 56.635 82.9992 56.6651 82.9994C56.6673 82.9994 56.6696 82.9998 56.6719 82.9998C56.6728 82.9998 56.6736 82.9995 56.6746 82.9995C56.7182 82.9994 56.7607 82.9951 56.8026 82.989C56.8116 82.9877 56.8204 82.9865 56.8295 82.9849C56.872 82.9774 56.9134 82.9669 56.9535 82.9535C56.9609 82.951 56.968 82.9482 56.9753 82.9456C57.0181 82.9301 57.0598 82.9122 57.0993 82.8906C57.1008 82.8899 57.1021 82.8888 57.1035 82.8881C57.1452 82.8651 57.1844 82.8385 57.2216 82.8093C57.2242 82.8072 57.227 82.8059 57.2297 82.8039L59.6499 80.8677L62.07 82.8039C62.0725 82.8059 62.0752 82.8071 62.0777 82.8091C62.1152 82.8384 62.1546 82.8651 62.1963 82.8883C62.1976 82.889 62.1988 82.8899 62.2001 82.8906C62.2397 82.9123 62.2815 82.9302 62.3244 82.9457C62.3316 82.9483 62.3387 82.9512 62.3459 82.9535C62.3861 82.9669 62.4275 82.9774 62.4701 82.985C62.479 82.9865 62.4878 82.9877 62.4969 82.989C62.5388 82.9952 62.5813 82.9994 62.625 82.9995C62.6259 82.9995 62.6267 82.9998 62.6277 82.9998C62.6298 82.9998 62.6322 82.9994 62.6344 82.9994C62.6644 82.9992 62.6941 82.9976 62.7234 82.9945C62.7302 82.9938 62.7368 82.9923 62.7435 82.9914C62.7684 82.9882 62.7932 82.9844 62.8172 82.9792C62.8258 82.9772 62.8343 82.9747 62.8427 82.9726C62.8648 82.9672 62.8866 82.9614 62.9079 82.9544C62.918 82.951 62.9279 82.947 62.9381 82.9434C62.9571 82.9363 62.9759 82.9289 62.9944 82.9207C63.0057 82.9157 63.0168 82.9101 63.028 82.9045C63.0446 82.8961 63.0609 82.8874 63.0769 82.8781C63.0885 82.8713 63.1001 82.8644 63.1115 82.857C63.1267 82.8471 63.1414 82.8368 63.156 82.8261C63.1668 82.8181 63.1776 82.8105 63.1883 82.802C63.2058 82.7879 63.2223 82.7728 63.2386 82.7576C63.2452 82.7515 63.2521 82.7459 63.2584 82.7396C63.2811 82.7172 63.3021 82.6933 63.3223 82.6686C63.3235 82.6671 63.3249 82.6659 63.3261 82.6644C63.3322 82.6569 63.3371 82.6488 63.3429 82.6412C63.3537 82.6267 63.3646 82.6123 63.3746 82.5972C63.3816 82.5865 63.3878 82.5754 63.3945 82.5645C63.4029 82.5504 63.4115 82.5363 63.4193 82.5217C63.4257 82.5095 63.4313 82.4971 63.437 82.4847C63.4436 82.4708 63.4501 82.457 63.456 82.4425C63.4614 82.4291 63.4661 82.4154 63.4709 82.4018C63.4757 82.3881 63.4806 82.3744 63.4848 82.3603C63.4892 82.3456 63.4927 82.3307 63.4962 82.3158C63.4994 82.3024 63.5029 82.2892 63.5055 82.2756C63.5086 82.2593 63.5108 82.243 63.513 82.2267C63.5147 82.2142 63.5167 82.2016 63.5179 82.1889C63.5196 82.1707 63.5201 82.1524 63.5207 82.1342C63.521 82.1248 63.5221 82.1156 63.5221 82.1061L63.5218 75.278C64.9712 74.1315 65.9043 72.3587 65.9043 70.3711ZM60.2207 79.0361C60.2207 79.036 60.2206 79.036 60.2206 79.0358L60.2079 79.0257C60.2014 79.0206 60.1945 79.0163 60.1879 79.0113C60.1721 78.9993 60.1562 78.9875 60.1398 78.9766C60.1301 78.9703 60.1203 78.9647 60.1104 78.9588C60.0952 78.9497 60.0802 78.9405 60.0646 78.9324C60.0524 78.926 60.0398 78.9203 60.0273 78.9146C60.0139 78.9082 60.0004 78.9018 59.9867 78.8963C59.9722 78.8904 59.9574 78.8854 59.9427 78.8802C59.9305 78.876 59.9182 78.8715 59.9058 78.8678C59.8902 78.8632 59.8745 78.8594 59.8586 78.8556C59.8465 78.8527 59.8342 78.8496 59.8219 78.8471C59.8064 78.8441 59.791 78.8419 59.7753 78.8397C59.7622 78.8378 59.749 78.8359 59.7358 78.8346C59.7215 78.8332 59.7073 78.8326 59.693 78.8319C59.6781 78.8312 59.6634 78.8304 59.6485 78.8304C59.6358 78.8304 59.6233 78.8312 59.6107 78.8317C59.5943 78.8325 59.5778 78.8332 59.5614 78.8348C59.5502 78.8359 59.5391 78.8376 59.528 78.8391C59.5105 78.8415 59.493 78.8441 59.4756 78.8475C59.4652 78.8496 59.4549 78.8521 59.4445 78.8546C59.427 78.8588 59.4096 78.863 59.3922 78.8682C59.3812 78.8715 59.3705 78.8754 59.3597 78.8792C59.3436 78.8846 59.3275 78.8902 59.3117 78.8967C59.2989 78.9018 59.2865 78.9079 59.274 78.9136C59.2607 78.9198 59.2473 78.9259 59.2341 78.9328C59.2191 78.9406 59.2044 78.9496 59.1897 78.9584C59.1795 78.9646 59.1693 78.9703 59.1593 78.9769C59.1428 78.9877 59.127 78.9996 59.111 79.0117C59.1045 79.0167 59.0977 79.0208 59.0912 79.0259L59.0789 79.036C59.0787 79.0361 59.0785 79.0362 59.0783 79.0364L57.5647 80.2474V76.2678C58.2172 76.4992 58.9186 76.6265 59.6494 76.6265C60.3802 76.6265 61.0816 76.4993 61.7343 76.2678L61.7344 80.247L60.2207 79.0361ZM59.6494 74.8389C57.1858 74.8389 55.1816 72.8347 55.1816 70.3711C55.1816 67.9075 57.1858 65.9033 59.6494 65.9033C62.113 65.9033 64.1172 67.9075 64.1172 70.3711C64.1172 72.8347 62.113 74.8389 59.6494 74.8389Z" fill="#3E3E3E"/>
<path d="M59.6494 67.6907C58.1712 67.6907 56.9688 68.8932 56.9688 70.3713C56.9688 71.8495 58.1712 73.052 59.6494 73.052C61.1276 73.052 62.3301 71.8495 62.3301 70.3713C62.3301 68.8932 61.1276 67.6907 59.6494 67.6907ZM59.6494 71.2649C59.1566 71.2649 58.7559 70.8641 58.7559 70.3713C58.7559 69.8786 59.1566 69.4778 59.6494 69.4778C60.1422 69.4778 60.543 69.8786 60.543 70.3713C60.543 70.8641 60.1422 71.2649 59.6494 71.2649Z" fill="#3E3E3E"/>
</svg>
