<svg width="106" height="106" viewBox="0 0 106 106" fill="none" xmlns="http://www.w3.org/2000/svg">
<circle cx="53" cy="53" r="53" fill="#F3F3F3"/>
<g clip-path="">
<path d="M82.3898 28.2306L68.1565 22.0829C67.8997 21.9711 67.608 21.9711 67.3513 22.0829L53.1179 28.2306C52.7469 28.3926 52.5073 28.7592 52.5079 29.1639V36.2328H40.2998C39.1768 36.2328 38.2665 37.1432 38.2665 38.2662V48.4328H30.9271C29.4389 48.4325 28.0695 49.2452 27.3566 50.5516L22.4959 59.4637C22.171 60.0612 22.0005 60.7304 21.9998 61.4106V67.7495C22.0024 68.5022 22.2851 69.227 22.7928 69.7828C21.9804 70.6734 21.7717 71.96 22.2608 73.0617C22.75 74.1634 23.8444 74.8715 25.0498 74.8661H28.4516C27.5535 77.3948 28.4133 80.2133 30.5699 81.8101C32.7264 83.4069 35.6732 83.4069 37.8297 81.8101C39.9863 80.2133 40.8461 77.3948 39.948 74.8661H58.9516C58.0535 77.3948 58.9133 80.2133 61.0699 81.8101C63.2264 83.4069 66.1732 83.4069 68.3297 81.8101C70.4863 80.2133 71.3461 77.3948 70.448 74.8661H73.8498C75.5343 74.8661 76.8998 73.5006 76.8998 71.8162C76.898 71.3626 76.7938 70.9153 76.5948 70.5077C76.7903 70.3172 76.9003 70.0557 76.8998 69.7828V53.5162L78.6393 52.2768C81.3655 50.3421 82.9895 47.2099 82.9998 43.867V29.1639C83.0004 28.7592 82.7608 28.3926 82.3898 28.2306ZM38.2665 68.7662H25.0498C24.4883 68.7662 24.0331 68.311 24.0331 67.7495V66.7328H26.0665C27.1894 66.7328 28.0998 65.8225 28.0998 64.6995V62.6662H31.1498C32.8343 62.6662 34.1998 61.3006 34.1998 59.6162V50.4662H38.2665V68.7662ZM26.0665 62.6662V64.6995H24.0331V62.6662H26.0665ZM29.1419 51.5255C29.4983 50.8723 30.183 50.466 30.9271 50.4662H32.1665V59.6162C32.1665 60.1776 31.7113 60.6328 31.1498 60.6328H24.2049C24.2266 60.5663 24.252 60.5012 24.2812 60.4376L29.1419 51.5255ZM38.2665 76.8995C38.2665 79.1454 36.4458 80.9661 34.1998 80.9661C31.9538 80.9661 30.1331 79.1454 30.1331 76.8995C30.1329 76.1845 30.3238 75.4825 30.6862 74.8661H37.7134C38.0758 75.4825 38.2667 76.1845 38.2665 76.8995ZM68.7665 76.8995C68.7665 79.1454 66.9457 80.9661 64.6998 80.9661C62.4538 80.9661 60.6331 79.1454 60.6331 76.8995C60.6329 76.1845 60.8238 75.4825 61.1862 74.8661H68.2134C68.5758 75.4825 68.7667 76.1845 68.7665 76.8995ZM73.8498 72.8328H25.0498C24.4883 72.8328 24.0331 72.3776 24.0331 71.8162C24.0331 71.2547 24.4883 70.7995 25.0498 70.7995H73.8498C74.4113 70.7995 74.8665 71.2547 74.8665 71.8162C74.8665 72.3776 74.4113 72.8328 73.8498 72.8328ZM74.8665 65.0879L72.8331 64.0712V61.2611L74.8665 60.2445V65.0879ZM74.8665 57.9712L71.362 59.7178C71.0157 59.8909 70.7977 60.2456 70.7998 60.6328V64.6995C70.7977 65.0867 71.0157 65.4414 71.362 65.6145L74.8665 67.3611V68.7662H40.2998V38.2662H52.4998V43.867C52.5101 47.2099 54.1341 50.3421 56.8603 52.2768L66.6975 59.2807C67.3277 59.728 68.1719 59.728 68.802 59.2807L74.8665 54.9629V57.9712ZM80.9665 43.867C80.9566 46.5523 79.6506 49.0676 77.46 50.6207L67.7498 57.533L58.0396 50.6197C55.8492 49.0668 54.5433 46.5519 54.5331 43.867V29.8329L67.7498 24.1233L80.9665 29.8329V43.867Z" fill="#3E3E3E"/>
<path d="M67.3431 26.5129L57.1764 30.9049C56.8054 31.0668 56.5658 31.4334 56.5664 31.8382V43.8674C56.576 45.8945 57.5634 47.7925 59.2179 48.9639L67.1601 54.6176C67.513 54.8689 67.9864 54.8689 68.3394 54.6176L76.2816 48.9649C77.936 47.793 78.9233 45.8948 78.933 43.8674V31.8382C78.9336 31.4334 78.6941 31.0668 78.3231 30.9049L68.1564 26.5129C67.8971 26.3997 67.6024 26.3997 67.3431 26.5129ZM76.8997 32.5112V43.8674C76.8907 45.2375 76.2209 46.5191 75.1012 47.3088L67.7497 52.5426L60.3982 47.3088C59.2784 46.5192 58.6086 45.2375 58.5997 43.8674V32.5061L67.7497 28.5533L76.8997 32.5112Z" fill="#3E3E3E"/>
<path d="M62.26 41.5201C61.9694 41.3022 61.5846 41.2559 61.2506 41.3985C60.9166 41.5412 60.6841 41.8513 60.6406 42.2119C60.5972 42.5725 60.7494 42.9289 61.04 43.1468L65.1066 46.1968C65.5459 46.5264 66.1675 46.4477 66.5107 46.0189L74.644 35.8522C74.9904 35.4135 74.9175 34.7773 74.4809 34.4282C74.0443 34.0791 73.4078 34.148 73.056 34.5824L65.5387 43.9795L62.26 41.5201Z" fill="#FF4444"/>
<path d="M34.2003 77.9159C34.7618 77.9159 35.2169 77.4607 35.2169 76.8992C35.2169 76.3377 34.7618 75.8826 34.2003 75.8826C33.6388 75.8826 33.1836 76.3377 33.1836 76.8992C33.1836 77.4607 33.6388 77.9159 34.2003 77.9159Z" fill="#3E3E3E"/>
<path d="M64.7002 77.9159C65.2617 77.9159 65.7169 77.4607 65.7169 76.8992C65.7169 76.3377 65.2617 75.8826 64.7002 75.8826C64.1388 75.8826 63.6836 76.3377 63.6836 76.8992C63.6836 77.4607 64.1388 77.9159 64.7002 77.9159Z" fill="#3E3E3E"/>
</g>
<defs>
<clipPath id="clip0">
<rect width="61" height="61" fill="white" transform="translate(22 22)"/>
</clipPath>
</defs>
</svg>
