<?xml version="1.0" encoding="iso-8859-1"?>
<!-- Generator: Adobe Illustrator 19.0.0, SVG Export Plug-In . SVG Version: 6.00 Build 0)  -->
<svg version="1.1" id="Capa_1" xmlns="http://www.w3.org/2000/svg" xmlns:xlink="http://www.w3.org/1999/xlink" x="0px" y="0px"
	 viewBox="0 0 480 480" style="enable-background:new 0 0 480 480;" xml:space="preserve">
<g>
	<g>
		<g>
			<path d="M440,128H240c-19.106-0.054-37.44,7.54-50.912,21.088L160,178.208V64h136c13.255,0,24-10.745,24-24V24
				c0-13.255-10.745-24-24-24H24c-4.418,0-8,3.582-8,8v425.472C6.445,436.85,0.042,445.866,0,456v16c0,4.418,3.582,8,8,8h160
				c4.418,0,8-3.582,8-8v-16c-0.042-10.134-6.445-19.15-16-22.528v-28.48c-0.042-14.861,5.864-29.12,16.4-39.6l76.992-76.992
				c10.48-10.536,24.739-16.442,39.6-16.4H344v24c0,4.418,3.582,8,8,8h96c4.418,0,8-3.582,8-8v-24h16c4.418,0,8-3.582,8-8v-96
				C479.974,145.92,462.08,128.026,440,128z M32,16h264c4.418,0,8,3.582,8,8v16c0,4.418-3.582,8-8,8H32V16z M160,464H16v-8
				c0-4.418,3.582-8,8-8h128c4.418,0,8,3.582,8,8V464z M440,288h-80v-16h80V288z M464,256H292.992
				c-19.106-0.054-37.44,7.54-50.912,21.088l-76.992,76.992c-13.548,13.472-21.142,31.806-21.088,50.912V432H32V64h112v133.52
				c0.001,4.418,3.583,7.999,8.002,7.998c2.121,0,4.154-0.843,5.654-2.342l42.776-42.776c10.472-10.528,24.719-16.433,39.568-16.4
				h200c13.255,0,24,10.745,24,24V256z"/>
			<path d="M400,337.92l-6.584,9.536C389.176,353.6,352,408.104,352,432c0,26.51,21.49,48,48,48c26.51,0,48-21.49,48-48
				c0-23.896-37.176-78.4-41.416-84.544L400,337.92z M400,464c-17.673,0-32-14.327-32-32c0-12.296,17.6-43.424,32-65.6
				c14.4,22.184,32,53.312,32,65.6C432,449.673,417.673,464,400,464z"/>
		</g>
	</g>
</g>
<g>
</g>
<g>
</g>
<g>
</g>
<g>
</g>
<g>
</g>
<g>
</g>
<g>
</g>
<g>
</g>
<g>
</g>
<g>
</g>
<g>
</g>
<g>
</g>
<g>
</g>
<g>
</g>
<g>
</g>
</svg>
