<svg width="60" height="58" xmlns="http://www.w3.org/2000/svg"><path d="M23.293 14.024h-9.147V5h2.561V0H0v5h2.561v13.902c0 1.87.65 3.435 1.951 4.696 1.301 1.26 2.846 1.89 4.634 1.89h14.147v2.439h5V11.585h-5v2.44zm34.146 20.488V20.61c0-1.87-.65-3.435-1.951-4.695-1.301-1.26-2.846-1.89-4.634-1.89H36.707v-2.44h-5v16.342h5v-2.44h9.147v9.025h-2.561v4.878H60v-4.878h-2.561zM56.22 53.049c0-.732-.387-1.89-1.159-3.476a43.472 43.472 0 00-2.317-4.207l-1.159-1.83c-3.008 4.635-4.512 7.805-4.512 9.513 0 1.22.447 2.276 1.342 3.17.894.895 1.971 1.342 3.231 1.342 1.26 0 2.338-.447 3.232-1.341.894-.895 1.342-1.952 1.342-3.171" fill="#FFF" fill-rule="evenodd"/></svg>