<svg width="60" height="49" xmlns="http://www.w3.org/2000/svg"><g fill="#FFF" fill-rule="evenodd"><path d="M52.969 48.516H60V19.219h-7.031zM0 48.516h7.031V19.219H0zM50.625 26.25v-4.688h-6.563v8.79c0 1.695-.749 3.231-2.166 4.443-.898.768-2.072 1.41-3.487 1.91-2.31.815-5.295 1.264-8.409 1.264-3.114 0-6.1-.449-8.409-1.264-4.919-1.736-5.654-4.726-5.654-6.353v-8.79H9.375v4.688h2.344v3.516H9.375v2.343h2.344v3.516H9.375v2.344h2.344v3.515H9.375v4.688h41.25v-4.688h-2.344V37.97h2.344v-2.344h-2.344V32.11h2.344v-2.343h-2.344V26.25h2.344zM39.363 8.5c-.055.02-.114.038-.17.057L34.624 6.68l4.57-1.878.169.056c2.4.84 2.942 1.699 2.942 1.822s-.543.981-2.942 1.82zM30 4.78l-2.822-1.16a38.247 38.247 0 015.644 0L30 4.78zm0 5.064c-.962 0-1.907-.036-2.822-.104L30 8.58l2.822 1.16c-.915.068-1.86.104-2.822.104zm-9.193-1.287l-.17-.056c-2.4-.84-2.942-1.698-2.942-1.821s.543-.982 2.942-1.822l.17-.056 4.569 1.878-4.57 1.877zM30 0c-3.949 0-7.687.547-10.524 1.54-4.377 1.532-5.296 3.64-5.296 5.14 0 4.237 6.992 6.344 14.062 6.642v1.795h3.516v-1.796c3.29-.137 6.354-.657 8.766-1.502 4.377-1.532 5.296-3.64 5.296-5.14C45.82 2.09 37.62 0 30 0z"/><path d="M41.5 13.958c-.068.025-.133.05-.201.073-3.08 1.078-7.093 1.672-11.299 1.672-4.32 0-8.4-.617-11.502-1.737a3.11 3.11 0 00-.217 1.151c0 2.232 2.224 3.485 4.09 4.144 2.065.728 4.774 1.13 7.629 1.13 2.855 0 5.564-.402 7.629-1.13 1.866-.659 4.09-1.912 4.09-4.144 0-.42-.08-.805-.22-1.159"/><path d="M38.409 21.47c-2.31.816-5.295 1.264-8.409 1.264-3.114 0-6.1-.448-8.409-1.263-1.429-.505-2.502-1.115-3.31-1.767v10.648c0 2.231 2.224 3.484 4.09 4.143 2.065.729 4.774 1.13 7.629 1.13 2.855 0 5.564-.401 7.629-1.13 1.866-.659 4.09-1.912 4.09-4.143V19.704c-.874.704-1.985 1.299-3.31 1.767"/></g></svg>