<svg width="60" height="52" xmlns="http://www.w3.org/2000/svg"><path d="M45 39c0 1.654-1.346 3-3 3s-3-1.346-3-3V13c0-1.654 1.346-3 3-3s3 1.346 3 3v26zm-10 0c0 1.654-1.346 3-3 3s-3-1.346-3-3V13c0-1.654 1.346-3 3-3s3 1.346 3 3v26zm-10 0c0 1.654-1.346 3-3 3s-3-1.346-3-3V13c0-1.654 1.346-3 3-3s3 1.346 3 3v26zm-10 0c0 1.654-1.346 3-3 3s-3-1.346-3-3V13c0-1.654 1.346-3 3-3s3 1.346 3 3v26zm42.5-26c1.379 0 2.5-1.121 2.5-2.5v-3C60 6.121 58.879 5 57.5 5A2.502 2.502 0 0055 7.5V8h-1V5h-3V4c0-2.206-1.794-4-4-4s-4 1.794-4 4v1a1 1 0 01-2 0V4c0-2.206-1.794-4-4-4s-4 1.794-4 4v1a1 1 0 01-2 0V4c0-2.206-1.794-4-4-4s-4 1.794-4 4v1a1 1 0 01-2 0V4c0-2.206-1.794-4-4-4s-4 1.794-4 4v1a1 1 0 01-2 0V4c0-2.206-1.794-4-4-4S3 1.794 3 4v2H0v7h3v26H0v7h3v2c0 2.206 1.794 4 4 4s4-1.794 4-4v-1a1 1 0 012 0v1c0 2.206 1.794 4 4 4s4-1.794 4-4v-1a1 1 0 012 0v1c0 2.206 1.794 4 4 4s4-1.794 4-4v-1a1 1 0 012 0v1c0 2.206 1.794 4 4 4s4-1.794 4-4v-1a1 1 0 012 0v1c0 2.206 1.794 4 4 4s4-1.794 4-4v-2h3v-1h6v-5h-6v-1h-3V13h3v-3h1v.5c0 1.379 1.121 2.5 2.5 2.5z" fill="#FFF" fill-rule="evenodd"/></svg>