<svg width="37" height="37" viewBox="0 0 37 37" fill="none" xmlns="http://www.w3.org/2000/svg">
    <path d="M16.5803 10.5739L16.2224 6.27829C16.199 5.9974 15.9642 5.78132 15.6823 5.78132H15.1404V5.23926C15.1404 4.34266 14.411 3.61328 13.5144 3.61328C12.6178 3.61328 11.8884 4.34266 11.8884 5.23926V5.78132H11.3465C11.0681 5.78132 10.8349 5.99227 10.8072 6.26933L10.3735 10.6053C10.3583 10.7577 10.4082 10.9094 10.511 11.0229C10.6137 11.1364 10.7597 11.2012 10.9128 11.2012H16.0435C16.0441 11.2012 16.0445 11.2012 16.045 11.2012C16.3443 11.2012 16.587 10.9585 16.587 10.6592C16.587 10.6302 16.5847 10.6017 16.5803 10.5739ZM12.9724 5.23926C12.9724 4.94037 13.2155 4.69727 13.5144 4.69727C13.8133 4.69727 14.0564 4.94037 14.0564 5.23926V5.78132H12.9724V5.23926ZM11.5117 10.1173L11.837 6.86531H15.1836L15.4545 10.1173H11.5117Z" fill="#3E3E3E"></path>
    <path d="M30.9625 4.82373C30.9612 4.81051 30.9589 4.79764 30.9566 4.78478C30.9558 4.78023 30.9554 4.7756 30.9545 4.77112C30.9515 4.7558 30.9475 4.74077 30.9431 4.72588C30.9425 4.72393 30.9422 4.72184 30.9416 4.71989C30.937 4.70471 30.9315 4.6899 30.9256 4.6753C30.925 4.67356 30.9244 4.67183 30.9238 4.67009C30.918 4.65615 30.9114 4.64256 30.9045 4.62926C30.9032 4.62695 30.9023 4.62449 30.9011 4.62218C30.8944 4.60982 30.887 4.59783 30.8795 4.58605C30.8774 4.58294 30.8758 4.57969 30.8737 4.57658C30.8661 4.56531 30.8578 4.55454 30.8495 4.54385C30.8469 4.54059 30.8447 4.53713 30.8421 4.53395C30.8308 4.52029 30.819 4.50706 30.8064 4.49456L26.4709 0.15884C26.4584 0.146338 26.4452 0.134414 26.4315 0.123141C26.428 0.12025 26.4241 0.117793 26.4206 0.114975C26.4103 0.106881 26.3999 0.0988594 26.3889 0.0915606C26.3855 0.0892481 26.3819 0.0873692 26.3785 0.0852012C26.367 0.0779024 26.3554 0.0706758 26.3434 0.0642441C26.3407 0.0627988 26.338 0.0617149 26.3353 0.0603418C26.3222 0.0536211 26.309 0.0471172 26.2954 0.0414805C26.2935 0.0406855 26.2915 0.0401074 26.2895 0.0393848C26.2751 0.0336035 26.2605 0.0281836 26.2456 0.0236309C26.2434 0.0229805 26.2412 0.0225469 26.239 0.0219688C26.2242 0.0177051 26.2094 0.0137305 26.1943 0.0106953C26.1897 0.00975586 26.185 0.00939453 26.1805 0.00859961C26.1677 0.00635938 26.1548 0.00411914 26.1416 0.00281836C26.1237 0.000939453 26.1057 0 26.0875 0H6.57681C6.27749 0 6.03482 0.242668 6.03482 0.541992V33.3126C6.03482 33.612 6.27749 33.8546 6.57681 33.8546H18.8619C19.1612 33.8546 19.4039 33.612 19.4039 33.3126C19.4039 33.0133 19.1612 32.7707 18.8619 32.7707H7.1188V1.08398H25.5455V4.87779C25.5455 5.17711 25.7882 5.41978 26.0875 5.41978H29.8812V32.7707H26.8111C26.5118 32.7707 26.2691 33.0133 26.2691 33.3126C26.2691 33.612 26.5118 33.8546 26.8111 33.8546H30.4232C30.7225 33.8546 30.9652 33.612 30.9652 33.3126V4.87779C30.9652 4.85965 30.9643 4.84158 30.9625 4.82373ZM26.6295 4.33579V1.85051L29.1147 4.33579H26.6295Z" fill="#3E3E3E"></path>
    <path d="M26.0875 15.4282H10.9126C10.6133 15.4282 10.3706 15.6709 10.3706 15.9702C10.3706 16.2695 10.6133 16.5122 10.9126 16.5122H26.0875C26.3868 16.5122 26.6295 16.2695 26.6295 15.9702C26.6295 15.6709 26.3868 15.4282 26.0875 15.4282Z" fill="#3E3E3E"></path>
    <path d="M26.0875 18.3193H10.9126C10.6133 18.3193 10.3706 18.562 10.3706 18.8613C10.3706 19.1607 10.6133 19.4033 10.9126 19.4033H26.0875C26.3868 19.4033 26.6295 19.1607 26.6295 18.8613C26.6295 18.562 26.3868 18.3193 26.0875 18.3193Z" fill="#FF4444"></path>
    <path d="M26.0875 21.21H10.9126C10.6133 21.21 10.3706 21.4526 10.3706 21.752C10.3706 22.0513 10.6133 22.2939 10.9126 22.2939H26.0875C26.3868 22.2939 26.6295 22.0513 26.6295 21.752C26.6295 21.4526 26.3868 21.21 26.0875 21.21Z" fill="#3E3E3E"></path>
    <path d="M17.4161 24.1006H10.9126C10.6133 24.1006 10.3706 24.3433 10.3706 24.6426C10.3706 24.9419 10.6133 25.1846 10.9126 25.1846H17.4161C17.7154 25.1846 17.9581 24.9419 17.9581 24.6426C17.9581 24.3433 17.7154 24.1006 17.4161 24.1006Z" fill="#3E3E3E"></path>
    <path d="M26.6304 29.3398C26.6304 27.2478 24.9284 25.5459 22.8364 25.5459C20.7444 25.5459 19.0425 27.2478 19.0425 29.3398C19.0425 30.5455 19.6085 31.6208 20.4879 32.3162V36.4579C20.4879 36.4636 20.4886 36.4692 20.4888 36.475C20.4892 36.4861 20.4895 36.497 20.4905 36.5081C20.4912 36.5158 20.4924 36.5234 20.4934 36.5311C20.4948 36.541 20.4961 36.5509 20.498 36.5607C20.4996 36.5689 20.5017 36.577 20.5036 36.5851C20.5058 36.5942 20.5079 36.6032 20.5106 36.6121C20.5131 36.6206 20.516 36.6288 20.519 36.6372C20.5219 36.6455 20.5247 36.6538 20.528 36.6619C20.5316 36.6706 20.5356 36.6789 20.5395 36.6874C20.5431 36.6949 20.5465 36.7025 20.5504 36.7099C20.5551 36.7188 20.5602 36.7273 20.5653 36.7359C20.5693 36.7425 20.5731 36.7492 20.5774 36.7557C20.5834 36.7649 20.59 36.7735 20.5965 36.7823C20.6 36.787 20.6031 36.7919 20.6067 36.7965C20.6075 36.7974 20.6083 36.7982 20.6091 36.7991C20.6212 36.8141 20.6341 36.8285 20.6477 36.8421C20.6515 36.8459 20.6557 36.8493 20.6597 36.8529C20.6696 36.8623 20.6797 36.8714 20.6904 36.88C20.6967 36.8851 20.7033 36.8897 20.7099 36.8946C20.7188 36.9011 20.7276 36.9074 20.7368 36.9134C20.7438 36.9178 20.7508 36.922 20.7579 36.9261C20.7675 36.9318 20.7774 36.937 20.7873 36.942C20.7941 36.9454 20.8009 36.9488 20.8079 36.9519C20.819 36.9569 20.8303 36.9613 20.8418 36.9656C20.848 36.9679 20.8541 36.9704 20.8604 36.9724C20.8732 36.9767 20.8863 36.9801 20.8996 36.9834C20.9048 36.9847 20.91 36.9863 20.9153 36.9874C20.9299 36.9906 20.9448 36.9928 20.9598 36.9948C20.964 36.9953 20.9681 36.9962 20.9723 36.9967C20.99 36.9986 21.008 36.9995 21.0262 36.9996C21.0276 36.9996 21.029 36.9999 21.0304 36.9999C21.0309 36.9999 21.0314 36.9997 21.032 36.9997C21.0585 36.9996 21.0843 36.997 21.1096 36.9934C21.1151 36.9926 21.1205 36.9918 21.126 36.9908C21.1518 36.9863 21.1768 36.9799 21.2012 36.9718C21.2057 36.9703 21.21 36.9686 21.2144 36.967C21.2404 36.9576 21.2657 36.9467 21.2897 36.9337C21.2905 36.9332 21.2913 36.9326 21.2922 36.9321C21.3175 36.9182 21.3413 36.902 21.3638 36.8843C21.3654 36.8831 21.3671 36.8823 21.3687 36.8811L22.8367 35.7067L24.3046 36.8811C24.3062 36.8823 24.3078 36.883 24.3093 36.8842C24.332 36.902 24.356 36.9182 24.3812 36.9322C24.382 36.9327 24.3828 36.9332 24.3836 36.9337C24.4076 36.9468 24.4329 36.9577 24.4589 36.967C24.4633 36.9686 24.4676 36.9704 24.472 36.9718C24.4964 36.9799 24.5215 36.9863 24.5473 36.9909C24.5527 36.9918 24.5581 36.9926 24.5636 36.9934C24.589 36.9971 24.6148 36.9996 24.6413 36.9997C24.6418 36.9997 24.6423 36.9999 24.6429 36.9999C24.6442 36.9999 24.6457 36.9996 24.647 36.9996C24.6652 36.9995 24.6832 36.9986 24.701 36.9967C24.7051 36.9962 24.7091 36.9953 24.7132 36.9948C24.7283 36.9928 24.7433 36.9905 24.7579 36.9874C24.7631 36.9862 24.7682 36.9847 24.7734 36.9834C24.7867 36.9801 24.8 36.9766 24.8129 36.9723C24.819 36.9703 24.825 36.9678 24.8312 36.9657C24.8427 36.9613 24.8542 36.9569 24.8654 36.9519C24.8722 36.9488 24.8789 36.9454 24.8857 36.942C24.8958 36.937 24.9057 36.9317 24.9154 36.9261C24.9224 36.922 24.9295 36.9178 24.9364 36.9133C24.9456 36.9073 24.9545 36.901 24.9633 36.8945C24.9699 36.8897 24.9765 36.885 24.9829 36.8799C24.9936 36.8714 25.0036 36.8622 25.0135 36.8529C25.0175 36.8493 25.0217 36.8459 25.0255 36.842C25.0392 36.8284 25.052 36.814 25.0642 36.799C25.065 36.7981 25.0658 36.7974 25.0665 36.7964C25.0702 36.7919 25.0732 36.787 25.0767 36.7823C25.0833 36.7736 25.0899 36.7649 25.096 36.7557C25.1002 36.7492 25.104 36.7424 25.108 36.7359C25.1132 36.7273 25.1184 36.7187 25.1231 36.7099C25.127 36.7025 25.1304 36.695 25.1338 36.6875C25.1378 36.679 25.1418 36.6706 25.1453 36.6619C25.1486 36.6537 25.1515 36.6454 25.1543 36.6372C25.1573 36.6288 25.1603 36.6205 25.1628 36.612C25.1655 36.603 25.1676 36.594 25.1697 36.585C25.1717 36.5769 25.1738 36.5689 25.1754 36.5606C25.1773 36.5507 25.1786 36.5408 25.1799 36.5309C25.1809 36.5233 25.1822 36.5158 25.1829 36.508C25.1839 36.497 25.1842 36.4859 25.1846 36.4748C25.1848 36.4691 25.1854 36.4636 25.1854 36.4578L25.1853 32.3162C26.0644 31.6208 26.6304 30.5455 26.6304 29.3398ZM23.1829 34.5957C23.1829 34.5956 23.1829 34.5956 23.1829 34.5955L23.1752 34.5894C23.1712 34.5863 23.167 34.5837 23.1631 34.5806C23.1535 34.5733 23.1438 34.5662 23.1339 34.5596C23.128 34.5558 23.122 34.5524 23.116 34.5488C23.1068 34.5433 23.0977 34.5377 23.0883 34.5328C23.0808 34.5289 23.0732 34.5254 23.0657 34.5219C23.0575 34.5181 23.0493 34.5142 23.041 34.5109C23.0322 34.5073 23.0232 34.5042 23.0143 34.5011C23.0069 34.4985 22.9995 34.4959 22.9919 34.4936C22.9825 34.4908 22.9729 34.4885 22.9633 34.4862C22.956 34.4844 22.9485 34.4826 22.9411 34.481C22.9317 34.4792 22.9223 34.4779 22.9128 34.4766C22.9049 34.4754 22.8968 34.4742 22.8888 34.4735C22.8801 34.4726 22.8715 34.4722 22.8629 34.4718C22.8538 34.4714 22.8449 34.4709 22.8358 34.4709C22.8282 34.4709 22.8206 34.4714 22.8129 34.4717C22.803 34.4722 22.793 34.4726 22.783 34.4736C22.7762 34.4742 22.7695 34.4753 22.7628 34.4762C22.7522 34.4776 22.7415 34.4792 22.731 34.4813C22.7247 34.4826 22.7184 34.4841 22.7121 34.4856C22.7015 34.4881 22.691 34.4907 22.6804 34.4938C22.6738 34.4959 22.6673 34.4982 22.6607 34.5005C22.6509 34.5038 22.6412 34.5072 22.6316 34.5111C22.6238 34.5142 22.6163 34.5179 22.6087 34.5214C22.6006 34.5251 22.5925 34.5288 22.5845 34.533C22.5754 34.5378 22.5665 34.5432 22.5576 34.5485C22.5514 34.5523 22.5452 34.5558 22.5391 34.5597C22.5292 34.5663 22.5195 34.5735 22.5099 34.5808C22.5059 34.5839 22.5018 34.5864 22.4979 34.5895L22.4903 34.5956C22.4903 34.5957 22.4901 34.5957 22.49 34.5959L21.5719 35.3304V32.9166C21.9677 33.0569 22.3931 33.1341 22.8364 33.1341C23.2797 33.1341 23.7051 33.057 24.101 32.9166L24.1011 35.3302L23.1829 34.5957ZM22.8364 32.0498C21.3421 32.0498 20.1265 30.8342 20.1265 29.3398C20.1265 27.8455 21.3421 26.6299 22.8364 26.6299C24.3307 26.6299 25.5464 27.8455 25.5464 29.3398C25.5464 30.8342 24.3307 32.0498 22.8364 32.0498Z" fill="#3E3E3E"></path>
    <path d="M22.8365 27.7139C21.9399 27.7139 21.2105 28.4432 21.2105 29.3398C21.2105 30.2364 21.9399 30.9658 22.8365 30.9658C23.7331 30.9658 24.4625 30.2364 24.4625 29.3398C24.4625 28.4432 23.7331 27.7139 22.8365 27.7139ZM22.8365 29.8818C22.5376 29.8818 22.2945 29.6387 22.2945 29.3398C22.2945 29.041 22.5376 28.7979 22.8365 28.7979C23.1354 28.7979 23.3785 29.041 23.3785 29.3398C23.3785 29.6387 23.1354 29.8818 22.8365 29.8818Z" fill="#3E3E3E"></path>
</svg>