<svg  width="36" height="36" viewBox="0 0 36 36" fill="none" xmlns="http://www.w3.org/2000/svg">
    <g clip-path="url(#clip0)">
    <path d="M27.9053 22.8833C27.6138 22.8833 27.3775 23.1196 27.3775 23.4111V25.4765C26.733 25.6967 26.2681 26.3079 26.2681 27.0259C26.2681 27.9287 27.0026 28.6631 27.9053 28.6631C28.1645 28.6631 28.4096 28.6023 28.6276 28.4947L30.3836 30.2507C30.4867 30.3537 30.6218 30.4052 30.7569 30.4052C30.8919 30.4052 31.0271 30.3537 31.1302 30.2507C31.3363 30.0445 31.3363 29.7103 31.1302 29.5042L29.3742 27.7482C29.4818 27.5302 29.5426 27.2851 29.5426 27.026C29.5426 26.3079 29.0777 25.6968 28.4333 25.4766V23.4112C28.4332 23.1196 28.1969 22.8833 27.9053 22.8833ZM28.4869 27.0259C28.4869 27.3466 28.226 27.6075 27.9053 27.6075C27.5847 27.6075 27.3238 27.3466 27.3238 27.0259C27.3238 26.7053 27.5847 26.4444 27.9053 26.4444C28.226 26.4444 28.4869 26.7053 28.4869 27.0259Z" fill="#3E3E3E"></path>
    <path d="M13.5173 11.7388C13.2463 11.6308 12.9395 11.7633 12.8318 12.0341L11.0235 16.5808C10.9157 16.8517 11.048 17.1586 11.3189 17.2663C11.3829 17.2918 11.4488 17.3038 11.5138 17.3038C11.7237 17.3038 11.9221 17.1778 12.0045 16.9709L13.8128 12.4243C13.9205 12.1534 13.7882 11.8464 13.5173 11.7388Z" fill="#3E3E3E"></path>
    <path d="M15.5755 17.2593C15.6446 17.2897 15.7167 17.3041 15.7876 17.3041C15.9906 17.3041 16.1842 17.1863 16.2711 16.9886L18.2698 12.4419C18.3416 12.2787 18.326 12.0902 18.2286 11.9409C18.1311 11.7917 17.9649 11.7017 17.7866 11.7017H15.2854C14.9939 11.7017 14.7576 11.9379 14.7576 12.2295C14.7576 12.5211 14.9939 12.7573 15.2854 12.7573H16.9779L15.3048 16.5637C15.1874 16.8305 15.3086 17.142 15.5755 17.2593Z" fill="#FF4444"></path>
    <path d="M8.9342 17.1788C9.22571 17.1788 9.46204 16.9426 9.46204 16.651V15.6821H9.74707C10.0386 15.6821 10.2749 15.4458 10.2749 15.1542C10.2749 14.8627 10.0386 14.6264 9.74707 14.6264H9.46204V12.2354C9.46204 11.903 9.24767 11.6177 8.92857 11.525C8.60962 11.4327 8.27609 11.5587 8.09832 11.8393C7.44563 12.8695 6.24124 14.8612 6.22914 14.8812C6.13061 15.0442 6.12751 15.2476 6.22111 15.4135C6.31472 15.5794 6.49038 15.682 6.6809 15.682H8.40637V16.6509C8.40637 16.9426 8.6427 17.1788 8.9342 17.1788ZM7.6189 14.6264C7.84939 14.2479 8.13358 13.7829 8.40637 13.3407V14.6264H7.6189Z" fill="#FF4444"></path>
    <path d="M4.56005 14.1095C3.84008 15.1382 3.41042 15.7007 3.17958 16.003C2.89208 16.3795 2.76083 16.5513 2.85063 16.8432C2.90341 17.0149 3.03347 17.1466 3.20738 17.2046C3.27733 17.2279 3.34447 17.2502 4.23223 17.2502C4.57905 17.2502 5.05122 17.2468 5.69772 17.2387C5.98923 17.235 6.22253 16.9958 6.21887 16.7043C6.21521 16.4151 5.97966 16.1831 5.69117 16.1831C5.68892 16.1831 5.68667 16.1831 5.68442 16.1832C5.23456 16.1888 4.75767 16.1925 4.35933 16.1934C4.61087 15.8568 4.95811 15.3818 5.42493 14.7149C5.71637 14.2984 5.90653 13.9046 5.99007 13.5444C5.99408 13.5272 5.99725 13.5096 5.99943 13.492L6.02188 13.3162C6.02477 13.2941 6.02618 13.2716 6.02618 13.2493C6.02618 12.3168 5.2675 11.5581 4.33498 11.5581C3.52866 11.5581 2.83071 12.1317 2.67546 12.9221C2.6193 13.2081 2.80559 13.4856 3.09168 13.5418C3.37783 13.5979 3.65513 13.4117 3.71136 13.1256C3.76963 12.8291 4.03186 12.6139 4.33498 12.6139C4.67582 12.6139 4.95487 12.8835 4.96987 13.2208L4.95593 13.3295C4.89949 13.5524 4.7664 13.8146 4.56005 14.1095Z" fill="#FF4444"></path>
    <path d="M7.68781 19.8301C7.68781 19.283 7.24273 18.8379 6.69561 18.8379H4.37861C3.83156 18.8379 3.38641 19.283 3.38641 19.8301V22.1471C3.38641 22.6941 3.83149 23.1393 4.37861 23.1393H6.69561C7.24266 23.1393 7.68781 22.6942 7.68781 22.1471V19.8301ZM6.63213 22.0835H4.44216V19.8936H6.6322V22.0835H6.63213Z" fill="#3E3E3E"></path>
    <path d="M13.2108 19.8301C13.2108 19.283 12.7657 18.8379 12.2186 18.8379H9.90162C9.35457 18.8379 8.90942 19.283 8.90942 19.8301V22.1471C8.90942 22.6941 9.3545 23.1393 9.90162 23.1393H12.2186C12.7657 23.1393 13.2108 22.6942 13.2108 22.1471V19.8301ZM12.1551 22.0835H9.9651V19.8936H12.1551V22.0835Z" fill="#3E3E3E"></path>
    <path d="M18.7338 19.8301C18.7338 19.283 18.2887 18.8379 17.7417 18.8379H15.4247C14.8776 18.8379 14.4325 19.283 14.4325 19.8301V22.1471C14.4325 22.6941 14.8776 23.1393 15.4247 23.1393H17.7417C18.2887 23.1393 18.7338 22.6942 18.7338 22.1471V19.8301ZM17.6781 22.0835H15.4882V19.8936H17.6781V22.0835Z" fill="#3E3E3E"></path>
    <path d="M23.0826 16.0641V13.7471C23.0826 13.2 22.6376 12.7549 22.0904 12.7549H19.7734C19.2264 12.7549 18.7812 13.2 18.7812 13.7471V16.0641C18.7812 16.6112 19.2263 17.0563 19.7734 17.0563H22.0904C22.6376 17.0563 23.0826 16.6113 23.0826 16.0641ZM22.027 16.0007H19.837V13.8106H22.027V16.0007Z" fill="#3E3E3E"></path>
    <path d="M25.2648 12.7554C24.7178 12.7554 24.2726 13.2004 24.2726 13.7476V16.0646C24.2726 16.6117 24.7177 17.0568 25.2648 17.0568H27.5818C28.1289 17.0568 28.574 16.6118 28.574 16.0646V13.7476C28.574 13.2005 28.129 12.7554 27.5818 12.7554H25.2648ZM27.5183 16.0011H25.3283V13.811H27.5183V16.0011Z" fill="#3E3E3E"></path>
    <path d="M4.37861 28.338H6.69561C7.24266 28.338 7.68781 27.8929 7.68781 27.3458V25.0288C7.68781 24.4818 7.24273 24.0366 6.69561 24.0366H4.37861C3.83156 24.0366 3.38641 24.4817 3.38641 25.0288V27.3458C3.38648 27.8929 3.83156 28.338 4.37861 28.338ZM4.44216 25.0923H6.6322V27.2823H4.44216V25.0923Z" fill="#3E3E3E"></path>
    <path d="M9.90162 28.338H12.2186C12.7657 28.338 13.2108 27.8929 13.2108 27.3458V25.0288C13.2108 24.4818 12.7657 24.0366 12.2186 24.0366H9.90162C9.35457 24.0366 8.90942 24.4817 8.90942 25.0288V27.3458C8.90949 27.8929 9.35457 28.338 9.90162 28.338ZM9.96517 25.0923H12.1552V27.2823H9.96517V25.0923Z" fill="#3E3E3E"></path>
    <path d="M17.7417 24.0366H15.4247C14.8776 24.0366 14.4325 24.4817 14.4325 25.0288V27.3458C14.4325 27.8929 14.8776 28.338 15.4247 28.338H17.7417C18.2887 28.338 18.7338 27.8929 18.7338 27.3458V25.0288C18.7338 24.4818 18.2887 24.0366 17.7417 24.0366ZM17.6781 27.2823H15.4882V25.0924H17.6781V27.2823Z" fill="#3E3E3E"></path>
    <path d="M18.7925 29.7569H3.64793C2.21854 29.7569 1.05568 28.5941 1.05568 27.1648V22.7998C1.05568 22.5082 0.819346 22.272 0.527839 22.272C0.236331 22.272 0 22.5082 0 22.7998V27.1648C0 29.1762 1.63644 30.8126 3.64793 30.8126H18.7925C19.084 30.8126 19.3203 30.5764 19.3203 30.2848C19.3203 29.9932 19.084 29.7569 18.7925 29.7569Z" fill="#3E3E3E"></path>
    <path d="M0.527839 21.0782C0.819346 21.0782 1.05568 20.842 1.05568 20.5504V9.96138H24.8005C25.092 9.96138 25.3283 9.72512 25.3283 9.43354C25.3283 9.14196 25.092 8.9057 24.8005 8.9057H1.05568V7.15504C1.05568 5.72565 2.21854 4.56286 3.64793 4.56286H7.3233V5.68842C7.3233 6.50277 7.98585 7.16531 8.80019 7.16531C9.61454 7.16531 10.2771 6.50277 10.2771 5.68842V4.56286H20.8775V5.68842C20.8775 6.50277 21.54 7.16531 22.3543 7.16531C23.1687 7.16531 23.8312 6.50277 23.8312 5.68842V4.56286H27.5066C28.936 4.56286 30.0988 5.72565 30.0988 7.15504V8.9057H27.0499C26.7583 8.9057 26.5221 9.14196 26.5221 9.43354C26.5221 9.72512 26.7583 9.96138 27.0499 9.96138H30.0988V17.7375C30.0988 18.0291 30.3351 18.2653 30.6267 18.2653C30.9182 18.2653 31.1545 18.0291 31.1545 17.7375V7.15504C31.1545 5.14362 29.5181 3.50718 27.5066 3.50718H23.8312V2.35678C23.8312 1.54243 23.1687 0.879883 22.3543 0.879883C21.54 0.879883 20.8775 1.54243 20.8775 2.35678V3.50725H10.2771V2.35678C10.2771 1.54243 9.61454 0.879883 8.80019 0.879883C7.98585 0.879883 7.3233 1.54243 7.3233 2.35678V3.50725H3.64793C1.63644 3.50718 0 5.14362 0 7.15504V20.5504C0 20.842 0.236331 21.0782 0.527839 21.0782ZM21.9332 2.35678C21.9332 2.12446 22.1221 1.93556 22.3543 1.93556C22.5866 1.93556 22.7755 2.12453 22.7755 2.35678V5.68849C22.7755 5.92081 22.5866 6.10971 22.3543 6.10971C22.1221 6.10971 21.9332 5.92074 21.9332 5.68849V2.35678ZM8.37898 2.35678C8.37898 2.12446 8.56795 1.93556 8.80019 1.93556C9.03244 1.93556 9.22141 2.12453 9.22141 2.35678V5.68849C9.22141 5.92081 9.03244 6.10971 8.80019 6.10971C8.56795 6.10971 8.37898 5.92074 8.37898 5.68849V2.35678Z" fill="#3E3E3E"></path>
    <path d="M35.7135 24.8857C35.6365 24.6046 35.3464 24.439 35.0651 24.5158C34.7839 24.5928 34.6182 24.8831 34.6951 25.1642C34.8142 25.5996 34.8903 26.0463 34.9239 26.4978H34.0881C33.7965 26.4978 33.5602 26.7341 33.5602 27.0257C33.5602 27.3172 33.7965 27.5535 34.0881 27.5535H34.9245C34.8094 29.0981 34.1937 30.5053 33.2394 31.6134L32.6504 31.0243C32.4442 30.8182 32.11 30.8181 31.9039 31.0242C31.6977 31.2304 31.6977 31.5646 31.9039 31.7707L32.4929 32.3598C31.385 33.3141 29.9777 33.9298 28.4331 34.0449V33.2083C28.4331 32.9167 28.1968 32.6804 27.9052 32.6804C27.6137 32.6804 27.3774 32.9167 27.3774 33.2083V34.0449C25.8328 33.9298 24.4256 33.3141 23.3176 32.3598L23.9068 31.7707C24.1129 31.5644 24.1129 31.2303 23.9068 31.0241C23.7006 30.8181 23.3664 30.8181 23.1603 31.0241L22.5711 31.6133C21.6169 30.5053 21.0011 29.0981 20.8861 27.5535H21.7226C22.0141 27.5535 22.2504 27.3172 22.2504 27.0257C22.2504 26.7341 22.0141 26.4978 21.7226 26.4978H20.8861C21.0011 24.9532 21.6169 23.5459 22.5711 22.438L23.1603 23.0271C23.2633 23.1301 23.3984 23.1817 23.5335 23.1817C23.6685 23.1817 23.8037 23.1301 23.9068 23.027C24.1129 22.8209 24.1129 22.4867 23.9067 22.2806L23.3176 21.6915C24.4256 20.7373 25.8329 20.1215 27.3775 20.0065V20.843C27.3775 21.1346 27.6137 21.3708 27.9053 21.3708C28.1969 21.3708 28.4332 21.1346 28.4332 20.843V20.007C29.9513 20.1194 31.3675 20.7135 32.4967 21.6877L31.9039 22.2806C31.6977 22.4868 31.6977 22.821 31.9039 23.0271C32.007 23.1301 32.1421 23.1817 32.2772 23.1817C32.4122 23.1817 32.5473 23.1301 32.6504 23.0271L33.242 22.4355C33.4606 22.6903 33.6635 22.9621 33.8474 23.2509C34.004 23.4968 34.3301 23.5692 34.5761 23.4126C34.822 23.2561 34.8944 22.9298 34.7379 22.6839C33.2417 20.334 30.6874 18.9312 27.9053 18.9312C23.4419 18.9312 19.8107 22.5624 19.8107 27.0258C19.8107 31.4892 23.4419 35.1203 27.9053 35.1203C32.3687 35.1203 36 31.4891 36 27.0257C36 26.3009 35.9035 25.5809 35.7135 24.8857Z" fill="#3E3E3E"></path>
    </g>
    <defs>
    <clipPath id="clip0">
    <rect width="36" height="36" fill="white"></rect>
    </clipPath>
    </defs>
</svg>