<svg width="36" height="36" viewBox="0 0 36 36" fill="none" xmlns="http://www.w3.org/2000/svg">
    <g clip-path="">
    <path d="M35.6397 3.6767L27.2397 0.0485044C27.0881 -0.0174702 26.916 -0.0174702 26.7645 0.0485044L18.3645 3.6767C18.1455 3.77226 18.0041 3.98861 18.0045 4.2275V8.3993H10.7997C10.1369 8.3993 9.59968 8.93656 9.59968 9.5993V15.5993H5.26828C4.39 15.5991 3.58177 16.0787 3.16108 16.8497L0.292478 22.1093C0.100721 22.4619 7.56327e-05 22.8569 -0.000321494 23.2583V26.9993C0.0012407 27.4435 0.168067 27.8713 0.467678 28.1993C-0.011739 28.7249 -0.134932 29.4842 0.153744 30.1344C0.44242 30.7846 1.08831 31.2024 1.79968 31.1993H3.80728C3.27728 32.6916 3.78471 34.355 5.05743 35.2974C6.33014 36.2397 8.06921 36.2397 9.34193 35.2974C10.6146 34.355 11.1221 32.6916 10.5921 31.1993H21.8073C21.2773 32.6916 21.7847 34.355 23.0574 35.2974C24.3301 36.2397 26.0692 36.2397 27.3419 35.2974C28.6146 34.355 29.1221 32.6916 28.5921 31.1993H30.5997C31.5938 31.1993 32.3997 30.3934 32.3997 29.3993C32.3986 29.1316 32.3371 28.8676 32.2197 28.6271C32.335 28.5147 32.4 28.3604 32.3997 28.1993V18.5993L33.4263 17.8679C35.0352 16.7261 35.9936 14.8776 35.9997 12.9047V4.2275C36 3.98861 35.8586 3.77226 35.6397 3.6767ZM9.59968 27.5993H1.79968C1.46831 27.5993 1.19968 27.3307 1.19968 26.9993V26.3993H2.39968C3.06242 26.3993 3.59968 25.862 3.59968 25.1993V23.9993H5.39968C6.39379 23.9993 7.19968 23.1934 7.19968 22.1993V16.7993H9.59968V27.5993ZM2.39968 23.9993V25.1993H1.19968V23.9993H2.39968ZM4.21468 17.4245C4.42503 17.039 4.82914 16.7992 5.26828 16.7993H5.99968V22.1993C5.99968 22.5307 5.73105 22.7993 5.39968 22.7993H1.30108C1.31384 22.7601 1.32886 22.7216 1.34608 22.6841L4.21468 17.4245ZM9.59968 32.3993C9.59968 33.7248 8.52516 34.7993 7.19968 34.7993C5.87419 34.7993 4.79968 33.7248 4.79968 32.3993C4.79952 31.9774 4.91221 31.563 5.12608 31.1993H9.27328C9.48714 31.563 9.59984 31.9774 9.59968 32.3993ZM27.5997 32.3993C27.5997 33.7248 26.5252 34.7993 25.1997 34.7993C23.8742 34.7993 22.7997 33.7248 22.7997 32.3993C22.7995 31.9774 22.9122 31.563 23.1261 31.1993H27.2733C27.4871 31.563 27.5998 31.9774 27.5997 32.3993ZM30.5997 29.9993H1.79968C1.46831 29.9993 1.19968 29.7307 1.19968 29.3993C1.19968 29.0679 1.46831 28.7993 1.79968 28.7993H30.5997C30.931 28.7993 31.1997 29.0679 31.1997 29.3993C31.1997 29.7307 30.931 29.9993 30.5997 29.9993ZM31.1997 25.4285L29.9997 24.8285V23.1701L31.1997 22.5701V25.4285ZM31.1997 21.2285L29.1315 22.2593C28.9271 22.3614 28.7984 22.5708 28.7997 22.7993V25.1993C28.7984 25.4278 28.9271 25.6372 29.1315 25.7393L31.1997 26.7701V27.5993H10.7997V9.5993H17.9997V12.9047C18.0058 14.8776 18.9642 16.7261 20.5731 17.8679L26.3787 22.0013C26.7506 22.2653 27.2488 22.2653 27.6207 22.0013L31.1997 19.4531V21.2285ZM34.7997 12.9047C34.7938 14.4895 34.0231 15.9739 32.7303 16.8905L26.9997 20.9699L21.2691 16.8899C19.9764 15.9734 19.2057 14.4893 19.1997 12.9047V4.6223L26.9997 1.2527L34.7997 4.6223V12.9047Z" fill="#3E3E3E"></path>
    <path d="M26.76 2.66337L20.76 5.25537C20.5411 5.35093 20.3997 5.56728 20.4 5.80617V12.9054C20.4057 14.1017 20.9884 15.2218 21.9648 15.9132L26.652 19.2498C26.8603 19.3981 27.1397 19.3981 27.348 19.2498L32.0352 15.9138C33.0116 15.2221 33.5943 14.1019 33.6 12.9054V5.80617C33.6004 5.56728 33.459 5.35093 33.24 5.25537L27.24 2.66337C27.087 2.59658 26.913 2.59658 26.76 2.66337ZM32.4 6.20337V12.9054C32.3947 13.714 31.9994 14.4703 31.3386 14.9364L27 18.0252L22.6614 14.9364C22.0005 14.4704 21.6053 13.714 21.6 12.9054V6.20037L27 3.86757L32.4 6.20337Z" fill="#3E3E3E"></path>
    <path d="M23.7599 11.5199C23.5884 11.3913 23.3614 11.3639 23.1642 11.4482C22.9671 11.5324 22.8299 11.7153 22.8042 11.9282C22.7786 12.141 22.8684 12.3513 23.0399 12.4799L25.4399 14.2799C25.6992 14.4745 26.066 14.428 26.2685 14.1749L31.0685 8.17493C31.273 7.91598 31.23 7.54057 30.9723 7.33454C30.7146 7.1285 30.339 7.16915 30.1313 7.42553L25.6949 12.9713L23.7599 11.5199Z" fill="#FF4444"></path>
    <path d="M7.19998 32.9998C7.53135 32.9998 7.79998 32.7312 7.79998 32.3998C7.79998 32.0684 7.53135 31.7998 7.19998 31.7998C6.86861 31.7998 6.59998 32.0684 6.59998 32.3998C6.59998 32.7312 6.86861 32.9998 7.19998 32.9998Z" fill="#3E3E3E"></path>
    <path d="M25.2 32.9998C25.5313 32.9998 25.8 32.7312 25.8 32.3998C25.8 32.0684 25.5313 31.7998 25.2 31.7998C24.8686 31.7998 24.6 32.0684 24.6 32.3998C24.6 32.7312 24.8686 32.9998 25.2 32.9998Z" fill="#3E3E3E"></path>
    </g>
    <defs>
    <clipPath id="clip0">
    <rect width="36" height="36" fill="white"></rect>
    </clipPath>
    </defs>
</svg>